<?xml version="1.0" encoding="UTF-8"?>
<!--Generator: Apple Native CoreSVG 149-->
<!DOCTYPE svg
PUBLIC "-//W3C//DTD SVG 1.1//EN"
       "http://www.w3.org/Graphics/SVG/1.1/DTD/svg11.dtd">
<svg version="1.1" xmlns="http://www.w3.org/2000/svg" xmlns:xlink="http://www.w3.org/1999/xlink" width="3300" height="2200">
 <!--glyph: "uni1005E7.medium", point size: 100.000000, font version: "Version 16.0d18e1", template writer version: "8"-->
 <g id="Notes">
  <rect height="2200" id="artboard" style="fill:white;opacity:1" width="3300" x="0" y="0"/>
  <line id="" style="fill:none;stroke:black;opacity:1;stroke-width:0.5;" x1="263" x2="3036" y1="292" y2="292"/>
  <text style="stroke:none;fill:black;font-family:-apple-system,&quot;SF Pro Display&quot;,&quot;SF Pro Text&quot;,Helvetica,sans-serif;font-weight:bold;" transform="matrix(1 0 0 1 263 322)">Weight/Scale Variations</text>
  <text style="stroke:none;fill:black;font-family:-apple-system,&quot;SF Pro Display&quot;,&quot;SF Pro Text&quot;,Helvetica,sans-serif;text-anchor:middle;" transform="matrix(1 0 0 1 559.711 322)">Ultralight</text>
  <text style="stroke:none;fill:black;font-family:-apple-system,&quot;SF Pro Display&quot;,&quot;SF Pro Text&quot;,Helvetica,sans-serif;text-anchor:middle;" transform="matrix(1 0 0 1 856.422 322)">Thin</text>
  <text style="stroke:none;fill:black;font-family:-apple-system,&quot;SF Pro Display&quot;,&quot;SF Pro Text&quot;,Helvetica,sans-serif;text-anchor:middle;" transform="matrix(1 0 0 1 1153.13 322)">Light</text>
  <text style="stroke:none;fill:black;font-family:-apple-system,&quot;SF Pro Display&quot;,&quot;SF Pro Text&quot;,Helvetica,sans-serif;text-anchor:middle;" transform="matrix(1 0 0 1 1449.84 322)">Regular</text>
  <text style="stroke:none;fill:black;font-family:-apple-system,&quot;SF Pro Display&quot;,&quot;SF Pro Text&quot;,Helvetica,sans-serif;text-anchor:middle;" transform="matrix(1 0 0 1 1746.56 322)">Medium</text>
  <text style="stroke:none;fill:black;font-family:-apple-system,&quot;SF Pro Display&quot;,&quot;SF Pro Text&quot;,Helvetica,sans-serif;text-anchor:middle;" transform="matrix(1 0 0 1 2043.27 322)">Semibold</text>
  <text style="stroke:none;fill:black;font-family:-apple-system,&quot;SF Pro Display&quot;,&quot;SF Pro Text&quot;,Helvetica,sans-serif;text-anchor:middle;" transform="matrix(1 0 0 1 2339.98 322)">Bold</text>
  <text style="stroke:none;fill:black;font-family:-apple-system,&quot;SF Pro Display&quot;,&quot;SF Pro Text&quot;,Helvetica,sans-serif;text-anchor:middle;" transform="matrix(1 0 0 1 2636.69 322)">Heavy</text>
  <text style="stroke:none;fill:black;font-family:-apple-system,&quot;SF Pro Display&quot;,&quot;SF Pro Text&quot;,Helvetica,sans-serif;text-anchor:middle;" transform="matrix(1 0 0 1 2933.4 322)">Black</text>
  <line id="" style="fill:none;stroke:black;opacity:1;stroke-width:0.5;" x1="263" x2="3036" y1="1903" y2="1903"/>
  <g id="" transform="matrix(1 0 0 1 263 1933)">
   <path d="M9.24805 0.830078C13.5547 0.830078 17.1387-2.74414 17.1387-7.05078C17.1387-11.3574 13.5449-14.9316 9.23828-14.9316C4.94141-14.9316 1.36719-11.3574 1.36719-7.05078C1.36719-2.74414 4.95117 0.830078 9.24805 0.830078ZM9.24805-0.654297C5.70312-0.654297 2.87109-3.49609 2.87109-7.05078C2.87109-10.6055 5.69336-13.4473 9.23828-13.4473C12.793-13.4473 15.6348-10.6055 15.6445-7.05078C15.6543-3.49609 12.8027-0.654297 9.24805-0.654297ZM6.39648-6.31836L8.50586-6.31836L8.50586-4.19922C8.50586-3.75977 8.79883-3.45703 9.22852-3.45703C9.67773-3.45703 9.9707-3.75977 9.9707-4.19922L9.9707-6.31836L12.0996-6.31836C12.5391-6.31836 12.8418-6.61133 12.8418-7.04102C12.8418-7.48047 12.5391-7.7832 12.0996-7.7832L9.9707-7.7832L9.9707-9.89258C9.9707-10.3418 9.67773-10.6445 9.22852-10.6445C8.79883-10.6445 8.50586-10.3418 8.50586-9.89258L8.50586-7.7832L6.39648-7.7832C5.94727-7.7832 5.64453-7.48047 5.64453-7.04102C5.64453-6.61133 5.94727-6.31836 6.39648-6.31836Z"/>
  </g>
  <g id="" transform="matrix(1 0 0 1 281.506 1933)">
   <path d="M11.709 2.91016C17.1582 2.91016 21.6699-1.61133 21.6699-7.05078C21.6699-12.5 17.1484-17.0117 11.6992-17.0117C6.25977-17.0117 1.74805-12.5 1.74805-7.05078C1.74805-1.61133 6.26953 2.91016 11.709 2.91016ZM11.709 1.25C7.09961 1.25 3.41797-2.44141 3.41797-7.05078C3.41797-11.6602 7.08984-15.3516 11.6992-15.3516C16.3086-15.3516 20-11.6602 20.0098-7.05078C20.0195-2.44141 16.3184 1.25 11.709 1.25ZM7.98828-6.23047L10.8789-6.23047L10.8789-3.32031C10.8789-2.83203 11.2109-2.5 11.6895-2.5C12.1777-2.5 12.5195-2.83203 12.5195-3.32031L12.5195-6.23047L15.4297-6.23047C15.918-6.23047 16.25-6.5625 16.25-7.04102C16.25-7.5293 15.918-7.87109 15.4297-7.87109L12.5195-7.87109L12.5195-10.7617C12.5195-11.2695 12.1777-11.6016 11.6895-11.6016C11.2109-11.6016 10.8789-11.2598 10.8789-10.7617L10.8789-7.87109L7.98828-7.87109C7.48047-7.87109 7.14844-7.5293 7.14844-7.04102C7.14844-6.5625 7.49023-6.23047 7.98828-6.23047Z"/>
  </g>
  <g id="" transform="matrix(1 0 0 1 304.924 1933)">
   <path d="M14.9707 5.66406C21.9336 5.66406 27.6953-0.0976562 27.6953-7.05078C27.6953-14.0137 21.9238-19.7754 14.9609-19.7754C8.00781-19.7754 2.25586-14.0137 2.25586-7.05078C2.25586-0.0976562 8.01758 5.66406 14.9707 5.66406ZM14.9707 3.84766C8.93555 3.84766 4.08203-1.01562 4.08203-7.05078C4.08203-13.0957 8.92578-17.9492 14.9609-17.9492C21.0059-17.9492 25.8594-13.0957 25.8691-7.05078C25.8789-1.01562 21.0156 3.84766 14.9707 3.84766ZM10.0586-6.14258L14.0625-6.14258L14.0625-2.12891C14.0625-1.5918 14.4336-1.2207 14.9512-1.2207C15.4883-1.2207 15.8594-1.5918 15.8594-2.12891L15.8594-6.14258L19.8828-6.14258C20.4102-6.14258 20.791-6.51367 20.791-7.03125C20.791-7.56836 20.4199-7.94922 19.8828-7.94922L15.8594-7.94922L15.8594-11.9531C15.8594-12.5098 15.4883-12.8809 14.9512-12.8809C14.4336-12.8809 14.0625-12.5 14.0625-11.9531L14.0625-7.94922L10.0586-7.94922C9.50195-7.94922 9.13086-7.56836 9.13086-7.03125C9.13086-6.51367 9.51172-6.14258 10.0586-6.14258Z"/>
  </g>
  <text style="stroke:none;fill:black;font-family:-apple-system,&quot;SF Pro Display&quot;,&quot;SF Pro Text&quot;,Helvetica,sans-serif;font-weight:bold;" transform="matrix(1 0 0 1 263 1953)">Design Variations</text>
  <text style="stroke:none;fill:black;font-family:-apple-system,&quot;SF Pro Display&quot;,&quot;SF Pro Text&quot;,Helvetica,sans-serif;" transform="matrix(1 0 0 1 263 1971)">Symbols are supported in up to nine weights and three scales.</text>
  <text style="stroke:none;fill:black;font-family:-apple-system,&quot;SF Pro Display&quot;,&quot;SF Pro Text&quot;,Helvetica,sans-serif;" transform="matrix(1 0 0 1 263 1989)">For optimal layout with text and other symbols, vertically align</text>
  <text style="stroke:none;fill:black;font-family:-apple-system,&quot;SF Pro Display&quot;,&quot;SF Pro Text&quot;,Helvetica,sans-serif;" transform="matrix(1 0 0 1 263 2007)">symbols with the adjacent text.</text>
  <line id="" style="fill:none;stroke:#00AEEF;stroke-width:0.5;opacity:1.0;" x1="776" x2="776" y1="1919" y2="1933"/>
  <g id="" transform="matrix(1 0 0 1 776 1933)">
   <path d="M3.31055 0.126953C3.82812 0.126953 4.08203-0.0683594 4.26758-0.605469L5.52734-4.0625L11.2891-4.0625L12.5488-0.605469C12.7344-0.0683594 12.9883 0.126953 13.4961 0.126953C14.0137 0.126953 14.3457-0.185547 14.3457-0.673828C14.3457-0.839844 14.3164-0.986328 14.2383-1.20117L9.6582-13.3887C9.43359-13.9941 9.0332-14.2871 8.4082-14.2871C7.80273-14.2871 7.39258-13.9941 7.17773-13.3984L2.59766-1.19141C2.51953-0.976562 2.49023-0.830078 2.49023-0.664062C2.49023-0.175781 2.80273 0.126953 3.31055 0.126953ZM6.00586-5.53711L8.37891-12.1094L8.42773-12.1094L10.8008-5.53711Z"/>
  </g>
  <line id="" style="fill:none;stroke:#00AEEF;stroke-width:0.5;opacity:1.0;" x1="792.836" x2="792.836" y1="1919" y2="1933"/>
  <text style="stroke:none;fill:black;font-family:-apple-system,&quot;SF Pro Display&quot;,&quot;SF Pro Text&quot;,Helvetica,sans-serif;font-weight:bold;" transform="matrix(1 0 0 1 776 1953)">Margins</text>
  <text style="stroke:none;fill:black;font-family:-apple-system,&quot;SF Pro Display&quot;,&quot;SF Pro Text&quot;,Helvetica,sans-serif;" transform="matrix(1 0 0 1 776 1971)">Leading and trailing margins on the left and right side of each symbol</text>
  <text style="stroke:none;fill:black;font-family:-apple-system,&quot;SF Pro Display&quot;,&quot;SF Pro Text&quot;,Helvetica,sans-serif;" transform="matrix(1 0 0 1 776 1989)">can be adjusted by modifying the x-location of the margin guidelines.</text>
  <text style="stroke:none;fill:black;font-family:-apple-system,&quot;SF Pro Display&quot;,&quot;SF Pro Text&quot;,Helvetica,sans-serif;" transform="matrix(1 0 0 1 776 2007)">Modifications are automatically applied proportionally to all</text>
  <text style="stroke:none;fill:black;font-family:-apple-system,&quot;SF Pro Display&quot;,&quot;SF Pro Text&quot;,Helvetica,sans-serif;" transform="matrix(1 0 0 1 776 2025)">scales and weights.</text>
  <g id="" transform="matrix(1 0 0 1 1289 1933)">
   <path d="M2.8418 1.86523L4.54102 3.57422C5.40039 4.44336 6.38672 4.38477 7.31445 3.35938L17.4902-7.85156C17.7539-7.76367 18.0273-7.7832 18.3398-7.8418L19.4043-8.03711L20.0684-7.36328L20.0293-6.80664C19.9902-6.30859 20.1172-5.92773 20.6055-5.44922L21.3672-4.70703C21.8457-4.22852 22.4609-4.19922 22.9297-4.66797L25.8398-7.58789C26.3086-8.05664 26.2891-8.65234 25.8105-9.13086L25.0391-9.89258C24.5605-10.3711 24.1895-10.5273 23.7109-10.4883L23.1348-10.4395L22.4902-11.0742L22.7344-12.1973C22.8613-12.7637 22.7051-13.2031 22.1191-13.7891L19.9219-15.9766C16.582-19.2969 12.1484-19.2188 9.25781-16.3281C8.83789-15.918 8.80859-15.3418 9.04297-14.9512C9.27734-14.5898 9.73633-14.3555 10.3809-14.5215C11.8457-14.8633 13.3691-14.9219 14.7949-13.9844L14.209-12.5293C14.0137-12.0508 13.9844-11.6504 14.1113-11.2891L3.04688-0.898438C2.06055 0.0195312 1.98242 0.996094 2.8418 1.86523ZM10.752-15.957C13.1836-17.7344 16.4746-17.4316 18.7012-15.2051L21.1328-12.793C21.3672-12.5586 21.4062-12.373 21.3379-12.0312L21.0156-10.5469L22.5195-9.0625L23.5059-9.12109C23.7598-9.13086 23.8379-9.11133 24.0332-8.91602L24.6094-8.33984L22.168-5.89844L21.5918-6.47461C21.3965-6.66992 21.3672-6.74805 21.377-7.01172L21.4453-7.98828L19.9512-9.47266L18.4277-9.21875C18.1055-9.15039 17.959-9.17969 17.7148-9.41406L15.7129-11.416C15.459-11.6504 15.4297-11.8164 15.5859-12.1875L16.4648-14.2773C14.9023-15.7324 12.8711-16.3574 10.8398-15.7617C10.6836-15.7227 10.625-15.8496 10.752-15.957ZM5.27344 2.30469L4.10156 1.14258C3.63281 0.683594 3.74023 0.341797 4.14062-0.0195312L14.9512-10.1953L16.416-8.71094L6.42578 2.27539C6.07422 2.67578 5.74219 2.77344 5.27344 2.30469Z"/>
  </g>
  <text style="stroke:none;fill:black;font-family:-apple-system,&quot;SF Pro Display&quot;,&quot;SF Pro Text&quot;,Helvetica,sans-serif;font-weight:bold;" transform="matrix(1 0 0 1 1289 1953)">Exporting</text>
  <text style="stroke:none;fill:black;font-family:-apple-system,&quot;SF Pro Display&quot;,&quot;SF Pro Text&quot;,Helvetica,sans-serif;" transform="matrix(1 0 0 1 1289 1971)">Symbols should be outlined when exporting to ensure the</text>
  <text style="stroke:none;fill:black;font-family:-apple-system,&quot;SF Pro Display&quot;,&quot;SF Pro Text&quot;,Helvetica,sans-serif;" transform="matrix(1 0 0 1 1289 1989)">design is preserved when submitting to Xcode.</text>
  <text id="template-version" style="stroke:none;fill:black;font-family:-apple-system,&quot;SF Pro Display&quot;,&quot;SF Pro Text&quot;,Helvetica,sans-serif;text-anchor:end;" transform="matrix(1 0 0 1 3036 1933)">Template v.2.0</text>
  <text style="stroke:none;fill:black;font-family:-apple-system,&quot;SF Pro Display&quot;,&quot;SF Pro Text&quot;,Helvetica,sans-serif;text-anchor:end;" transform="matrix(1 0 0 1 3036 1951)">Requires Xcode 12 or greater</text>
  <text style="stroke:none;fill:black;font-family:-apple-system,&quot;SF Pro Display&quot;,&quot;SF Pro Text&quot;,Helvetica,sans-serif;text-anchor:end;" transform="matrix(1 0 0 1 3036 1969)">Generated from eurosign.square</text>
  <text style="stroke:none;fill:black;font-family:-apple-system,&quot;SF Pro Display&quot;,&quot;SF Pro Text&quot;,Helvetica,sans-serif;text-anchor:end;" transform="matrix(1 0 0 1 3036 1987)">Typeset at 100 points</text>
  <text style="stroke:none;fill:black;font-family:-apple-system,&quot;SF Pro Display&quot;,&quot;SF Pro Text&quot;,Helvetica,sans-serif;" transform="matrix(1 0 0 1 263 726)">Small</text>
  <text style="stroke:none;fill:black;font-family:-apple-system,&quot;SF Pro Display&quot;,&quot;SF Pro Text&quot;,Helvetica,sans-serif;" transform="matrix(1 0 0 1 263 1156)">Medium</text>
  <text style="stroke:none;fill:black;font-family:-apple-system,&quot;SF Pro Display&quot;,&quot;SF Pro Text&quot;,Helvetica,sans-serif;" transform="matrix(1 0 0 1 263 1586)">Large</text>
 </g>
 <g id="Guides">
  <g id="H-reference" style="fill:#27AAE1;stroke:none;" transform="matrix(1 0 0 1 339 696)">
   <path d="M0.976562 0L3.66211 0L12.9883-24.4629L45.752-24.4629L55.127 0L57.7637 0L30.6152-70.459L28.125-70.459ZM29.3457-67.1387L29.4434-67.1387L44.873-26.709L13.8672-26.709Z"/>
  </g>
  <line id="Baseline-S" style="fill:none;stroke:#27AAE1;opacity:1;stroke-width:0.5;" x1="263" x2="3036" y1="696" y2="696"/>
  <line id="Capline-S" style="fill:none;stroke:#27AAE1;opacity:1;stroke-width:0.5;" x1="263" x2="3036" y1="625.541" y2="625.541"/>
  <g id="H-reference" style="fill:#27AAE1;stroke:none;" transform="matrix(1 0 0 1 339 1126)">
   <path d="M0.976562 0L3.66211 0L12.9883-24.4629L45.752-24.4629L55.127 0L57.7637 0L30.6152-70.459L28.125-70.459ZM29.3457-67.1387L29.4434-67.1387L44.873-26.709L13.8672-26.709Z"/>
  </g>
  <line id="Baseline-M" style="fill:none;stroke:#27AAE1;opacity:1;stroke-width:0.5;" x1="263" x2="3036" y1="1126" y2="1126"/>
  <line id="Capline-M" style="fill:none;stroke:#27AAE1;opacity:1;stroke-width:0.5;" x1="263" x2="3036" y1="1055.54" y2="1055.54"/>
  <g id="H-reference" style="fill:#27AAE1;stroke:none;" transform="matrix(1 0 0 1 339 1556)">
   <path d="M0.976562 0L3.66211 0L12.9883-24.4629L45.752-24.4629L55.127 0L57.7637 0L30.6152-70.459L28.125-70.459ZM29.3457-67.1387L29.4434-67.1387L44.873-26.709L13.8672-26.709Z"/>
  </g>
  <line id="Baseline-L" style="fill:none;stroke:#27AAE1;opacity:1;stroke-width:0.5;" x1="263" x2="3036" y1="1556" y2="1556"/>
  <line id="Capline-L" style="fill:none;stroke:#27AAE1;opacity:1;stroke-width:0.5;" x1="263" x2="3036" y1="1485.54" y2="1485.54"/>
  <line id="left-margin" style="fill:none;stroke:#00AEEF;stroke-width:0.5;opacity:1.0;" x1="1392.45" x2="1392.45" y1="1030.79" y2="1150.12"/>
  <line id="right-margin" style="fill:none;stroke:#00AEEF;stroke-width:0.5;opacity:1.0;" x1="1507.24" x2="1507.24" y1="1030.79" y2="1150.12"/>
 </g>
 <g id="Symbols">
  <g id="Black-L" transform="matrix(1 0 0 1 2855.62 1556)">
   <path d="M39.9902 26.5137L115.576 26.5137C130.811 26.5137 139.502 17.8711 139.502 2.68555L139.502-73.0957C139.502-88.2812 130.811-96.875 115.576-96.875L39.9902-96.875C24.7559-96.875 16.0645-88.2812 16.0645-73.0957L16.0645 2.68555C16.0645 17.8711 24.7559 26.5137 39.9902 26.5137ZM42.6758 6.29883C38.4766 6.29883 36.3281 4.39453 36.3281-0.146484L36.3281-70.2148C36.3281-74.7559 38.4766-76.6602 42.6758-76.6602L112.842-76.6602C117.09-76.6602 119.238-74.7559 119.238-70.2148L119.238-0.146484C119.238 4.39453 117.09 6.29883 112.842 6.29883ZM85.9863-7.08008C90.0879-7.08008 92.7246-7.8125 94.4336-9.0332C96.0449-10.2051 96.8262-11.8164 96.8262-13.7207C96.8262-15.9668 95.8008-17.3828 94.0918-18.2129C92.4316-19.1895 89.1602-19.2383 86.084-19.3848C79.4922-19.5312 73.9258-22.2168 72.0215-27.2461L89.3555-27.2461C91.1133-27.2461 92.0898-28.3203 92.0898-29.8828C92.0898-31.543 91.1133-32.5684 89.3555-32.5684L70.4102-32.5684C70.3613-33.0078 70.2637-34.1309 70.2637-35.2539C70.2637-36.1328 70.2637-36.9629 70.3613-37.5L89.3555-37.5C91.1133-37.5 92.0898-38.5742 92.0898-40.1855C92.0898-41.7969 91.1133-42.8223 89.3555-42.8223L71.8262-42.8223C73.6816-48.0957 79.4922-50.8301 86.2793-51.0742C89.1113-51.1719 92.5781-51.123 94.2383-52.2461C95.7031-52.9785 96.6797-54.4434 96.6797-56.7383C96.6797-58.5449 95.9961-60.2539 94.3848-61.4746C92.8223-62.6953 89.9414-63.4277 86.0352-63.4277C70.1172-63.4277 59.4238-55.8105 56.4941-42.8223L52.0996-42.8223C50.3906-42.8223 49.3652-41.7969 49.3652-40.1855C49.3652-38.5742 50.3906-37.5 52.0996-37.5L55.8105-37.5C55.7617-36.9141 55.7617-36.1328 55.7617-35.1562C55.7617-34.2285 55.8105-33.252 55.8105-32.5684L52.0996-32.5684C50.3906-32.5684 49.3652-31.543 49.3652-29.8828C49.3652-28.3203 50.3906-27.2461 52.0996-27.2461L56.6406-27.2461C59.7168-14.5508 70.4102-7.08008 85.9863-7.08008Z"/>
  </g>
  <g id="Heavy-L" transform="matrix(1 0 0 1 2559.93 1556)">
   <path d="M38.8184 25.4883L114.697 25.4883C129.346 25.4883 137.451 17.4316 137.451 2.88086L137.451-73.2422C137.451-87.793 129.346-95.8496 114.697-95.8496L38.8184-95.8496C24.2188-95.8496 16.0645-87.793 16.0645-73.2422L16.0645 2.88086C16.0645 17.4316 24.2188 25.4883 38.8184 25.4883ZM40.918 8.00781C36.084 8.00781 33.5938 5.71289 33.5938 0.585938L33.5938-70.9473C33.5938-76.0742 36.084-78.3691 40.918-78.3691L112.549-78.3691C117.383-78.3691 119.922-76.0742 119.922-70.9473L119.922 0.585938C119.922 5.71289 117.383 8.00781 112.549 8.00781ZM85.0098-6.73828C88.7695-6.73828 91.3086-7.37305 92.9199-8.44727C94.5801-9.47266 95.3613-10.9375 95.3613-12.7441C95.3613-14.8926 94.2383-16.2598 92.5293-16.8945C90.918-17.627 88.0371-17.627 85.0586-17.6758C77.832-17.8223 71.7285-20.9961 69.6289-27.1484L87.5-27.1484C89.209-27.1484 90.2344-28.2715 90.2344-29.834C90.2344-31.4941 89.209-32.5195 87.5-32.5195L68.1641-32.5195C68.0664-33.0566 68.0176-34.1797 68.0176-35.2539C68.0176-36.1816 68.0176-37.0117 68.1152-37.6465L87.5-37.6465C89.209-37.6465 90.2344-38.7207 90.2344-40.332C90.2344-41.9434 89.209-43.0176 87.5-43.0176L69.4824-43.0176C71.582-49.3164 77.832-52.5391 85.2539-52.7344C87.9883-52.832 91.0645-52.6855 92.627-53.5645C94.1895-54.1504 95.2637-55.5176 95.2637-57.7148C95.2637-59.4238 94.6289-60.9863 92.8711-62.1094C91.3574-63.1836 88.6719-63.7695 85.0586-63.7695C69.8242-63.7695 58.9844-56.25 56.0059-43.0176L50.9277-43.0176C49.2188-43.0176 48.1445-41.9434 48.1445-40.332C48.1445-38.7207 49.2188-37.6465 50.9277-37.6465L55.2734-37.6465C55.2246-36.9629 55.2246-36.1816 55.2246-35.1562C55.2246-34.2285 55.2734-33.252 55.2734-32.5195L50.9277-32.5195C49.2188-32.5195 48.1445-31.4941 48.1445-29.834C48.1445-28.2715 49.2188-27.1484 50.9277-27.1484L56.1035-27.1484C59.2285-14.1113 70.0684-6.73828 85.0098-6.73828Z"/>
  </g>
  <g id="Bold-L" transform="matrix(1 0 0 1 2264.37 1556)">
   <path d="M37.5 24.3652L113.721 24.3652C127.637 24.3652 135.156 16.8945 135.156 3.07617L135.156-73.3887C135.156-87.207 127.637-94.7266 113.721-94.7266L37.5-94.7266C23.6328-94.7266 16.0645-87.2559 16.0645-73.3887L16.0645 3.07617C16.0645 16.8945 23.6328 24.3652 37.5 24.3652ZM38.9648 9.91211C33.4473 9.91211 30.5176 7.17773 30.5176 1.41602L30.5176-71.7285C30.5176-77.5391 33.4473-80.2734 38.9648-80.2734L112.256-80.2734C117.725-80.2734 120.703-77.5391 120.703-71.7285L120.703 1.41602C120.703 7.17773 117.725 9.91211 112.256 9.91211ZM83.9844-6.34766C87.3535-6.34766 89.6973-6.83594 91.2598-7.76367C92.9199-8.64258 93.75-9.96094 93.75-11.6211C93.75-13.7207 92.5293-14.9902 90.7715-15.4297C89.2578-15.918 86.7676-15.7715 83.9844-15.8203C76.0254-15.918 69.2871-19.6777 66.9434-27.0508L85.4004-27.0508C87.1094-27.0508 88.1836-28.2227 88.1836-29.7852C88.1836-31.4453 87.1094-32.5195 85.4004-32.5195L65.625-32.5195C65.5273-33.1543 65.5273-34.2285 65.5273-35.2539C65.5273-36.1816 65.5273-37.0605 65.5762-37.7441L85.4004-37.7441C87.1094-37.7441 88.1836-38.916 88.1836-40.4785C88.1836-42.1387 87.1094-43.2129 85.4004-43.2129L66.8945-43.2129C69.1406-50.6836 76.0254-54.4922 84.082-54.5898C86.7188-54.6387 89.3555-54.4434 90.8203-55.0293C92.5293-55.4199 93.7012-56.6895 93.7012-58.7891C93.7012-60.4004 93.0176-61.8164 91.2109-62.793C89.6973-63.6719 87.3047-64.1113 83.9844-64.1113C69.5801-64.1113 58.4961-56.7871 55.4688-43.2129L49.5605-43.2129C47.9004-43.2129 46.8262-42.1387 46.8262-40.4785C46.8262-38.916 47.9004-37.7441 49.5605-37.7441L54.6875-37.7441C54.6387-37.0117 54.6387-36.2305 54.6387-35.2051C54.6387-34.1797 54.6875-33.2031 54.7363-32.5195L49.5605-32.5195C47.9004-32.5195 46.8262-31.4453 46.8262-29.7852C46.8262-28.2227 47.9004-27.0508 49.5605-27.0508L55.5176-27.0508C58.6914-13.623 69.6777-6.34766 83.9844-6.34766Z"/>
  </g>
  <g id="Semibold-L" transform="matrix(1 0 0 1 1968.44 1556)">
   <path d="M36.6211 23.584L113.037 23.584C126.514 23.584 133.594 16.5039 133.594 3.17383L133.594-73.5352C133.594-86.8164 126.514-93.9453 113.037-93.9453L36.6211-93.9453C23.1934-93.9453 16.0645-86.8652 16.0645-73.5352L16.0645 3.17383C16.0645 16.5527 23.1934 23.584 36.6211 23.584ZM37.5977 11.2793C31.6406 11.2793 28.418 8.20312 28.418 1.95312L28.418-72.3145C28.418-78.5156 31.6406-81.5918 37.5977-81.5918L112.061-81.5918C117.969-81.5918 121.24-78.5156 121.24-72.3145L121.24 1.95312C121.24 8.20312 117.969 11.2793 112.061 11.2793ZM83.252-6.10352C86.3281-6.10352 88.623-6.49414 90.1367-7.27539C91.7969-8.05664 92.627-9.27734 92.627-10.8887C92.627-12.8906 91.3574-14.1113 89.5508-14.4043C88.0859-14.6973 85.8398-14.502 83.2031-14.5508C74.707-14.5996 67.5781-18.75 65.0879-27.002L83.9844-27.002C85.6445-27.002 86.7188-28.1738 86.7188-29.7363C86.7188-31.3965 85.6445-32.4707 83.9844-32.4707L63.8672-32.4707C63.8184-33.2031 63.7695-34.2285 63.7695-35.2051C63.7695-36.1816 63.7695-37.0605 63.8672-37.8418L83.9844-37.8418C85.6445-37.8418 86.7188-39.0137 86.7188-40.5762C86.7188-42.2363 85.6445-43.3594 83.9844-43.3594L65.0879-43.3594C67.5293-51.6113 74.7559-55.8105 83.3008-55.9082C85.8887-55.9082 88.1836-55.6641 89.5508-56.0059C91.3574-56.25 92.5781-57.5195 92.5781-59.5215C92.5781-61.084 91.9434-62.4023 90.0391-63.2812C88.5742-64.0137 86.3281-64.4043 83.252-64.4043C69.3848-64.4043 58.1543-57.1289 55.0781-43.3594L48.6328-43.3594C47.0215-43.3594 45.8984-42.2363 45.8984-40.5762C45.8984-39.0137 47.0215-37.8418 48.6328-37.8418L54.2969-37.8418C54.248-37.0605 54.248-36.2305 54.248-35.2539C54.248-34.1797 54.2969-33.1543 54.3457-32.4707L48.6328-32.4707C47.0215-32.4707 45.8984-31.3965 45.8984-29.7363C45.8984-28.1738 47.0215-27.002 48.6328-27.002L55.127-27.002C58.3008-13.2812 69.4336-6.10352 83.252-6.10352Z"/>
  </g>
  <g id="Medium-L" transform="matrix(1 0 0 1 1672.31 1556)">
   <path d="M35.9375 22.998L112.5 22.998C125.635 22.998 132.422 16.2109 132.422 3.27148L132.422-73.6328C132.422-86.5234 125.635-93.3105 112.5-93.3105L35.9375-93.3105C22.9004-93.3105 16.0645-86.5723 16.0645-73.6328L16.0645 3.27148C16.0645 16.2598 22.9004 22.998 35.9375 22.998ZM36.5723 12.2559C30.2246 12.2559 26.8066 8.98438 26.8066 2.39258L26.8066-72.7051C26.8066-79.2969 30.2246-82.6172 36.5723-82.6172L111.865-82.6172C118.115-82.6172 121.68-79.2969 121.68-72.7051L121.68 2.39258C121.68 8.98438 118.115 12.2559 111.865 12.2559ZM82.666-5.9082C85.5957-5.9082 87.7441-6.25 89.2578-6.88477C90.9668-7.61719 91.7969-8.78906 91.7969-10.3027C91.7969-12.3047 90.4785-13.4766 88.623-13.623C87.207-13.8184 85.2051-13.5254 82.6172-13.5742C73.7793-13.5742 66.2598-18.0176 63.6719-26.9531L82.9102-26.9531C84.5215-26.9531 85.6445-28.125 85.6445-29.6875C85.6445-31.3477 84.5215-32.4707 82.9102-32.4707L62.5488-32.4707C62.5-33.252 62.4512-34.2285 62.4512-35.2051C62.4512-36.1816 62.4512-37.0605 62.5-37.8906L82.9102-37.8906C84.5215-37.8906 85.6445-39.1113 85.6445-40.6738C85.6445-42.334 84.5215-43.457 82.9102-43.457L63.7207-43.457C66.2598-52.3438 73.7793-56.8359 82.666-56.8848C85.2051-56.8848 87.2559-56.5918 88.623-56.7871C90.4785-56.9336 91.748-58.1055 91.748-60.1074C91.748-61.5723 91.1133-62.8418 89.209-63.623C87.7441-64.3066 85.5957-64.5996 82.7148-64.5996C69.2383-64.5996 57.9102-57.4219 54.7852-43.457L47.9492-43.457C46.3379-43.457 45.166-42.334 45.166-40.6738C45.166-39.1113 46.3379-37.8906 47.9492-37.8906L54.0039-37.8906C53.9551-37.0605 53.9551-36.2793 53.9551-35.2539C53.9551-34.1797 54.0039-33.1543 54.0527-32.4707L47.9492-32.4707C46.3379-32.4707 45.166-31.3477 45.166-29.6875C45.166-28.125 46.3379-26.9531 47.9492-26.9531L54.7852-26.9531C58.0078-13.0371 69.2383-5.9082 82.666-5.9082Z"/>
  </g>
  <g id="Regular-L" transform="matrix(1 0 0 1 1376.38 1556)">
   <path d="M35.0586 22.2168L111.816 22.2168C124.463 22.2168 130.859 15.8691 130.859 3.41797L130.859-73.7305C130.859-86.1816 124.463-92.5293 111.816-92.5293L35.0586-92.5293C22.4609-92.5293 16.0645-86.2305 16.0645-73.7305L16.0645 3.41797C16.0645 15.918 22.4609 22.2168 35.0586 22.2168ZM35.2539 13.5742C28.418 13.5742 24.707 9.96094 24.707 2.97852L24.707-73.291C24.707-80.2734 28.418-83.8867 35.2539-83.8867L111.67-83.8867C118.359-83.8867 122.217-80.2734 122.217-73.291L122.217 2.97852C122.217 9.96094 118.359 13.5742 111.67 13.5742ZM81.9824-5.61523C84.6191-5.61523 86.6699-5.85938 88.1348-6.44531C89.8438-7.03125 90.6738-8.10547 90.6738-9.57031C90.6738-11.4746 89.3066-12.5977 87.4023-12.5977C86.0352-12.5977 84.3262-12.2559 81.8848-12.2559C72.5098-12.2559 64.5996-17.0898 61.8652-26.8555L81.4941-26.8555C83.1055-26.8555 84.2285-28.125 84.2285-29.6387C84.2285-31.2988 83.1055-32.4707 81.4941-32.4707L60.8398-32.4707C60.7422-33.3496 60.7422-34.2773 60.7422-35.2051C60.7422-36.1816 60.7422-37.1094 60.791-37.9883L81.4941-37.9883C83.1055-37.9883 84.2285-39.209 84.2285-40.7715C84.2285-42.4316 83.1055-43.5547 81.4941-43.5547L61.9141-43.5547C64.5996-53.2715 72.5586-58.1543 81.8848-58.1543C84.375-58.1543 86.084-57.8125 87.4023-57.8125C89.3066-57.8125 90.6738-58.9355 90.6738-60.8398C90.6738-62.2559 90.0391-63.4277 88.0371-64.1113C86.6211-64.6484 84.668-64.8438 81.9824-64.8438C69.043-64.8438 57.5684-57.7637 54.3945-43.5547L47.0215-43.5547C45.459-43.5547 44.2383-42.4316 44.2383-40.7715C44.2383-39.209 45.459-37.9883 47.0215-37.9883L53.6133-37.9883C53.5156-37.1094 53.5156-36.2793 53.5156-35.2539C53.5156-34.1797 53.6133-33.1543 53.6621-32.4707L47.0215-32.4707C45.459-32.4707 44.2383-31.2988 44.2383-29.6387C44.2383-28.125 45.459-26.8555 47.0215-26.8555L54.3945-26.8555C57.6172-12.6953 68.9941-5.61523 81.9824-5.61523Z"/>
  </g>
  <g id="Light-L" transform="matrix(1 0 0 1 1080.5 1556)">
   <path d="M34.0332 21.4355L111.23 21.4355C123.096 21.4355 129.199 15.2344 129.199 3.56445L129.199-73.8281C129.199-85.5469 123.096-91.6992 111.23-91.6992L34.0332-91.6992C22.168-91.6992 16.0645-85.6445 16.0645-73.8281L16.0645 3.56445C16.0645 15.3809 22.168 21.4355 34.0332 21.4355ZM34.1797 14.7949C26.709 14.7949 22.7051 10.8398 22.7051 3.22266L22.7051-73.4863C22.7051-81.1523 26.709-85.0586 34.1797-85.0586L111.035-85.0586C118.359-85.0586 122.559-81.1523 122.559-73.4863L122.559 3.22266C122.559 10.8398 118.359 14.7949 111.035 14.7949ZM80.7129-6.5918C82.8125-6.5918 84.6191-6.78711 85.9375-7.17773C87.5-7.61719 88.3301-8.49609 88.3301-9.76562C88.3301-11.377 87.207-12.2559 85.6445-12.2559C84.375-12.2559 82.8613-11.9629 80.6641-11.9629C71.0449-11.9629 62.6953-17.0898 60.0586-27.4902L79.7363-27.4902C81.1035-27.4902 82.0801-28.5156 82.0801-29.8828C82.0801-31.25 81.1035-32.2266 79.7363-32.2266L59.2285-32.2266C59.1309-33.2031 59.082-34.1797 59.082-35.2539C59.082-36.1816 59.082-37.1582 59.1797-38.0371L79.7363-38.0371C81.1035-38.0371 82.0801-39.0137 82.0801-40.3809C82.0801-41.748 81.1035-42.7246 79.7363-42.7246L60.0586-42.7246C62.5977-53.2715 70.9961-58.4961 80.6641-58.4961C82.9102-58.4961 84.4727-58.2031 85.6445-58.2031C87.207-58.2031 88.3301-59.082 88.3301-60.6934C88.3301-61.9141 87.6465-62.8418 85.8887-63.3301C84.5703-63.7207 82.8613-63.8672 80.7129-63.8672C68.1641-63.8672 57.0312-56.8359 54.1504-42.7246L46.3379-42.7246C45.0195-42.7246 44.043-41.748 44.043-40.3809C44.043-39.0137 45.0195-38.0371 46.3379-38.0371L53.5156-38.0371C53.418-37.1582 53.418-36.2793 53.418-35.2539C53.418-34.1309 53.5156-33.0566 53.5645-32.2266L46.3379-32.2266C45.0195-32.2266 44.043-31.25 44.043-29.8828C44.043-28.5156 45.0195-27.4902 46.3379-27.4902L54.1504-27.4902C57.1289-13.5742 68.2129-6.5918 80.7129-6.5918Z"/>
  </g>
  <g id="Thin-L" transform="matrix(1 0 0 1 784.889 1556)">
   <path d="M32.666 20.3613L110.352 20.3613C121.24 20.3613 127.002 14.4531 127.002 3.75977L127.002-73.9746C127.002-84.7168 121.24-90.5762 110.352-90.5762L32.666-90.5762C21.7773-90.5762 16.0645-84.8633 16.0645-73.9746L16.0645 3.75977C16.0645 14.6484 21.7773 20.3613 32.666 20.3613ZM32.8125 16.4062C24.4141 16.4062 19.9707 12.0117 19.9707 3.56445L19.9707-73.7793C19.9707-82.2754 24.4141-86.6699 32.8125-86.6699L110.205-86.6699C118.359-86.6699 123.047-82.2754 123.047-73.7793L123.047 3.56445C123.047 12.0117 118.359 16.4062 110.205 16.4062ZM79.1016-7.91016C80.4688-7.91016 81.8848-7.95898 83.0566-8.1543C84.375-8.34961 85.2051-8.98438 85.2051-10.0098C85.2051-11.1816 84.4727-11.7676 83.3496-11.7676C82.1289-11.7676 80.9082-11.5234 79.0039-11.5234C69.0918-11.5234 60.1562-17.041 57.666-28.3691L77.3926-28.3691C78.4668-28.3691 79.1504-29.1016 79.1504-30.127C79.1504-31.2012 78.4668-31.8848 77.3926-31.8848L57.0801-31.8848C57.0312-33.0078 56.9336-34.082 56.9336-35.2539C56.9336-36.2305 56.9336-37.207 57.0312-38.0859L77.3926-38.0859C78.4668-38.0859 79.1504-38.7695 79.1504-39.8438C79.1504-40.8691 78.4668-41.6016 77.3926-41.6016L57.5684-41.6016C59.9121-53.2715 68.9941-58.9355 79.0039-58.9355C81.0059-58.9355 82.2754-58.6914 83.3496-58.6914C84.4727-58.6914 85.2051-59.2773 85.2051-60.4492C85.2051-61.4258 84.4727-62.1094 83.0078-62.3047C81.8848-62.5488 80.4688-62.5488 79.1016-62.5488C67.041-62.5488 56.25-55.6152 53.8086-41.6016L45.5078-41.6016C44.4824-41.6016 43.75-40.8691 43.75-39.8438C43.75-38.7695 44.4824-38.0859 45.5078-38.0859L53.3691-38.0859C53.2715-37.207 53.2715-36.2305 53.2715-35.2539C53.2715-34.082 53.3691-32.959 53.418-31.8848L45.5078-31.8848C44.4824-31.8848 43.75-31.2012 43.75-30.127C43.75-29.1016 44.4824-28.3691 45.5078-28.3691L53.8574-28.3691C56.543-14.6973 67.1875-7.91016 79.1016-7.91016Z"/>
  </g>
  <g id="Ultralight-L" transform="matrix(1 0 0 1 488.739 1556)">
   <path d="M31.9824 19.7754L109.961 19.7754C120.312 19.7754 125.879 14.0625 125.879 3.85742L125.879-74.0723C125.879-84.2773 120.312-89.9902 109.961-89.9902L31.9824-89.9902C21.582-89.9902 16.0645-84.4727 16.0645-74.0723L16.0645 3.85742C16.0645 14.2578 21.582 19.7754 31.9824 19.7754ZM32.1289 17.2363C23.1934 17.2363 18.6035 12.6465 18.6035 3.75977L18.6035-73.9258C18.6035-82.8125 23.1934-87.4512 32.1289-87.4512L109.766-87.4512C118.359-87.4512 123.291-82.8125 123.291-73.9258L123.291 3.75977C123.291 12.6465 118.359 17.2363 109.766 17.2363ZM78.2227-8.54492C79.2969-8.54492 80.4688-8.54492 81.543-8.64258C82.8125-8.74023 83.5938-9.27734 83.5938-10.1562C83.5938-11.084 83.0566-11.5234 82.1777-11.5234C81.0059-11.5234 79.9316-11.2793 78.1738-11.2793C68.1152-11.2793 58.8867-16.9922 56.4453-28.8086L76.2207-28.8086C77.0996-28.8086 77.6855-29.3945 77.6855-30.2734C77.6855-31.1523 77.0996-31.7383 76.2207-31.7383L56.0059-31.7383C55.9082-32.9102 55.8594-34.0332 55.8594-35.2539C55.8594-36.2305 55.8594-37.207 55.9082-38.0859L76.2207-38.0859C77.0996-38.0859 77.6855-38.6719 77.6855-39.5508C77.6855-40.4297 77.0996-41.0156 76.2207-41.0156L56.3477-41.0156C58.5449-53.2715 67.9199-59.1797 78.1738-59.1797C80.0293-59.1797 81.1523-58.9355 82.1777-58.9355C83.0566-58.9355 83.5938-59.375 83.5938-60.3027C83.5938-61.2305 82.8613-61.7188 81.543-61.8164C80.4688-61.9141 79.248-61.9141 78.2227-61.9141C66.4551-61.9141 55.8594-54.9805 53.6133-41.0156L45.0684-41.0156C44.1895-41.0156 43.6035-40.4297 43.6035-39.5508C43.6035-38.6719 44.1895-38.0859 45.0684-38.0859L53.2715-38.0859C53.2227-37.207 53.2227-36.2305 53.2227-35.2539C53.2227-34.0332 53.2715-32.9102 53.3691-31.7383L45.0684-31.7383C44.1895-31.7383 43.6035-31.1523 43.6035-30.2734C43.6035-29.3945 44.1895-28.8086 45.0684-28.8086L53.7109-28.8086C56.2012-15.2832 66.6504-8.54492 78.2227-8.54492Z"/>
  </g>
  <g id="Black-M" transform="matrix(1 0 0 1 2872.19 1126)">
   <path d="M31.9824 13.5742L90.4297 13.5742C102.686 13.5742 109.961 6.29883 109.961-5.95703L109.961-64.4043C109.961-76.6602 102.686-83.9355 90.4297-83.9355L31.9824-83.9355C19.7266-83.9355 12.4512-76.6602 12.4512-64.4043L12.4512-5.95703C12.4512 6.29883 19.7266 13.5742 31.9824 13.5742ZM34.9121-4.73633C32.0801-4.73633 30.7617-5.81055 30.7617-8.88672L30.7617-61.4746C30.7617-64.5508 32.0801-65.6738 34.9121-65.6738L87.5-65.6738C90.332-65.6738 91.6504-64.5508 91.6504-61.4746L91.6504-8.88672C91.6504-5.81055 90.332-4.73633 87.5-4.73633ZM67.2363-14.4043C70.6055-14.4043 72.6562-15.0879 73.9746-16.1621C75.1465-17.1875 75.7324-18.5059 75.7324-19.9707C75.7324-21.6797 75.1953-22.7051 74.1211-23.6328C72.7539-24.707 69.873-24.9023 67.3828-25C63.0859-25.1953 59.2285-26.709 58.1055-29.4922L70.8008-29.4922C72.1191-29.4922 72.7051-30.1758 72.7051-31.2988C72.7051-32.373 72.1191-33.0566 70.8008-33.0566L56.7871-33.0566C56.6895-33.3008 56.6406-34.3262 56.6406-35.2539C56.6406-35.9375 56.6406-36.5723 56.6895-36.8652L70.8008-36.8652C72.1191-36.8652 72.7051-37.5488 72.7051-38.6719C72.7051-39.7461 72.1191-40.4297 70.8008-40.4297L57.8125-40.4297C58.9355-43.5547 62.9883-45.166 67.627-45.459C69.8242-45.5566 72.9492-45.6543 74.2676-46.8262C75.0977-47.6562 75.5859-48.7793 75.5859-50.4883C75.5859-51.9043 75.0488-53.2715 73.9746-54.2969C72.8027-55.4199 70.4102-56.1035 67.2852-56.1035C54.1992-56.1035 46.3379-50.0488 44.2871-40.4297L41.6992-40.4297C40.3809-40.4297 39.7461-39.7461 39.7461-38.6719C39.7461-37.5488 40.3809-36.8652 41.6992-36.8652L43.8477-36.8652C43.8477-36.5234 43.8477-35.8887 43.8477-35.1562C43.8477-34.4727 43.8477-33.6914 43.8477-33.0566L41.6992-33.0566C40.3809-33.0566 39.7461-32.373 39.7461-31.2988C39.7461-30.1758 40.3809-29.4922 41.6992-29.4922L44.4824-29.4922C46.7285-20.2637 54.5898-14.4043 67.2363-14.4043Z"/>
  </g>
  <g id="Heavy-M" transform="matrix(1 0 0 1 2576.39 1126)">
   <path d="M31.0059 12.6465L89.6484 12.6465C101.416 12.6465 108.154 5.9082 108.154-5.81055L108.154-64.5508C108.154-76.2695 101.416-83.0566 89.6484-83.0566L31.0059-83.0566C19.2383-83.0566 12.4512-76.3184 12.4512-64.5508L12.4512-5.81055C12.4512 5.9082 19.2383 12.6465 31.0059 12.6465ZM33.252-3.17383C29.9316-3.17383 28.2715-4.63867 28.2715-8.1543L28.2715-62.207C28.2715-65.7715 29.9316-67.2363 33.252-67.2363L87.3535-67.2363C90.6738-67.2363 92.334-65.7715 92.334-62.207L92.334-8.1543C92.334-4.63867 90.6738-3.17383 87.3535-3.17383ZM66.5039-13.7695C69.6777-13.7695 71.6309-14.3555 72.9492-15.2832C74.1699-16.2109 74.7559-17.4316 74.7559-18.8477C74.7559-20.5566 74.0723-21.582 72.8516-22.2656C71.5332-23.0957 68.9941-23.1934 66.6016-23.291C61.6211-23.4375 57.3242-25.4395 55.957-29.248L69.2383-29.248C70.5566-29.248 71.2402-30.0293 71.2402-31.1523C71.2402-32.373 70.5566-33.1055 69.2383-33.1055L54.7363-33.1055C54.6387-33.4473 54.5898-34.375 54.5898-35.2539C54.5898-35.9375 54.5898-36.5723 54.6387-36.9629L69.2383-36.9629C70.5566-36.9629 71.2402-37.7441 71.2402-38.916C71.2402-40.0879 70.5566-40.8691 69.2383-40.8691L55.7617-40.8691C57.1289-44.873 61.6211-46.9727 66.7969-47.168C68.9453-47.2656 71.7285-47.2656 72.9492-48.1934C74.0234-48.8281 74.6582-49.9023 74.6582-51.6113C74.6582-52.9785 74.1211-54.248 72.9004-55.1758C71.7285-56.1523 69.5312-56.7383 66.5527-56.7383C54.1504-56.7383 45.9961-50.8301 43.8477-40.8691L40.5273-40.8691C39.209-40.8691 38.5254-40.0879 38.5254-38.916C38.5254-37.7441 39.209-36.9629 40.5273-36.9629L43.3105-36.9629C43.3105-36.5234 43.3105-35.9375 43.3105-35.1562C43.3105-34.4238 43.3105-33.6914 43.3594-33.1055L40.5273-33.1055C39.209-33.1055 38.5254-32.373 38.5254-31.1523C38.5254-30.0293 39.209-29.248 40.5273-29.248L43.9453-29.248C46.2891-19.5801 54.4434-13.7695 66.5039-13.7695Z"/>
  </g>
  <g id="Bold-M" transform="matrix(1 0 0 1 2280.68 1126)">
   <path d="M29.8828 11.6699L88.7207 11.6699C99.9512 11.6699 106.152 5.46875 106.152-5.66406L106.152-64.6973C106.152-75.8789 99.9512-82.0312 88.7207-82.0312L29.8828-82.0312C18.6523-82.0312 12.4512-75.8789 12.4512-64.6973L12.4512-5.66406C12.4512 5.51758 18.6523 11.6699 29.8828 11.6699ZM31.3965-1.41602C27.5391-1.41602 25.5371-3.27148 25.5371-7.32422L25.5371-63.0371C25.5371-67.1387 27.5391-68.9453 31.3965-68.9453L87.207-68.9453C91.0156-68.9453 93.0664-67.1387 93.0664-63.0371L93.0664-7.32422C93.0664-3.27148 91.0156-1.41602 87.207-1.41602ZM65.7227-13.0859C68.6035-13.0859 70.5078-13.5254 71.7773-14.3066C73.0469-15.1367 73.6816-16.2109 73.6816-17.5781C73.6816-19.2871 72.8027-20.3125 71.4355-20.752C70.2148-21.2891 68.0176-21.2402 65.7715-21.3379C60.0586-21.4355 55.1758-23.9746 53.5156-28.9551L67.4805-28.9551C68.7988-28.9551 69.6289-29.834 69.6289-31.0547C69.6289-32.3242 68.7988-33.1543 67.4805-33.1543L52.3926-33.1543C52.3438-33.5938 52.2949-34.4238 52.2949-35.2539C52.2949-35.9375 52.2949-36.6211 52.3926-37.1094L67.4805-37.1094C68.7988-37.1094 69.6289-37.9883 69.6289-39.209C69.6289-40.4785 68.7988-41.3086 67.4805-41.3086L53.418-41.3086C55.0781-46.3867 60.0586-48.9746 65.8691-49.1211C68.0176-49.1699 70.3125-49.0723 71.4844-49.6582C72.7539-50.0977 73.584-51.1719 73.584-52.832C73.584-54.1504 73.0957-55.3223 71.7285-56.2012C70.5566-56.9824 68.5059-57.4219 65.7715-57.4219C54.1016-57.4219 45.6543-51.6602 43.3105-41.3086L39.2578-41.3086C37.9395-41.3086 37.1094-40.4785 37.1094-39.209C37.1094-37.9883 37.9395-37.1094 39.2578-37.1094L42.7246-37.1094C42.7246-36.5723 42.7246-35.9863 42.7246-35.2051C42.7246-34.4238 42.7246-33.6914 42.7246-33.1543L39.2578-33.1543C37.9395-33.1543 37.1094-32.3242 37.1094-31.0547C37.1094-29.834 37.9395-28.9551 39.2578-28.9551L43.3594-28.9551C45.8008-18.75 54.248-13.0859 65.7227-13.0859Z"/>
  </g>
  <g id="Semibold-M" transform="matrix(1 0 0 1 1984.65 1126)">
   <path d="M29.1016 10.9863L88.0859 10.9863C98.9746 10.9863 104.785 5.17578 104.785-5.56641L104.785-64.8438C104.785-75.5859 98.9746-81.3477 88.0859-81.3477L29.1016-81.3477C18.2617-81.3477 12.4512-75.5859 12.4512-64.8438L12.4512-5.56641C12.4512 5.22461 18.2617 10.9863 29.1016 10.9863ZM30.127-0.195312C25.8789-0.195312 23.6328-2.34375 23.6328-6.78711L23.6328-63.623C23.6328-68.0664 25.8789-70.166 30.127-70.166L87.1094-70.166C91.2598-70.166 93.6035-68.0664 93.6035-63.623L93.6035-6.78711C93.6035-2.34375 91.2598-0.195312 87.1094-0.195312ZM65.1855-12.5977C67.8711-12.5977 69.7266-12.9883 70.9473-13.6719C72.3145-14.3555 72.9492-15.4297 72.9492-16.748C72.9492-18.4082 71.9238-19.4336 70.459-19.7266C69.2871-20.0684 67.334-19.9219 65.1855-19.9707C58.9355-20.0195 53.7109-22.9492 51.8555-28.7598L66.2598-28.7598C67.627-28.7598 68.5059-29.6875 68.5059-30.957C68.5059-32.2754 67.627-33.1543 66.2598-33.1543L50.8301-33.1543C50.7812-33.6914 50.7324-34.4727 50.7324-35.2051C50.7324-35.9375 50.7324-36.6211 50.7812-37.207L66.2598-37.207C67.627-37.207 68.5059-38.1348 68.5059-39.4043C68.5059-40.7227 67.627-41.6504 66.2598-41.6504L51.8555-41.6504C53.6621-47.4121 58.9844-50.3418 65.2832-50.4395C67.334-50.4883 69.3359-50.293 70.5078-50.6836C71.875-50.9766 72.9004-52.002 72.9004-53.7109C72.9004-54.9805 72.4121-56.1035 70.8984-56.8848C69.7266-57.5195 67.8223-57.9102 65.1855-57.9102C54.0527-57.9102 45.4102-52.1973 42.9688-41.6504L38.3301-41.6504C37.0117-41.6504 36.1328-40.7227 36.1328-39.4043C36.1328-38.1348 37.0117-37.207 38.3301-37.207L42.334-37.207C42.2852-36.6211 42.2852-35.9863 42.2852-35.2051C42.2852-34.4238 42.334-33.6426 42.334-33.1543L38.3301-33.1543C37.0117-33.1543 36.1328-32.2754 36.1328-30.957C36.1328-29.6875 37.0117-28.7598 38.3301-28.7598L42.9688-28.7598C45.5078-18.2129 54.1016-12.5977 65.1855-12.5977Z"/>
  </g>
  <g id="Medium-M" transform="matrix(1 0 0 1 1688.47 1126)">
   <path d="M28.5156 10.4492L87.6465 10.4492C98.2422 10.4492 103.711 4.98047 103.711-5.46875L103.711-64.8926C103.711-75.3418 98.2422-80.8105 87.6465-80.8105L28.5156-80.8105C17.9688-80.8105 12.4512-75.3906 12.4512-64.8926L12.4512-5.46875C12.4512 4.98047 17.9688 10.4492 28.5156 10.4492ZM29.1504 0.732422C24.6582 0.732422 22.168-1.61133 22.168-6.34766L22.168-64.0137C22.168-68.75 24.6582-71.0938 29.1504-71.0938L87.0117-71.0938C91.4551-71.0938 93.9941-68.75 93.9941-64.0137L93.9941-6.34766C93.9941-1.61133 91.4551 0.732422 87.0117 0.732422ZM64.7461-12.207C67.2852-12.207 69.1406-12.5488 70.3613-13.1348C71.7285-13.8184 72.3633-14.7949 72.3633-16.0645C72.3633-17.7734 71.2402-18.7988 69.6777-18.9453C68.5547-19.1406 66.8457-18.9453 64.7461-18.9453C58.1055-18.9941 52.5879-22.2168 50.6348-28.5645L65.332-28.5645C66.6992-28.5645 67.627-29.5898 67.627-30.9082C67.627-32.2754 66.6992-33.2031 65.332-33.2031L49.6094-33.2031C49.5605-33.7402 49.5605-34.4727 49.5605-35.2051C49.5605-35.9375 49.5605-36.6211 49.6094-37.2559L65.332-37.2559C66.6992-37.2559 67.627-38.2812 67.627-39.5508C67.627-40.918 66.6992-41.8457 65.332-41.8457L50.6348-41.8457C52.6367-48.1934 58.1543-51.416 64.7949-51.4648C66.8457-51.4648 68.6035-51.2695 69.7266-51.4648C71.2402-51.6113 72.3145-52.6367 72.3145-54.3457C72.3145-55.5664 71.875-56.6406 70.2637-57.373C69.0918-57.959 67.2852-58.252 64.7949-58.252C54.0039-58.252 45.2148-52.6367 42.6758-41.8457L37.6953-41.8457C36.3281-41.8457 35.4004-40.918 35.4004-39.5508C35.4004-38.2812 36.3281-37.2559 37.6953-37.2559L42.041-37.2559C41.9922-36.6211 41.9922-36.0352 41.9922-35.2539C41.9922-34.4238 42.041-33.6426 42.041-33.2031L37.6953-33.2031C36.3281-33.2031 35.4004-32.2754 35.4004-30.9082C35.4004-29.5898 36.3281-28.5645 37.6953-28.5645L42.6758-28.5645C45.2148-17.8223 54.0527-12.207 64.7461-12.207Z"/>
  </g>
  <g id="Regular-M" transform="matrix(1 0 0 1 1392.45 1126)">
   <path d="M27.7832 9.76562L87.0117 9.76562C97.2656 9.76562 102.344 4.6875 102.344-5.37109L102.344-64.9902C102.344-75.0488 97.2656-80.127 87.0117-80.127L27.7832-80.127C17.5781-80.127 12.4512-75.0977 12.4512-64.9902L12.4512-5.37109C12.4512 4.73633 17.5781 9.76562 27.7832 9.76562ZM27.8809 1.9043C22.998 1.9043 20.3125-0.683594 20.3125-5.76172L20.3125-64.5996C20.3125-69.6777 22.998-72.2656 27.8809-72.2656L86.9141-72.2656C91.748-72.2656 94.4824-69.6777 94.4824-64.5996L94.4824-5.76172C94.4824-0.683594 91.748 1.9043 86.9141 1.9043ZM64.209-11.7188C66.5527-11.7188 68.3594-11.9629 69.5801-12.5C70.9473-13.0371 71.6309-13.9648 71.6309-15.2344C71.6309-16.8945 70.4102-17.9199 68.7012-17.9199C67.627-17.9199 66.1621-17.627 64.1602-17.627C57.0312-17.627 51.123-21.1914 48.9746-28.3691L64.1602-28.3691C65.5273-28.3691 66.5039-29.4434 66.5039-30.8105C66.5039-32.2266 65.5273-33.2031 64.1602-33.2031L48.0469-33.2031C47.998-33.8379 47.998-34.5215 47.998-35.2051C47.998-35.9375 47.998-36.6699 48.0469-37.3535L64.1602-37.3535C65.5273-37.3535 66.5039-38.4277 66.5039-39.7461C66.5039-41.2109 65.5273-42.1875 64.1602-42.1875L49.0723-42.1875C51.2207-49.2188 57.0801-52.7832 64.1602-52.7832C66.2109-52.7832 67.6758-52.4902 68.7012-52.4902C70.4102-52.4902 71.6309-53.5156 71.6309-55.1758C71.6309-56.3965 71.1426-57.4219 69.4824-58.0566C68.3105-58.5449 66.6016-58.7402 64.209-58.7402C53.9551-58.7402 44.9707-53.2227 42.334-42.1875L36.8164-42.1875C35.4492-42.1875 34.4238-41.2109 34.4238-39.7461C34.4238-38.4277 35.4492-37.3535 36.8164-37.3535L41.6016-37.3535C41.5527-36.6699 41.5527-36.0352 41.5527-35.2539C41.5527-34.4238 41.6016-33.6426 41.6504-33.2031L36.8164-33.2031C35.4492-33.2031 34.4238-32.2266 34.4238-30.8105C34.4238-29.4434 35.4492-28.3691 36.8164-28.3691L42.2852-28.3691C44.9219-17.2852 53.9062-11.7188 64.209-11.7188Z"/>
  </g>
  <g id="Light-M" transform="matrix(1 0 0 1 1096.47 1126)">
   <path d="M26.8555 9.0332L86.4746 9.0332C95.9961 9.0332 100.879 4.15039 100.879-5.22461L100.879-65.0879C100.879-74.5117 95.9961-79.3945 86.4746-79.3945L26.8555-79.3945C17.334-79.3945 12.4512-74.5605 12.4512-65.0879L12.4512-5.22461C12.4512 4.19922 17.334 9.0332 26.8555 9.0332ZM26.9531 2.97852C21.4844 2.97852 18.5059 0.0976562 18.5059-5.56641L18.5059-64.7949C18.5059-70.4102 21.4844-73.3398 26.9531-73.3398L86.3281-73.3398C91.748-73.3398 94.8242-70.4102 94.8242-64.7949L94.8242-5.56641C94.8242 0.0976562 91.748 2.97852 86.3281 2.97852ZM63.1348-12.5977C64.9902-12.5977 66.5039-12.793 67.5781-13.1348C68.8477-13.5742 69.4824-14.3066 69.4824-15.3809C69.4824-16.7969 68.5059-17.5781 67.1387-17.5781C66.1133-17.5781 64.8926-17.334 63.0371-17.334C55.7129-17.334 49.4629-21.1914 47.3633-28.9551L62.5977-28.9551C63.7695-28.9551 64.5508-29.834 64.5508-30.957C64.5508-32.1777 63.7695-33.0078 62.5977-33.0078L46.6309-33.0078C46.5332-33.6914 46.5332-34.4727 46.5332-35.2051C46.5332-35.9863 46.5332-36.6699 46.582-37.3535L62.5977-37.3535C63.7695-37.3535 64.5508-38.2812 64.5508-39.4043C64.5508-40.5762 63.7695-41.4062 62.5977-41.4062L47.3633-41.4062C49.4141-49.2188 55.7129-53.0762 63.0371-53.0762C64.8926-53.0762 66.2109-52.832 67.1387-52.832C68.5059-52.832 69.4824-53.6621 69.4824-55.0293C69.4824-56.0547 68.9941-56.8848 67.5293-57.373C66.4551-57.7148 64.9902-57.8613 63.1348-57.8613C53.2227-57.8613 44.4336-52.3926 42.0898-41.4062L36.2305-41.4062C35.0586-41.4062 34.2285-40.5762 34.2285-39.4043C34.2285-38.2812 35.0586-37.3535 36.2305-37.3535L41.5039-37.3535C41.4551-36.6699 41.4551-36.0352 41.4551-35.2539C41.4551-34.375 41.5039-33.5938 41.5527-33.0078L36.2305-33.0078C35.0586-33.0078 34.2285-32.1777 34.2285-30.957C34.2285-29.834 35.0586-28.9551 36.2305-28.9551L42.0898-28.9551C44.4824-18.0176 53.2227-12.5977 63.1348-12.5977Z"/>
  </g>
  <g id="Thin-M" transform="matrix(1 0 0 1 800.758 1126)">
   <path d="M25.6348 8.05664L85.7422 8.05664C94.3848 8.05664 98.877 3.4668 98.877-5.0293L98.877-65.2344C98.877-73.7305 94.3848-78.3691 85.7422-78.3691L25.6348-78.3691C16.9922-78.3691 12.4512-73.877 12.4512-65.2344L12.4512-5.0293C12.4512 3.56445 16.9922 8.05664 25.6348 8.05664ZM25.7324 4.44336C19.3848 4.44336 16.0645 1.12305 16.0645-5.22461L16.0645-65.0391C16.0645-71.4355 19.3848-74.7559 25.7324-74.7559L85.5957-74.7559C91.748-74.7559 95.2637-71.4355 95.2637-65.0391L95.2637-5.22461C95.2637 1.12305 91.748 4.44336 85.5957 4.44336ZM61.6211-13.7695C62.8906-13.7695 64.0625-13.8184 64.9902-14.0137C66.0645-14.2578 66.6992-14.7949 66.6992-15.625C66.6992-16.6504 66.0645-17.1387 65.0879-17.1387C64.1113-17.1387 63.1348-16.9434 61.5723-16.9434C53.9551-16.9434 47.168-21.1426 45.2148-29.7363L60.498-29.7363C61.377-29.7363 61.9629-30.3711 61.9629-31.2012C61.9629-32.1289 61.377-32.7148 60.498-32.7148L44.7266-32.7148C44.6289-33.5449 44.5801-34.375 44.5801-35.2539C44.5801-35.9863 44.5801-36.7188 44.6777-37.4023L60.498-37.4023C61.377-37.4023 61.9629-38.0371 61.9629-38.916C61.9629-39.7949 61.377-40.4297 60.498-40.4297L45.166-40.4297C47.0215-49.2188 53.9062-53.5156 61.5723-53.5156C63.1836-53.5156 64.2578-53.3203 65.0879-53.3203C66.0645-53.3203 66.6992-53.8086 66.6992-54.7852C66.6992-55.6641 66.1621-56.2012 64.9414-56.4453C64.0137-56.6406 62.8906-56.6895 61.6211-56.6895C52.1973-56.6895 43.75-51.3184 41.7969-40.4297L35.4492-40.4297C34.5703-40.4297 33.9844-39.7949 33.9844-38.916C33.9844-38.0371 34.5703-37.4023 35.4492-37.4023L41.4062-37.4023C41.3086-36.7188 41.3086-36.0352 41.3086-35.2539C41.3086-34.3262 41.4062-33.4961 41.4551-32.7148L35.4492-32.7148C34.5703-32.7148 33.9844-32.1289 33.9844-31.2012C33.9844-30.3711 34.5703-29.7363 35.4492-29.7363L41.7969-29.7363C43.9453-19.0918 52.2949-13.7695 61.6211-13.7695Z"/>
  </g>
  <g id="Ultralight-M" transform="matrix(1 0 0 1 504.535 1126)">
   <path d="M25 7.56836L85.3516 7.56836C93.5059 7.56836 97.9004 3.125 97.9004-4.98047L97.9004-65.2832C97.9004-73.3887 93.5059-77.832 85.3516-77.832L25-77.832C16.7969-77.832 12.4512-73.4863 12.4512-65.2832L12.4512-4.98047C12.4512 3.22266 16.7969 7.56836 25 7.56836ZM25.0977 5.17578C18.3594 5.17578 14.8438 1.66016 14.8438-5.07812L14.8438-65.1855C14.8438-71.9727 18.3594-75.4395 25.0977-75.4395L85.2051-75.4395C91.748-75.4395 95.5078-71.9727 95.5078-65.1855L95.5078-5.07812C95.5078 1.66016 91.748 5.17578 85.2051 5.17578ZM60.8887-14.3555C61.8164-14.3555 62.793-14.3555 63.6719-14.502C64.6484-14.5996 65.2832-15.0391 65.2832-15.7715C65.2832-16.5527 64.7949-16.9434 64.0625-16.9434C63.1348-16.9434 62.2559-16.748 60.8398-16.748C53.0762-16.748 46.0449-21.0938 44.0918-30.127L59.4238-30.127C60.1562-30.127 60.6445-30.6152 60.6445-31.3477C60.6445-32.0801 60.1562-32.5684 59.4238-32.5684L43.75-32.5684C43.6523-33.4473 43.6035-34.3262 43.6035-35.2539C43.6035-35.9863 43.6035-36.7676 43.6523-37.4512L59.4238-37.4512C60.1562-37.4512 60.6445-37.9395 60.6445-38.6719C60.6445-39.4043 60.1562-39.8926 59.4238-39.8926L44.043-39.8926C45.752-49.2188 52.9785-53.7109 60.8398-53.7109C62.3047-53.7109 63.2324-53.5645 64.0625-53.5645C64.7949-53.5645 65.2832-53.9062 65.2832-54.6875C65.2832-55.4199 64.6973-55.8594 63.6719-55.957C62.793-56.1035 61.8164-56.1035 60.8887-56.1035C51.709-56.1035 43.4082-50.7324 41.6016-39.8926L35.0586-39.8926C34.3262-39.8926 33.8379-39.4043 33.8379-38.6719C33.8379-37.9395 34.3262-37.4512 35.0586-37.4512L41.3086-37.4512C41.2598-36.7676 41.2598-35.9863 41.2598-35.2539C41.2598-34.3262 41.3086-33.4473 41.3574-32.5684L35.0586-32.5684C34.3262-32.5684 33.8379-32.0801 33.8379-31.3477C33.8379-30.6152 34.3262-30.127 35.0586-30.127L41.6992-30.127C43.6523-19.5801 51.8066-14.3555 60.8887-14.3555Z"/>
  </g>
  <g id="Black-S" transform="matrix(1 0 0 1 2885.5 696)">
   <path d="M25 2.92969L70.8008 2.92969C80.3711 2.92969 86.0352-2.73438 86.0352-12.3047L86.0352-58.1055C86.0352-67.6758 80.3711-73.3398 70.8008-73.3398L25-73.3398C15.4297-73.3398 9.76562-67.6758 9.76562-58.1055L9.76562-12.3047C9.76562-2.73438 15.4297 2.92969 25 2.92969ZM27.2461-11.2305C25-11.2305 23.9258-12.1094 23.9258-14.5508L23.9258-55.8594C23.9258-58.3008 25-59.1797 27.2461-59.1797L68.5547-59.1797C70.8008-59.1797 71.875-58.3008 71.875-55.8594L71.875-14.5508C71.875-12.1094 70.8008-11.2305 68.5547-11.2305ZM52.6367-18.8477C55.2734-18.8477 56.8848-19.3848 57.9102-20.2148C58.8379-20.9961 59.2773-22.0215 59.2773-23.1934C59.2773-24.5117 58.8379-25.3418 58.0078-26.0254C56.9336-26.8555 54.6875-27.002 52.7344-27.0996C49.3164-27.2461 46.2891-28.4668 45.3613-30.7129L55.3711-30.7129C56.3965-30.7129 56.8848-31.25 56.8848-32.1289C56.8848-33.0078 56.3965-33.5449 55.3711-33.5449L44.3359-33.5449C44.2871-33.7402 44.2383-34.5215 44.2383-35.2539C44.2383-35.791 44.2383-36.2793 44.2871-36.5234L55.3711-36.5234C56.3965-36.5234 56.8848-37.0605 56.8848-37.9395C56.8848-38.8184 56.3965-39.3555 55.3711-39.3555L45.166-39.3555C46.0449-41.8457 49.2676-43.1641 52.9297-43.3594C54.6387-43.457 57.0801-43.5059 58.1055-44.4336C58.7891-45.0684 59.1797-45.9473 59.1797-47.2656C59.1797-48.3887 58.7402-49.4629 57.9102-50.2441C56.9824-51.123 55.127-51.6602 52.6855-51.6602C42.4805-51.6602 36.2793-46.9238 34.668-39.3555L32.5684-39.3555C31.543-39.3555 31.0547-38.8184 31.0547-37.9395C31.0547-37.0605 31.543-36.5234 32.5684-36.5234L34.3262-36.5234L34.3262-33.5449L32.5684-33.5449C31.543-33.5449 31.0547-33.0078 31.0547-32.1289C31.0547-31.25 31.543-30.7129 32.5684-30.7129L34.8145-30.7129C36.5723-23.4375 42.7734-18.8477 52.6367-18.8477Z"/>
  </g>
  <g id="Heavy-S" transform="matrix(1 0 0 1 2589.4 696)">
   <path d="M24.3652 2.34375L70.2637 2.34375C79.541 2.34375 84.8145-2.97852 84.8145-12.207L84.8145-58.2031C84.8145-67.4316 79.541-72.7539 70.2637-72.7539L24.3652-72.7539C15.0879-72.7539 9.76562-67.4316 9.76562-58.2031L9.76562-12.207C9.76562-2.97852 15.0879 2.34375 24.3652 2.34375ZM26.0742-10.1562C23.5352-10.1562 22.2656-11.2793 22.2656-14.0137L22.2656-56.3965C22.2656-59.1309 23.5352-60.2539 26.0742-60.2539L68.5059-60.2539C71.0449-60.2539 72.3633-59.1309 72.3633-56.3965L72.3633-14.0137C72.3633-11.2793 71.0449-10.1562 68.5059-10.1562ZM52.1973-18.2617C54.7363-18.2617 56.2988-18.75 57.3242-19.4824C58.3008-20.2148 58.7891-21.1914 58.7891-22.3145C58.7891-23.6816 58.2031-24.5117 57.1777-25.0488C56.1523-25.6836 54.1504-25.7324 52.2949-25.7812C48.3887-25.9277 45.0195-27.4902 43.8965-30.4688L54.3457-30.4688C55.4199-30.4688 56.0059-31.1035 56.0059-32.0312C56.0059-32.959 55.4199-33.5938 54.3457-33.5938L42.9199-33.5938C42.8711-33.8379 42.8223-34.5703 42.8223-35.2539C42.8223-35.791 42.8223-36.2793 42.8711-36.6211L54.3457-36.6211C55.4199-36.6211 56.0059-37.2559 56.0059-38.1836C56.0059-39.1602 55.4199-39.7461 54.3457-39.7461L43.75-39.7461C44.873-42.8711 48.3398-44.4824 52.4414-44.6289C54.1504-44.7266 56.2988-44.7266 57.2754-45.4102C58.1543-45.8984 58.6914-46.7773 58.6914-48.1445C58.6914-49.2188 58.3008-50.2441 57.3242-51.0254C56.3965-51.7578 54.6387-52.2461 52.2461-52.2461C42.5293-52.2461 36.084-47.6074 34.3262-39.7461L31.7383-39.7461C30.7129-39.7461 30.127-39.1602 30.127-38.1836C30.127-37.2559 30.7129-36.6211 31.7383-36.6211L33.9355-36.6211C33.9355-36.2305 33.9355-35.791 33.9355-35.1562C33.9355-34.6191 33.9355-34.0332 33.9355-33.5938L31.7383-33.5938C30.7129-33.5938 30.127-32.959 30.127-32.0312C30.127-31.1035 30.7129-30.4688 31.7383-30.4688L34.4238-30.4688C36.2793-22.8027 42.7246-18.2617 52.1973-18.2617Z"/>
  </g>
  <g id="Bold-S" transform="matrix(1 0 0 1 2293.35 696)">
   <path d="M23.6328 1.66016L69.6289 1.66016C78.6133 1.66016 83.4961-3.22266 83.4961-12.1094L83.4961-58.3008C83.4961-67.1875 78.6133-72.0703 69.6289-72.0703L23.6328-72.0703C14.6973-72.0703 9.76562-67.1875 9.76562-58.3008L9.76562-12.1094C9.76562-3.22266 14.6973 1.66016 23.6328 1.66016ZM24.8047-8.93555C21.9238-8.93555 20.3613-10.3516 20.3613-13.4277L20.3613-56.9824C20.3613-60.0586 21.9238-61.4746 24.8047-61.4746L68.457-61.4746C71.3379-61.4746 72.9004-60.0586 72.9004-56.9824L72.9004-13.4277C72.9004-10.3516 71.3379-8.93555 68.457-8.93555ZM51.7578-17.627C54.1016-17.627 55.6641-18.0176 56.6895-18.6523C57.7148-19.2871 58.2031-20.2148 58.2031-21.3379C58.2031-22.7051 57.4707-23.584 56.2988-23.9258C55.3223-24.3164 53.5645-24.3164 51.7578-24.3652C47.3145-24.4141 43.6035-26.3672 42.2363-30.127L53.2227-30.127C54.2969-30.127 54.9805-30.9082 54.9805-31.8848C54.9805-32.959 54.2969-33.6426 53.2227-33.6426L41.3574-33.6426C41.3086-33.9844 41.2598-34.6191 41.2598-35.2539C41.2598-35.791 41.2598-36.3281 41.3086-36.7188L53.2227-36.7188C54.2969-36.7188 54.9805-37.4512 54.9805-38.4277C54.9805-39.502 54.2969-40.1855 53.2227-40.1855L42.1875-40.1855C43.5547-44.043 47.3145-45.9961 51.8555-46.0938C53.5645-46.1426 55.4199-46.0449 56.3477-46.5332C57.4219-46.8262 58.1543-47.7051 58.1543-49.1211C58.1543-50.1953 57.7637-51.1719 56.6406-51.8555C55.7129-52.4902 54.0527-52.8809 51.7578-52.8809C42.5781-52.8809 35.8887-48.3398 33.9844-40.1855L30.8594-40.1855C29.7363-40.1855 29.0527-39.502 29.0527-38.4277C29.0527-37.4512 29.7363-36.7188 30.8594-36.7188L33.4961-36.7188C33.4473-36.2793 33.4473-35.791 33.4473-35.2051C33.4473-34.6191 33.4961-34.0332 33.4961-33.6426L30.8594-33.6426C29.7363-33.6426 29.0527-32.959 29.0527-31.8848C29.0527-30.9082 29.7363-30.127 30.8594-30.127L34.0332-30.127C35.9863-22.1191 42.6758-17.627 51.7578-17.627Z"/>
  </g>
  <g id="Semibold-S" transform="matrix(1 0 0 1 1997.1 696)">
   <path d="M23.0957 1.17188L69.1895 1.17188C77.9297 1.17188 82.5684-3.36914 82.5684-12.0117L82.5684-58.3984C82.5684-67.041 77.9297-71.582 69.1895-71.582L23.0957-71.582C14.4043-71.582 9.76562-67.041 9.76562-58.3984L9.76562-12.0117C9.76562-3.36914 14.4043 1.17188 23.0957 1.17188ZM23.877-8.10547C20.752-8.10547 19.0918-9.7168 19.0918-12.9883L19.0918-57.4219C19.0918-60.6934 20.752-62.3047 23.877-62.3047L68.4082-62.3047C71.5332-62.3047 73.2422-60.6934 73.2422-57.4219L73.2422-12.9883C73.2422-9.7168 71.5332-8.10547 68.4082-8.10547ZM51.416-17.1875C53.6621-17.1875 55.2246-17.4805 56.25-18.0664C57.3242-18.7012 57.8125-19.5801 57.8125-20.6543C57.8125-22.0703 56.9336-22.9492 55.6641-23.1445C54.7363-23.4375 53.1738-23.291 51.416-23.3398C46.582-23.3887 42.627-25.5859 41.1133-29.9316L52.3926-29.9316C53.5645-29.9316 54.2969-30.7617 54.2969-31.8359C54.2969-32.959 53.5645-33.6914 52.3926-33.6914L40.2344-33.6914C40.1855-34.082 40.1855-34.668 40.1855-35.2051C40.1855-35.791 40.1855-36.3281 40.2344-36.7676L52.3926-36.7676C53.5645-36.7676 54.2969-37.5977 54.2969-38.623C54.2969-39.7461 53.5645-40.5273 52.3926-40.5273L41.1133-40.5273C42.627-44.8242 46.6309-47.0215 51.4648-47.0703C53.1738-47.1191 54.7852-46.9727 55.7129-47.2656C56.9336-47.4609 57.8125-48.3398 57.8125-49.7559C57.8125-50.8301 57.4219-51.7578 56.1523-52.4414C55.2246-52.9785 53.6621-53.3203 51.416-53.3203C42.5781-53.3203 35.7422-48.8281 33.6914-40.5273L30.2246-40.5273C29.1016-40.5273 28.3203-39.7461 28.3203-38.623C28.3203-37.5977 29.1016-36.7676 30.2246-36.7676L33.2031-36.7676C33.1543-36.2793 33.1543-35.8398 33.1543-35.2051C33.1543-34.6191 33.2031-34.0332 33.2031-33.6914L30.2246-33.6914C29.1016-33.6914 28.3203-32.959 28.3203-31.8359C28.3203-30.7617 29.1016-29.9316 30.2246-29.9316L33.7402-29.9316C35.7422-21.6309 42.627-17.1875 51.416-17.1875Z"/>
  </g>
  <g id="Medium-S" transform="matrix(1 0 0 1 1700.75 696)">
   <path d="M22.7051 0.830078L68.8965 0.830078C77.4414 0.830078 81.8359-3.51562 81.8359-11.9629L81.8359-58.4473C81.8359-66.8945 77.4414-71.2402 68.8965-71.2402L22.7051-71.2402C14.209-71.2402 9.76562-66.8945 9.76562-58.4473L9.76562-11.9629C9.76562-3.51562 14.209 0.830078 22.7051 0.830078ZM23.1934-7.4707C19.9219-7.4707 18.0664-9.22852 18.0664-12.6953L18.0664-57.7148C18.0664-61.1816 19.9219-62.9395 23.1934-62.9395L68.4082-62.9395C71.6797-62.9395 73.5352-61.1816 73.5352-57.7148L73.5352-12.6953C73.5352-9.22852 71.6797-7.4707 68.4082-7.4707ZM51.1719-16.8457C53.3691-16.8457 54.8828-17.1387 55.9082-17.6758C57.0312-18.2129 57.5195-19.043 57.5195-20.1172C57.5195-21.582 56.543-22.4609 55.2246-22.5586C54.2969-22.7051 52.8809-22.5586 51.1719-22.5586C46.0449-22.6074 41.8457-25 40.2832-29.7852L51.8066-29.7852C52.9785-29.7852 53.7598-30.6641 53.7598-31.7383C53.7598-32.9102 52.9785-33.7402 51.8066-33.7402L39.4043-33.7402C39.3555-34.1309 39.3555-34.668 39.3555-35.2051C39.3555-35.791 39.3555-36.3281 39.4043-36.8164L51.8066-36.8164C52.9785-36.8164 53.7598-37.6953 53.7598-38.7695C53.7598-39.9414 52.9785-40.7227 51.8066-40.7227L40.332-40.7227C41.9434-45.4102 46.0938-47.8027 51.1719-47.8516C52.8809-47.8516 54.3457-47.6562 55.2246-47.8516C56.543-47.9492 57.5195-48.8281 57.5195-50.293C57.5195-51.3184 57.1289-52.2461 55.8105-52.8809C54.8828-53.3691 53.3691-53.6133 51.1719-53.6133C42.627-53.6133 35.5957-49.2188 33.4961-40.7227L29.7363-40.7227C28.6133-40.7227 27.7832-39.9414 27.7832-38.7695C27.7832-37.6953 28.6133-36.8164 29.7363-36.8164L32.959-36.8164C32.9102-36.3281 32.9102-35.8398 32.9102-35.2539C32.9102-34.6191 32.959-34.0332 32.959-33.7402L29.7363-33.7402C28.6133-33.7402 27.7832-32.9102 27.7832-31.7383C27.7832-30.6641 28.6133-29.7852 29.7363-29.7852L33.4961-29.7852C35.5957-21.2402 42.627-16.8457 51.1719-16.8457Z"/>
  </g>
  <g id="Regular-S" transform="matrix(1 0 0 1 1404.51 696)">
   <path d="M22.2168 0.390625L68.457 0.390625C76.8066 0.390625 80.9082-3.71094 80.9082-11.9141L80.9082-58.4961C80.9082-66.6992 76.8066-70.8008 68.457-70.8008L22.2168-70.8008C13.916-70.8008 9.76562-66.6992 9.76562-58.4961L9.76562-11.9141C9.76562-3.71094 13.916 0.390625 22.2168 0.390625ZM22.3145-6.68945C18.7988-6.68945 16.7969-8.54492 16.7969-12.2559L16.7969-58.1543C16.7969-61.8164 18.7988-63.7207 22.3145-63.7207L68.3594-63.7207C71.875-63.7207 73.877-61.8164 73.877-58.1543L73.877-12.2559C73.877-8.54492 71.875-6.68945 68.3594-6.68945ZM50.8301-16.4062C52.9297-16.4062 54.4434-16.6504 55.4688-17.0898C56.5918-17.627 57.1289-18.4082 57.1289-19.4824C57.1289-20.9473 56.0547-21.8262 54.5898-21.8262C53.7109-21.8262 52.4902-21.582 50.7812-21.582C45.3125-21.582 40.918-24.2676 39.1602-29.5898L51.0254-29.5898C52.1973-29.5898 53.0762-30.5176 53.0762-31.6895C53.0762-32.9102 52.1973-33.7402 51.0254-33.7402L38.3301-33.7402C38.2812-34.2285 38.2812-34.7168 38.2812-35.2051C38.2812-35.791 38.2812-36.3281 38.3301-36.8652L51.0254-36.8652C52.1973-36.8652 53.0762-37.793 53.0762-38.9648C53.0762-40.1855 52.1973-41.0645 51.0254-41.0645L39.2578-41.0645C41.0156-46.1914 45.4102-48.8281 50.7812-48.8281C52.4902-48.8281 53.7109-48.584 54.5898-48.584C56.0547-48.584 57.1289-49.4629 57.1289-50.9277C57.1289-51.9531 56.7871-52.832 55.3711-53.4668C54.3945-53.8574 52.9785-54.0527 50.8301-54.0527C42.6758-54.0527 35.4492-49.707 33.252-41.0645L29.1016-41.0645C27.9785-41.0645 27.0508-40.1855 27.0508-38.9648C27.0508-37.793 27.9785-36.8652 29.1016-36.8652L32.666-36.8652C32.6172-36.3281 32.6172-35.8887 32.6172-35.2539C32.6172-34.6191 32.666-34.0332 32.666-33.7402L29.1016-33.7402C27.9785-33.7402 27.0508-32.9102 27.0508-31.6895C27.0508-30.5176 27.9785-29.5898 29.1016-29.5898L33.2031-29.5898C35.4004-20.752 42.5781-16.4062 50.8301-16.4062Z"/>
  </g>
  <g id="Light-S" transform="matrix(1 0 0 1 1108.46 696)">
   <path d="M21.3867-0.292969L67.9688-0.292969C75.7324-0.292969 79.5898-4.15039 79.5898-11.7676L79.5898-58.5938C79.5898-66.2109 75.7324-70.1172 67.9688-70.1172L21.3867-70.1172C13.6719-70.1172 9.76562-66.2598 9.76562-58.5938L9.76562-11.7676C9.76562-4.15039 13.6719-0.292969 21.3867-0.292969ZM21.4844-5.71289C17.4316-5.71289 15.1855-7.86133 15.1855-12.0605L15.1855-58.3008C15.1855-62.5 17.4316-64.6973 21.4844-64.6973L67.8711-64.6973C71.875-64.6973 74.1699-62.5 74.1699-58.3008L74.1699-12.0605C74.1699-7.86133 71.875-5.71289 67.8711-5.71289ZM49.8535-17.1875C51.5137-17.1875 52.7832-17.334 53.7109-17.6758C54.7363-18.0664 55.2734-18.7012 55.2734-19.6289C55.2734-20.8496 54.3945-21.5332 53.2227-21.5332C52.3926-21.5332 51.3184-21.3379 49.8047-21.3379C44.1406-21.3379 39.4043-24.2188 37.6953-30.0781L49.6094-30.0781C50.6348-30.0781 51.3184-30.8594 51.3184-31.8359C51.3184-32.8613 50.6348-33.5449 49.6094-33.5449L37.0605-33.5449C37.0117-34.082 37.0117-34.668 37.0117-35.2051C37.0117-35.791 37.0117-36.377 37.0605-36.9141L49.6094-36.9141C50.6348-36.9141 51.3184-37.6465 51.3184-38.623C51.3184-39.6484 50.6348-40.3809 49.6094-40.3809L37.7441-40.3809C39.4043-46.1914 44.1895-49.1211 49.8047-49.1211C51.3184-49.1211 52.4414-48.877 53.2227-48.877C54.3945-48.877 55.2734-49.6094 55.2734-50.7812C55.2734-51.6602 54.8828-52.3926 53.6621-52.832C52.7832-53.1738 51.5625-53.2715 49.8535-53.2715C41.9922-53.2715 35.0098-48.9746 33.0566-40.3809L28.6133-40.3809C27.6367-40.3809 26.9043-39.6484 26.9043-38.623C26.9043-37.6465 27.6367-36.9141 28.6133-36.9141L32.5684-36.9141C32.5195-36.377 32.5195-35.8887 32.5195-35.2539C32.5195-34.5703 32.5684-33.9844 32.5684-33.5449L28.6133-33.5449C27.6367-33.5449 26.9043-32.8613 26.9043-31.8359C26.9043-30.8594 27.6367-30.0781 28.6133-30.0781L33.0566-30.0781C35.0098-21.4844 41.9434-17.1875 49.8535-17.1875Z"/>
  </g>
  <g id="Thin-S" transform="matrix(1 0 0 1 812.599 696)">
   <path d="M20.3125-1.12305L67.334-1.12305C74.2676-1.12305 77.8809-4.78516 77.8809-11.6211L77.8809-58.6914C77.8809-65.5762 74.2676-69.2383 67.334-69.2383L20.3125-69.2383C13.3789-69.2383 9.76562-65.625 9.76562-58.6914L9.76562-11.6211C9.76562-4.6875 13.3789-1.12305 20.3125-1.12305ZM20.4102-4.44336C15.625-4.44336 13.0859-6.93359 13.0859-11.8164L13.0859-58.5449C13.0859-63.3789 15.625-65.918 20.4102-65.918L67.2363-65.918C71.875-65.918 74.5605-63.3789 74.5605-58.5449L74.5605-11.8164C74.5605-6.93359 71.875-4.44336 67.2363-4.44336ZM48.584-18.2129C49.6582-18.2129 50.6348-18.2617 51.416-18.457C52.2949-18.6523 52.7832-19.1406 52.7832-19.8242C52.7832-20.7031 52.1973-21.1426 51.416-21.1426C50.6348-21.1426 49.8047-20.9961 48.5352-20.9961C42.627-20.9961 37.4023-24.2188 35.8398-30.7617L47.8027-30.7617C48.5352-30.7617 49.0723-31.2988 49.0723-32.0312C49.0723-32.8125 48.5352-33.3008 47.8027-33.3008L35.4004-33.3008C35.3516-33.9355 35.3027-34.5703 35.3027-35.2539C35.3027-35.8398 35.3027-36.377 35.3516-36.9141L47.8027-36.9141C48.5352-36.9141 49.0723-37.5 49.0723-38.2324C49.0723-38.9648 48.5352-39.502 47.8027-39.502L35.791-39.502C37.3047-46.1914 42.5781-49.4629 48.5352-49.4629C49.8535-49.4629 50.6836-49.3164 51.416-49.3164C52.1973-49.3164 52.7832-49.7559 52.7832-50.6348C52.7832-51.3184 52.3926-51.8066 51.3672-52.0508C50.6348-52.1973 49.6582-52.2461 48.584-52.2461C41.1133-52.2461 34.4238-48.0469 32.8125-39.502L27.9297-39.502C27.1973-39.502 26.6602-38.9648 26.6602-38.2324C26.6602-37.5 27.1973-36.9141 27.9297-36.9141L32.4707-36.9141C32.4219-36.377 32.4219-35.8398 32.4219-35.2539C32.4219-34.5703 32.4707-33.8867 32.4707-33.3008L27.9297-33.3008C27.1973-33.3008 26.6602-32.8125 26.6602-32.0312C26.6602-31.2988 27.1973-30.7617 27.9297-30.7617L32.8125-30.7617C34.5215-22.3633 41.1621-18.2129 48.584-18.2129Z"/>
  </g>
  <g id="Ultralight-S" transform="matrix(1 0 0 1 516.352 696)">
   <path d="M19.7754-1.5625L66.9922-1.5625C73.5352-1.5625 76.9531-5.12695 76.9531-11.5234L76.9531-58.7891C76.9531-65.2344 73.5352-68.75 66.9922-68.75L19.7754-68.75C13.2324-68.75 9.76562-65.2832 9.76562-58.7891L9.76562-11.5234C9.76562-5.0293 13.2324-1.5625 19.7754-1.5625ZM19.873-3.75977C14.6484-3.75977 11.9629-6.44531 11.9629-11.6699L11.9629-58.6426C11.9629-63.8672 14.6484-66.5527 19.873-66.5527L66.8945-66.5527C71.875-66.5527 74.7559-63.8672 74.7559-58.6426L74.7559-11.6699C74.7559-6.44531 71.875-3.75977 66.8945-3.75977ZM47.9004-18.75C48.6816-18.75 49.5117-18.75 50.2441-18.8477C51.0254-18.9941 51.5137-19.3359 51.5137-19.9219C51.5137-20.6055 51.0742-20.9473 50.4395-20.9473C49.707-20.9473 49.0234-20.8008 47.8516-20.8008C41.8457-20.8008 36.377-24.1699 34.8633-31.1035L46.8262-31.1035C47.4609-31.1035 47.9004-31.543 47.9004-32.1289C47.9004-32.7637 47.4609-33.2031 46.8262-33.2031L34.5215-33.2031C34.4727-33.8379 34.4238-34.5215 34.4238-35.2539C34.4238-35.8398 34.4238-36.4258 34.4727-36.9629L46.8262-36.9629C47.4609-36.9629 47.9004-37.3535 47.9004-37.9883C47.9004-38.623 47.4609-39.0137 46.8262-39.0137L34.8145-39.0137C36.1816-46.1914 41.748-49.6582 47.8516-49.6582C49.0723-49.6582 49.8047-49.5117 50.4395-49.5117C51.0742-49.5117 51.5137-49.8535 51.5137-50.4883C51.5137-51.123 51.0742-51.4648 50.1953-51.6113C49.5117-51.709 48.7305-51.709 47.9004-51.709C40.625-51.709 34.082-47.5098 32.666-39.0137L27.5879-39.0137C26.9531-39.0137 26.5625-38.623 26.5625-37.9883C26.5625-37.3535 26.9531-36.9629 27.5879-36.9629L32.373-36.9629C32.3242-36.4258 32.3242-35.8398 32.3242-35.2539C32.3242-34.5215 32.373-33.8379 32.4219-33.2031L27.5879-33.2031C26.9531-33.2031 26.5625-32.7637 26.5625-32.1289C26.5625-31.543 26.9531-31.1035 27.5879-31.1035L32.7148-31.1035C34.2773-22.8516 40.7227-18.75 47.9004-18.75Z"/>
  </g>
 </g>
</svg>
