<?xml version="1.0" encoding="UTF-8"?>
<!--Generator: Apple Native CoreSVG 149-->
<!DOCTYPE svg
PUBLIC "-//W3C//DTD SVG 1.1//EN"
       "http://www.w3.org/Graphics/SVG/1.1/DTD/svg11.dtd">
<svg version="1.1" xmlns="http://www.w3.org/2000/svg" xmlns:xlink="http://www.w3.org/1999/xlink" width="3300" height="2200">
 <!--glyph: "uni1005DB.medium", point size: 100.000000, font version: "Version 16.0d18e1", template writer version: "8"-->
 <g id="Notes">
  <rect height="2200" id="artboard" style="fill:white;opacity:1" width="3300" x="0" y="0"/>
  <line id="" style="fill:none;stroke:black;opacity:1;stroke-width:0.5;" x1="263" x2="3036" y1="292" y2="292"/>
  <text style="stroke:none;fill:black;font-family:-apple-system,&quot;SF Pro Display&quot;,&quot;SF Pro Text&quot;,Helvetica,sans-serif;font-weight:bold;" transform="matrix(1 0 0 1 263 322)">Weight/Scale Variations</text>
  <text style="stroke:none;fill:black;font-family:-apple-system,&quot;SF Pro Display&quot;,&quot;SF Pro Text&quot;,Helvetica,sans-serif;text-anchor:middle;" transform="matrix(1 0 0 1 559.711 322)">Ultralight</text>
  <text style="stroke:none;fill:black;font-family:-apple-system,&quot;SF Pro Display&quot;,&quot;SF Pro Text&quot;,Helvetica,sans-serif;text-anchor:middle;" transform="matrix(1 0 0 1 856.422 322)">Thin</text>
  <text style="stroke:none;fill:black;font-family:-apple-system,&quot;SF Pro Display&quot;,&quot;SF Pro Text&quot;,Helvetica,sans-serif;text-anchor:middle;" transform="matrix(1 0 0 1 1153.13 322)">Light</text>
  <text style="stroke:none;fill:black;font-family:-apple-system,&quot;SF Pro Display&quot;,&quot;SF Pro Text&quot;,Helvetica,sans-serif;text-anchor:middle;" transform="matrix(1 0 0 1 1449.84 322)">Regular</text>
  <text style="stroke:none;fill:black;font-family:-apple-system,&quot;SF Pro Display&quot;,&quot;SF Pro Text&quot;,Helvetica,sans-serif;text-anchor:middle;" transform="matrix(1 0 0 1 1746.56 322)">Medium</text>
  <text style="stroke:none;fill:black;font-family:-apple-system,&quot;SF Pro Display&quot;,&quot;SF Pro Text&quot;,Helvetica,sans-serif;text-anchor:middle;" transform="matrix(1 0 0 1 2043.27 322)">Semibold</text>
  <text style="stroke:none;fill:black;font-family:-apple-system,&quot;SF Pro Display&quot;,&quot;SF Pro Text&quot;,Helvetica,sans-serif;text-anchor:middle;" transform="matrix(1 0 0 1 2339.98 322)">Bold</text>
  <text style="stroke:none;fill:black;font-family:-apple-system,&quot;SF Pro Display&quot;,&quot;SF Pro Text&quot;,Helvetica,sans-serif;text-anchor:middle;" transform="matrix(1 0 0 1 2636.69 322)">Heavy</text>
  <text style="stroke:none;fill:black;font-family:-apple-system,&quot;SF Pro Display&quot;,&quot;SF Pro Text&quot;,Helvetica,sans-serif;text-anchor:middle;" transform="matrix(1 0 0 1 2933.4 322)">Black</text>
  <line id="" style="fill:none;stroke:black;opacity:1;stroke-width:0.5;" x1="263" x2="3036" y1="1903" y2="1903"/>
  <g id="" transform="matrix(1 0 0 1 263 1933)">
   <path d="M9.24805 0.830078C13.5547 0.830078 17.1387-2.74414 17.1387-7.05078C17.1387-11.3574 13.5449-14.9316 9.23828-14.9316C4.94141-14.9316 1.36719-11.3574 1.36719-7.05078C1.36719-2.74414 4.95117 0.830078 9.24805 0.830078ZM9.24805-0.654297C5.70312-0.654297 2.87109-3.49609 2.87109-7.05078C2.87109-10.6055 5.69336-13.4473 9.23828-13.4473C12.793-13.4473 15.6348-10.6055 15.6445-7.05078C15.6543-3.49609 12.8027-0.654297 9.24805-0.654297ZM6.39648-6.31836L8.50586-6.31836L8.50586-4.19922C8.50586-3.75977 8.79883-3.45703 9.22852-3.45703C9.67773-3.45703 9.9707-3.75977 9.9707-4.19922L9.9707-6.31836L12.0996-6.31836C12.5391-6.31836 12.8418-6.61133 12.8418-7.04102C12.8418-7.48047 12.5391-7.7832 12.0996-7.7832L9.9707-7.7832L9.9707-9.89258C9.9707-10.3418 9.67773-10.6445 9.22852-10.6445C8.79883-10.6445 8.50586-10.3418 8.50586-9.89258L8.50586-7.7832L6.39648-7.7832C5.94727-7.7832 5.64453-7.48047 5.64453-7.04102C5.64453-6.61133 5.94727-6.31836 6.39648-6.31836Z"/>
  </g>
  <g id="" transform="matrix(1 0 0 1 281.506 1933)">
   <path d="M11.709 2.91016C17.1582 2.91016 21.6699-1.61133 21.6699-7.05078C21.6699-12.5 17.1484-17.0117 11.6992-17.0117C6.25977-17.0117 1.74805-12.5 1.74805-7.05078C1.74805-1.61133 6.26953 2.91016 11.709 2.91016ZM11.709 1.25C7.09961 1.25 3.41797-2.44141 3.41797-7.05078C3.41797-11.6602 7.08984-15.3516 11.6992-15.3516C16.3086-15.3516 20-11.6602 20.0098-7.05078C20.0195-2.44141 16.3184 1.25 11.709 1.25ZM7.98828-6.23047L10.8789-6.23047L10.8789-3.32031C10.8789-2.83203 11.2109-2.5 11.6895-2.5C12.1777-2.5 12.5195-2.83203 12.5195-3.32031L12.5195-6.23047L15.4297-6.23047C15.918-6.23047 16.25-6.5625 16.25-7.04102C16.25-7.5293 15.918-7.87109 15.4297-7.87109L12.5195-7.87109L12.5195-10.7617C12.5195-11.2695 12.1777-11.6016 11.6895-11.6016C11.2109-11.6016 10.8789-11.2598 10.8789-10.7617L10.8789-7.87109L7.98828-7.87109C7.48047-7.87109 7.14844-7.5293 7.14844-7.04102C7.14844-6.5625 7.49023-6.23047 7.98828-6.23047Z"/>
  </g>
  <g id="" transform="matrix(1 0 0 1 304.924 1933)">
   <path d="M14.9707 5.66406C21.9336 5.66406 27.6953-0.0976562 27.6953-7.05078C27.6953-14.0137 21.9238-19.7754 14.9609-19.7754C8.00781-19.7754 2.25586-14.0137 2.25586-7.05078C2.25586-0.0976562 8.01758 5.66406 14.9707 5.66406ZM14.9707 3.84766C8.93555 3.84766 4.08203-1.01562 4.08203-7.05078C4.08203-13.0957 8.92578-17.9492 14.9609-17.9492C21.0059-17.9492 25.8594-13.0957 25.8691-7.05078C25.8789-1.01562 21.0156 3.84766 14.9707 3.84766ZM10.0586-6.14258L14.0625-6.14258L14.0625-2.12891C14.0625-1.5918 14.4336-1.2207 14.9512-1.2207C15.4883-1.2207 15.8594-1.5918 15.8594-2.12891L15.8594-6.14258L19.8828-6.14258C20.4102-6.14258 20.791-6.51367 20.791-7.03125C20.791-7.56836 20.4199-7.94922 19.8828-7.94922L15.8594-7.94922L15.8594-11.9531C15.8594-12.5098 15.4883-12.8809 14.9512-12.8809C14.4336-12.8809 14.0625-12.5 14.0625-11.9531L14.0625-7.94922L10.0586-7.94922C9.50195-7.94922 9.13086-7.56836 9.13086-7.03125C9.13086-6.51367 9.51172-6.14258 10.0586-6.14258Z"/>
  </g>
  <text style="stroke:none;fill:black;font-family:-apple-system,&quot;SF Pro Display&quot;,&quot;SF Pro Text&quot;,Helvetica,sans-serif;font-weight:bold;" transform="matrix(1 0 0 1 263 1953)">Design Variations</text>
  <text style="stroke:none;fill:black;font-family:-apple-system,&quot;SF Pro Display&quot;,&quot;SF Pro Text&quot;,Helvetica,sans-serif;" transform="matrix(1 0 0 1 263 1971)">Symbols are supported in up to nine weights and three scales.</text>
  <text style="stroke:none;fill:black;font-family:-apple-system,&quot;SF Pro Display&quot;,&quot;SF Pro Text&quot;,Helvetica,sans-serif;" transform="matrix(1 0 0 1 263 1989)">For optimal layout with text and other symbols, vertically align</text>
  <text style="stroke:none;fill:black;font-family:-apple-system,&quot;SF Pro Display&quot;,&quot;SF Pro Text&quot;,Helvetica,sans-serif;" transform="matrix(1 0 0 1 263 2007)">symbols with the adjacent text.</text>
  <line id="" style="fill:none;stroke:#00AEEF;stroke-width:0.5;opacity:1.0;" x1="776" x2="776" y1="1919" y2="1933"/>
  <g id="" transform="matrix(1 0 0 1 776 1933)">
   <path d="M3.31055 0.126953C3.82812 0.126953 4.08203-0.0683594 4.26758-0.605469L5.52734-4.0625L11.2891-4.0625L12.5488-0.605469C12.7344-0.0683594 12.9883 0.126953 13.4961 0.126953C14.0137 0.126953 14.3457-0.185547 14.3457-0.673828C14.3457-0.839844 14.3164-0.986328 14.2383-1.20117L9.6582-13.3887C9.43359-13.9941 9.0332-14.2871 8.4082-14.2871C7.80273-14.2871 7.39258-13.9941 7.17773-13.3984L2.59766-1.19141C2.51953-0.976562 2.49023-0.830078 2.49023-0.664062C2.49023-0.175781 2.80273 0.126953 3.31055 0.126953ZM6.00586-5.53711L8.37891-12.1094L8.42773-12.1094L10.8008-5.53711Z"/>
  </g>
  <line id="" style="fill:none;stroke:#00AEEF;stroke-width:0.5;opacity:1.0;" x1="792.836" x2="792.836" y1="1919" y2="1933"/>
  <text style="stroke:none;fill:black;font-family:-apple-system,&quot;SF Pro Display&quot;,&quot;SF Pro Text&quot;,Helvetica,sans-serif;font-weight:bold;" transform="matrix(1 0 0 1 776 1953)">Margins</text>
  <text style="stroke:none;fill:black;font-family:-apple-system,&quot;SF Pro Display&quot;,&quot;SF Pro Text&quot;,Helvetica,sans-serif;" transform="matrix(1 0 0 1 776 1971)">Leading and trailing margins on the left and right side of each symbol</text>
  <text style="stroke:none;fill:black;font-family:-apple-system,&quot;SF Pro Display&quot;,&quot;SF Pro Text&quot;,Helvetica,sans-serif;" transform="matrix(1 0 0 1 776 1989)">can be adjusted by modifying the x-location of the margin guidelines.</text>
  <text style="stroke:none;fill:black;font-family:-apple-system,&quot;SF Pro Display&quot;,&quot;SF Pro Text&quot;,Helvetica,sans-serif;" transform="matrix(1 0 0 1 776 2007)">Modifications are automatically applied proportionally to all</text>
  <text style="stroke:none;fill:black;font-family:-apple-system,&quot;SF Pro Display&quot;,&quot;SF Pro Text&quot;,Helvetica,sans-serif;" transform="matrix(1 0 0 1 776 2025)">scales and weights.</text>
  <g id="" transform="matrix(1 0 0 1 1289 1933)">
   <path d="M2.8418 1.86523L4.54102 3.57422C5.40039 4.44336 6.38672 4.38477 7.31445 3.35938L17.4902-7.85156C17.7539-7.76367 18.0273-7.7832 18.3398-7.8418L19.4043-8.03711L20.0684-7.36328L20.0293-6.80664C19.9902-6.30859 20.1172-5.92773 20.6055-5.44922L21.3672-4.70703C21.8457-4.22852 22.4609-4.19922 22.9297-4.66797L25.8398-7.58789C26.3086-8.05664 26.2891-8.65234 25.8105-9.13086L25.0391-9.89258C24.5605-10.3711 24.1895-10.5273 23.7109-10.4883L23.1348-10.4395L22.4902-11.0742L22.7344-12.1973C22.8613-12.7637 22.7051-13.2031 22.1191-13.7891L19.9219-15.9766C16.582-19.2969 12.1484-19.2188 9.25781-16.3281C8.83789-15.918 8.80859-15.3418 9.04297-14.9512C9.27734-14.5898 9.73633-14.3555 10.3809-14.5215C11.8457-14.8633 13.3691-14.9219 14.7949-13.9844L14.209-12.5293C14.0137-12.0508 13.9844-11.6504 14.1113-11.2891L3.04688-0.898438C2.06055 0.0195312 1.98242 0.996094 2.8418 1.86523ZM10.752-15.957C13.1836-17.7344 16.4746-17.4316 18.7012-15.2051L21.1328-12.793C21.3672-12.5586 21.4062-12.373 21.3379-12.0312L21.0156-10.5469L22.5195-9.0625L23.5059-9.12109C23.7598-9.13086 23.8379-9.11133 24.0332-8.91602L24.6094-8.33984L22.168-5.89844L21.5918-6.47461C21.3965-6.66992 21.3672-6.74805 21.377-7.01172L21.4453-7.98828L19.9512-9.47266L18.4277-9.21875C18.1055-9.15039 17.959-9.17969 17.7148-9.41406L15.7129-11.416C15.459-11.6504 15.4297-11.8164 15.5859-12.1875L16.4648-14.2773C14.9023-15.7324 12.8711-16.3574 10.8398-15.7617C10.6836-15.7227 10.625-15.8496 10.752-15.957ZM5.27344 2.30469L4.10156 1.14258C3.63281 0.683594 3.74023 0.341797 4.14062-0.0195312L14.9512-10.1953L16.416-8.71094L6.42578 2.27539C6.07422 2.67578 5.74219 2.77344 5.27344 2.30469Z"/>
  </g>
  <text style="stroke:none;fill:black;font-family:-apple-system,&quot;SF Pro Display&quot;,&quot;SF Pro Text&quot;,Helvetica,sans-serif;font-weight:bold;" transform="matrix(1 0 0 1 1289 1953)">Exporting</text>
  <text style="stroke:none;fill:black;font-family:-apple-system,&quot;SF Pro Display&quot;,&quot;SF Pro Text&quot;,Helvetica,sans-serif;" transform="matrix(1 0 0 1 1289 1971)">Symbols should be outlined when exporting to ensure the</text>
  <text style="stroke:none;fill:black;font-family:-apple-system,&quot;SF Pro Display&quot;,&quot;SF Pro Text&quot;,Helvetica,sans-serif;" transform="matrix(1 0 0 1 1289 1989)">design is preserved when submitting to Xcode.</text>
  <text id="template-version" style="stroke:none;fill:black;font-family:-apple-system,&quot;SF Pro Display&quot;,&quot;SF Pro Text&quot;,Helvetica,sans-serif;text-anchor:end;" transform="matrix(1 0 0 1 3036 1933)">Template v.2.0</text>
  <text style="stroke:none;fill:black;font-family:-apple-system,&quot;SF Pro Display&quot;,&quot;SF Pro Text&quot;,Helvetica,sans-serif;text-anchor:end;" transform="matrix(1 0 0 1 3036 1951)">Requires Xcode 12 or greater</text>
  <text style="stroke:none;fill:black;font-family:-apple-system,&quot;SF Pro Display&quot;,&quot;SF Pro Text&quot;,Helvetica,sans-serif;text-anchor:end;" transform="matrix(1 0 0 1 3036 1969)">Generated from yensign.square</text>
  <text style="stroke:none;fill:black;font-family:-apple-system,&quot;SF Pro Display&quot;,&quot;SF Pro Text&quot;,Helvetica,sans-serif;text-anchor:end;" transform="matrix(1 0 0 1 3036 1987)">Typeset at 100 points</text>
  <text style="stroke:none;fill:black;font-family:-apple-system,&quot;SF Pro Display&quot;,&quot;SF Pro Text&quot;,Helvetica,sans-serif;" transform="matrix(1 0 0 1 263 726)">Small</text>
  <text style="stroke:none;fill:black;font-family:-apple-system,&quot;SF Pro Display&quot;,&quot;SF Pro Text&quot;,Helvetica,sans-serif;" transform="matrix(1 0 0 1 263 1156)">Medium</text>
  <text style="stroke:none;fill:black;font-family:-apple-system,&quot;SF Pro Display&quot;,&quot;SF Pro Text&quot;,Helvetica,sans-serif;" transform="matrix(1 0 0 1 263 1586)">Large</text>
 </g>
 <g id="Guides">
  <g id="H-reference" style="fill:#27AAE1;stroke:none;" transform="matrix(1 0 0 1 339 696)">
   <path d="M0.976562 0L3.66211 0L12.9883-24.4629L45.752-24.4629L55.127 0L57.7637 0L30.6152-70.459L28.125-70.459ZM29.3457-67.1387L29.4434-67.1387L44.873-26.709L13.8672-26.709Z"/>
  </g>
  <line id="Baseline-S" style="fill:none;stroke:#27AAE1;opacity:1;stroke-width:0.5;" x1="263" x2="3036" y1="696" y2="696"/>
  <line id="Capline-S" style="fill:none;stroke:#27AAE1;opacity:1;stroke-width:0.5;" x1="263" x2="3036" y1="625.541" y2="625.541"/>
  <g id="H-reference" style="fill:#27AAE1;stroke:none;" transform="matrix(1 0 0 1 339 1126)">
   <path d="M0.976562 0L3.66211 0L12.9883-24.4629L45.752-24.4629L55.127 0L57.7637 0L30.6152-70.459L28.125-70.459ZM29.3457-67.1387L29.4434-67.1387L44.873-26.709L13.8672-26.709Z"/>
  </g>
  <line id="Baseline-M" style="fill:none;stroke:#27AAE1;opacity:1;stroke-width:0.5;" x1="263" x2="3036" y1="1126" y2="1126"/>
  <line id="Capline-M" style="fill:none;stroke:#27AAE1;opacity:1;stroke-width:0.5;" x1="263" x2="3036" y1="1055.54" y2="1055.54"/>
  <g id="H-reference" style="fill:#27AAE1;stroke:none;" transform="matrix(1 0 0 1 339 1556)">
   <path d="M0.976562 0L3.66211 0L12.9883-24.4629L45.752-24.4629L55.127 0L57.7637 0L30.6152-70.459L28.125-70.459ZM29.3457-67.1387L29.4434-67.1387L44.873-26.709L13.8672-26.709Z"/>
  </g>
  <line id="Baseline-L" style="fill:none;stroke:#27AAE1;opacity:1;stroke-width:0.5;" x1="263" x2="3036" y1="1556" y2="1556"/>
  <line id="Capline-L" style="fill:none;stroke:#27AAE1;opacity:1;stroke-width:0.5;" x1="263" x2="3036" y1="1485.54" y2="1485.54"/>
  <line id="left-margin" style="fill:none;stroke:#00AEEF;stroke-width:0.5;opacity:1.0;" x1="1392.45" x2="1392.45" y1="1030.79" y2="1150.12"/>
  <line id="right-margin" style="fill:none;stroke:#00AEEF;stroke-width:0.5;opacity:1.0;" x1="1507.24" x2="1507.24" y1="1030.79" y2="1150.12"/>
 </g>
 <g id="Symbols">
  <g id="Black-L" transform="matrix(1 0 0 1 2855.62 1556)">
   <path d="M39.9902 26.5137L115.576 26.5137C130.811 26.5137 139.502 17.8711 139.502 2.68555L139.502-73.0957C139.502-88.2812 130.811-96.875 115.576-96.875L39.9902-96.875C24.7559-96.875 16.0645-88.2812 16.0645-73.0957L16.0645 2.68555C16.0645 17.8711 24.7559 26.5137 39.9902 26.5137ZM42.6758 6.29883C38.4766 6.29883 36.3281 4.39453 36.3281-0.146484L36.3281-70.2148C36.3281-74.7559 38.4766-76.6602 42.6758-76.6602L112.842-76.6602C117.09-76.6602 119.238-74.7559 119.238-70.2148L119.238-0.146484C119.238 4.39453 117.09 6.29883 112.842 6.29883ZM77.8809-5.46875C82.5684-5.46875 85.1562-8.44727 85.1562-13.2812L85.1562-16.0156L95.8496-16.0156C97.5586-16.0156 98.6328-17.1387 98.6328-18.7012C98.6328-20.2637 97.5586-21.3379 95.8496-21.3379L85.1562-21.3379L85.1562-25.4395L95.8496-25.4395C97.5586-25.4395 98.6328-26.5625 98.6328-28.125C98.6328-29.6387 97.5586-30.7617 95.8496-30.7617L88.2324-30.7617L100.684-51.2695C101.66-52.9297 102.197-54.541 102.197-56.2988C102.197-60.3516 99.0234-63.3789 94.7266-63.3789C91.7969-63.3789 89.502-62.0117 87.8906-58.6914L77.9297-39.3066L67.9688-58.6426C66.2109-62.207 64.1602-63.3789 60.9863-63.3789C56.5918-63.3789 53.418-60.2539 53.418-56.1523C53.418-54.4434 53.9062-52.832 54.8828-51.1719L67.334-30.7617L59.8145-30.7617C58.1543-30.7617 57.0801-29.6387 57.0801-28.125C57.0801-26.5625 58.1543-25.4395 59.8145-25.4395L70.459-25.4395L70.459-21.3379L59.8145-21.3379C58.1543-21.3379 57.0801-20.2637 57.0801-18.7012C57.0801-17.1387 58.1543-16.0156 59.8145-16.0156L70.459-16.0156L70.459-13.2324C70.459-8.39844 73.1445-5.46875 77.8809-5.46875Z"/>
  </g>
  <g id="Heavy-L" transform="matrix(1 0 0 1 2559.93 1556)">
   <path d="M38.8184 25.4883L114.697 25.4883C129.346 25.4883 137.451 17.4316 137.451 2.88086L137.451-73.2422C137.451-87.793 129.346-95.8496 114.697-95.8496L38.8184-95.8496C24.2188-95.8496 16.0645-87.793 16.0645-73.2422L16.0645 2.88086C16.0645 17.4316 24.2188 25.4883 38.8184 25.4883ZM40.918 8.00781C36.084 8.00781 33.5938 5.71289 33.5938 0.585938L33.5938-70.9473C33.5938-76.0742 36.084-78.3691 40.918-78.3691L112.549-78.3691C117.383-78.3691 119.922-76.0742 119.922-70.9473L119.922 0.585938C119.922 5.71289 117.383 8.00781 112.549 8.00781ZM76.8066-5.12695C80.9082-5.12695 83.2031-7.71484 83.2031-11.9629L83.2031-16.4062L94.2383-16.4062C95.8984-16.4062 96.9727-17.5293 96.9727-19.0918C96.9727-20.6543 95.8984-21.7773 94.2383-21.7773L83.2031-21.7773L83.2031-26.0742L94.2383-26.0742C95.8984-26.0742 96.9727-27.1973 96.9727-28.7598C96.9727-30.3223 95.8984-31.4453 94.2383-31.4453L86.2305-31.4453L99.3652-52.9297C100.244-54.3945 100.684-55.8105 100.684-57.3242C100.684-60.8398 97.9004-63.5254 94.1895-63.5254C91.6016-63.5254 89.5996-62.3535 88.1836-59.4727L76.9043-38.5742L65.5762-59.4727C64.0625-62.5 62.2559-63.4766 59.5215-63.4766C55.6641-63.4766 52.8809-60.791 52.8809-57.2266C52.8809-55.7129 53.3203-54.2969 54.1504-52.8809L67.334-31.4453L59.5215-31.4453C57.8613-31.4453 56.7871-30.3223 56.7871-28.7598C56.7871-27.1973 57.8613-26.0742 59.5215-26.0742L70.3613-26.0742L70.3613-21.7773L59.5215-21.7773C57.8613-21.7773 56.7871-20.6543 56.7871-19.0918C56.7871-17.5293 57.8613-16.4062 59.5215-16.4062L70.3613-16.4062L70.3613-11.9141C70.3613-7.71484 72.7539-5.12695 76.8066-5.12695Z"/>
  </g>
  <g id="Bold-L" transform="matrix(1 0 0 1 2264.37 1556)">
   <path d="M37.5 24.3652L113.721 24.3652C127.637 24.3652 135.156 16.8945 135.156 3.07617L135.156-73.3887C135.156-87.207 127.637-94.7266 113.721-94.7266L37.5-94.7266C23.6328-94.7266 16.0645-87.2559 16.0645-73.3887L16.0645 3.07617C16.0645 16.8945 23.6328 24.3652 37.5 24.3652ZM38.9648 9.91211C33.4473 9.91211 30.5176 7.17773 30.5176 1.41602L30.5176-71.7285C30.5176-77.5391 33.4473-80.2734 38.9648-80.2734L112.256-80.2734C117.725-80.2734 120.703-77.5391 120.703-71.7285L120.703 1.41602C120.703 7.17773 117.725 9.91211 112.256 9.91211ZM75.6836-4.73633C79.0527-4.73633 81.0547-6.93359 81.0547-10.4492L81.0547-16.7969L92.3828-16.7969C94.043-16.7969 95.1172-17.9688 95.1172-19.5312C95.1172-21.0938 94.043-22.2656 92.3828-22.2656L81.0547-22.2656L81.0547-26.7578L92.3828-26.7578C94.043-26.7578 95.1172-27.9297 95.1172-29.4922C95.1172-31.0547 94.043-32.2266 92.3828-32.2266L83.9355-32.2266L97.9004-54.834C98.6328-56.0059 99.0234-57.1777 99.0234-58.4473C99.0234-61.377 96.6797-63.623 93.5059-63.623C91.4062-63.623 89.7461-62.6953 88.5742-60.3516L75.7324-37.7441L62.8906-60.4004C61.6211-62.793 60.1074-63.6719 57.8125-63.6719C54.6387-63.6719 52.2949-61.377 52.2949-58.3984C52.2949-57.1289 52.6367-55.957 53.3691-54.7852L67.334-32.2266L59.1797-32.2266C57.5684-32.2266 56.4453-31.0547 56.4453-29.4922C56.4453-27.9297 57.5684-26.7578 59.1797-26.7578L70.2637-26.7578L70.2637-22.2656L59.1797-22.2656C57.5684-22.2656 56.4453-21.0938 56.4453-19.5312C56.4453-17.9688 57.5684-16.7969 59.1797-16.7969L70.2637-16.7969L70.2637-10.498C70.2637-6.93359 72.3145-4.73633 75.6836-4.73633Z"/>
  </g>
  <g id="Semibold-L" transform="matrix(1 0 0 1 1968.44 1556)">
   <path d="M36.6211 23.584L113.037 23.584C126.514 23.584 133.594 16.5039 133.594 3.17383L133.594-73.5352C133.594-86.8164 126.514-93.9453 113.037-93.9453L36.6211-93.9453C23.1934-93.9453 16.0645-86.8652 16.0645-73.5352L16.0645 3.17383C16.0645 16.5527 23.1934 23.584 36.6211 23.584ZM37.5977 11.2793C31.6406 11.2793 28.418 8.20312 28.418 1.95312L28.418-72.3145C28.418-78.5156 31.6406-81.5918 37.5977-81.5918L112.061-81.5918C117.969-81.5918 121.24-78.5156 121.24-72.3145L121.24 1.95312C121.24 8.20312 117.969 11.2793 112.061 11.2793ZM74.9023-4.49219C77.7832-4.49219 79.5898-6.39648 79.5898-9.47266L79.5898-17.0898L91.1133-17.0898C92.7246-17.0898 93.7988-18.2617 93.7988-19.8242C93.7988-21.3867 92.7246-22.6074 91.1133-22.6074L79.5898-22.6074L79.5898-27.2461L91.1133-27.2461C92.7246-27.2461 93.7988-28.4668 93.7988-30.0293C93.7988-31.5918 92.7246-32.7637 91.1133-32.7637L82.373-32.7637L96.875-56.1035C97.5098-57.1289 97.8516-58.1543 97.8516-59.2285C97.8516-61.7676 95.8008-63.7207 93.0664-63.7207C91.2598-63.7207 89.8438-62.9395 88.7695-60.9863L74.9023-37.1582L61.0352-60.9863C59.9121-63.0371 58.5938-63.7695 56.6895-63.7695C53.9551-63.7695 51.9043-61.8164 51.9043-59.2285C51.9043-58.1055 52.1973-57.1289 52.832-56.1035L67.334-32.7637L58.9844-32.7637C57.3242-32.7637 56.25-31.5918 56.25-30.0293C56.25-28.4668 57.3242-27.2461 58.9844-27.2461L70.166-27.2461L70.166-22.6074L58.9844-22.6074C57.3242-22.6074 56.25-21.3867 56.25-19.8242C56.25-18.2617 57.3242-17.0898 58.9844-17.0898L70.166-17.0898L70.166-9.47266C70.166-6.44531 72.0215-4.49219 74.9023-4.49219Z"/>
  </g>
  <g id="Medium-L" transform="matrix(1 0 0 1 1672.31 1556)">
   <path d="M35.9375 22.998L112.5 22.998C125.635 22.998 132.422 16.2109 132.422 3.27148L132.422-73.6328C132.422-86.5234 125.635-93.3105 112.5-93.3105L35.9375-93.3105C22.9004-93.3105 16.0645-86.5723 16.0645-73.6328L16.0645 3.27148C16.0645 16.2598 22.9004 22.998 35.9375 22.998ZM36.5723 12.2559C30.2246 12.2559 26.8066 8.98438 26.8066 2.39258L26.8066-72.7051C26.8066-79.2969 30.2246-82.6172 36.5723-82.6172L111.865-82.6172C118.115-82.6172 121.68-79.2969 121.68-72.7051L121.68 2.39258C121.68 8.98438 118.115 12.2559 111.865 12.2559ZM74.2676-4.29688C76.8066-4.29688 78.4668-6.00586 78.4668-8.69141L78.4668-17.2852L90.1367-17.2852C91.748-17.2852 92.8711-18.5059 92.8711-20.0684C92.8711-21.6309 91.748-22.8516 90.1367-22.8516L78.4668-22.8516L78.4668-27.6367L90.1367-27.6367C91.748-27.6367 92.8711-28.8574 92.8711-30.4199C92.8711-31.9824 91.748-33.1543 90.1367-33.1543L81.1523-33.1543L96.0938-57.0801C96.6797-58.0078 96.9727-58.8379 96.9727-59.8145C96.9727-62.0605 95.166-63.8184 92.7734-63.8184C91.1133-63.8184 89.8926-63.1348 88.9648-61.4258L74.3164-36.7188L59.6191-61.4746C58.6426-63.1836 57.4707-63.8184 55.8105-63.8184C53.418-63.8184 51.5625-62.1094 51.5625-59.8633C51.5625-58.8379 51.8555-58.0078 52.4414-57.0801L67.3828-33.1543L58.7891-33.1543C57.1777-33.1543 56.0547-31.9824 56.0547-30.4199C56.0547-28.8574 57.1777-27.6367 58.7891-27.6367L70.1172-27.6367L70.1172-22.8516L58.7891-22.8516C57.1777-22.8516 56.0547-21.6309 56.0547-20.0684C56.0547-18.5059 57.1777-17.2852 58.7891-17.2852L70.1172-17.2852L70.1172-8.69141C70.1172-6.05469 71.7773-4.29688 74.2676-4.29688Z"/>
  </g>
  <g id="Regular-L" transform="matrix(1 0 0 1 1376.38 1556)">
   <path d="M35.0586 22.2168L111.816 22.2168C124.463 22.2168 130.859 15.8691 130.859 3.41797L130.859-73.7305C130.859-86.1816 124.463-92.5293 111.816-92.5293L35.0586-92.5293C22.4609-92.5293 16.0645-86.2305 16.0645-73.7305L16.0645 3.41797C16.0645 15.918 22.4609 22.2168 35.0586 22.2168ZM35.2539 13.5742C28.418 13.5742 24.707 9.96094 24.707 2.97852L24.707-73.291C24.707-80.2734 28.418-83.8867 35.2539-83.8867L111.67-83.8867C118.359-83.8867 122.217-80.2734 122.217-73.291L122.217 2.97852C122.217 9.96094 118.359 13.5742 111.67 13.5742ZM73.4863-4.05273C75.5371-4.05273 77.002-5.46875 77.002-7.66602L77.002-17.5781L88.8672-17.5781C90.4785-17.5781 91.6016-18.7988 91.6016-20.3613C91.6016-21.9727 90.4785-23.1934 88.8672-23.1934L77.002-23.1934L77.002-28.125L88.8672-28.125C90.4785-28.125 91.6016-29.3457 91.6016-30.9082C91.6016-32.4707 90.4785-33.6914 88.8672-33.6914L79.5898-33.6914L95.1172-58.3496C95.6055-59.1309 95.8008-59.8145 95.8008-60.5957C95.8008-62.4512 94.3359-63.916 92.334-63.916C90.9668-63.916 89.9902-63.3789 89.209-62.0605L73.5352-36.1816L57.7637-62.1094C56.9824-63.4277 56.0059-63.9648 54.6875-63.9648C52.6855-63.9648 51.1719-62.5 51.1719-60.6934C51.1719-59.8145 51.416-59.1309 51.9043-58.3984L67.3828-33.6914L58.5938-33.6914C56.9336-33.6914 55.8594-32.4707 55.8594-30.9082C55.8594-29.3457 56.9824-28.125 58.5938-28.125L70.0195-28.125L70.0195-23.1934L58.5938-23.1934C56.9336-23.1934 55.8594-21.9727 55.8594-20.3613C55.8594-18.7988 56.9824-17.5781 58.5938-17.5781L70.0195-17.5781L70.0195-7.71484C70.0195-5.51758 71.4844-4.05273 73.4863-4.05273Z"/>
  </g>
  <g id="Light-L" transform="matrix(1 0 0 1 1080.5 1556)">
   <path d="M34.0332 21.4355L111.23 21.4355C123.096 21.4355 129.199 15.2344 129.199 3.56445L129.199-73.8281C129.199-85.5469 123.096-91.6992 111.23-91.6992L34.0332-91.6992C22.168-91.6992 16.0645-85.6445 16.0645-73.8281L16.0645 3.56445C16.0645 15.3809 22.168 21.4355 34.0332 21.4355ZM34.1797 14.7949C26.709 14.7949 22.7051 10.8398 22.7051 3.22266L22.7051-73.4863C22.7051-81.1523 26.709-85.0586 34.1797-85.0586L111.035-85.0586C118.359-85.0586 122.559-81.1523 122.559-73.4863L122.559 3.22266C122.559 10.8398 118.359 14.7949 111.035 14.7949ZM72.7051-4.98047C74.3164-4.98047 75.4883-6.05469 75.4883-7.86133L75.4883-18.7988L87.6465-18.7988C88.9648-18.7988 89.8926-19.8242 89.8926-21.1426C89.8926-22.4609 88.9648-23.4863 87.6465-23.4863L75.4883-23.4863L75.4883-28.6133L87.6465-28.6133C88.9648-28.6133 89.8926-29.6387 89.8926-30.957C89.8926-32.2754 88.9648-33.3008 87.6465-33.3008L77.7344-33.3008L93.457-57.959C93.8477-58.5449 94.043-59.1309 94.043-59.8145C94.043-61.2793 92.8711-62.4512 91.2598-62.4512C90.1855-62.4512 89.4043-62.0117 88.7695-60.9375L72.6562-35.1074L56.543-60.9375C55.9082-62.0605 55.127-62.5 54.0527-62.5C52.4902-62.5 51.2695-61.3281 51.2695-59.8633C51.2695-59.1309 51.5137-58.5449 51.8555-58.0078L67.5781-33.3008L58.4961-33.3008C57.1777-33.3008 56.25-32.2754 56.25-30.957C56.25-29.6387 57.1289-28.6133 58.4961-28.6133L69.873-28.6133L69.873-23.4863L58.4961-23.4863C57.1777-23.4863 56.25-22.4609 56.25-21.1426C56.25-19.8242 57.1289-18.7988 58.4961-18.7988L69.873-18.7988L69.873-7.91016C69.873-6.10352 71.0938-4.98047 72.7051-4.98047Z"/>
  </g>
  <g id="Thin-L" transform="matrix(1 0 0 1 784.889 1556)">
   <path d="M32.666 20.3613L110.352 20.3613C121.24 20.3613 127.002 14.4531 127.002 3.75977L127.002-73.9746C127.002-84.7168 121.24-90.5762 110.352-90.5762L32.666-90.5762C21.7773-90.5762 16.0645-84.8633 16.0645-73.9746L16.0645 3.75977C16.0645 14.6484 21.7773 20.3613 32.666 20.3613ZM32.8125 16.4062C24.4141 16.4062 19.9707 12.0117 19.9707 3.56445L19.9707-73.7793C19.9707-82.2754 24.4141-86.6699 32.8125-86.6699L110.205-86.6699C118.359-86.6699 123.047-82.2754 123.047-73.7793L123.047 3.56445C123.047 12.0117 118.359 16.4062 110.205 16.4062ZM71.6309-6.15234C72.7539-6.15234 73.4863-6.83594 73.4863-8.10547L73.4863-20.3613L85.9863-20.3613C87.0117-20.3613 87.6953-21.1426 87.6953-22.1191C87.6953-23.0957 87.0117-23.877 85.9863-23.877L73.4863-23.877L73.4863-29.248L85.9863-29.248C87.0117-29.248 87.6953-30.0293 87.6953-31.0059C87.6953-31.9824 87.0117-32.7637 85.9863-32.7637L75.293-32.7637L91.3086-57.4219C91.5527-57.8125 91.748-58.252 91.748-58.6914C91.748-59.7168 90.9668-60.5469 89.8926-60.5469C89.1602-60.5469 88.6719-60.2539 88.1348-59.4727L71.5332-33.6426L54.9805-59.4727C54.4434-60.2539 53.9551-60.5469 53.2227-60.5469C52.1973-60.5469 51.3672-59.8145 51.3672-58.7891C51.3672-58.2031 51.6113-57.7637 51.8066-57.4707L67.8223-32.7637L58.3984-32.7637C57.4219-32.7637 56.7383-31.9824 56.7383-31.0059C56.7383-30.0293 57.373-29.248 58.3984-29.248L69.6777-29.248L69.6777-23.877L58.3984-23.877C57.4219-23.877 56.7383-23.0957 56.7383-22.1191C56.7383-21.1426 57.373-20.3613 58.3984-20.3613L69.6777-20.3613L69.6777-8.10547C69.6777-6.83594 70.6055-6.15234 71.6309-6.15234Z"/>
  </g>
  <g id="Ultralight-L" transform="matrix(1 0 0 1 488.739 1556)">
   <path d="M31.9824 19.7754L109.961 19.7754C120.312 19.7754 125.879 14.0625 125.879 3.85742L125.879-74.0723C125.879-84.2773 120.312-89.9902 109.961-89.9902L31.9824-89.9902C21.582-89.9902 16.0645-84.4727 16.0645-74.0723L16.0645 3.85742C16.0645 14.2578 21.582 19.7754 31.9824 19.7754ZM32.1289 17.2363C23.1934 17.2363 18.6035 12.6465 18.6035 3.75977L18.6035-73.9258C18.6035-82.8125 23.1934-87.4512 32.1289-87.4512L109.766-87.4512C118.359-87.4512 123.291-82.8125 123.291-73.9258L123.291 3.75977C123.291 12.6465 118.359 17.2363 109.766 17.2363ZM71.0938-6.78711C71.9238-6.78711 72.4609-7.22656 72.4609-8.25195L72.4609-21.1914L85.1562-21.1914C85.9863-21.1914 86.5723-21.8262 86.5723-22.6562C86.5723-23.4375 85.9863-24.1211 85.1562-24.1211L72.4609-24.1211L72.4609-29.541L85.1562-29.541C85.9863-29.541 86.5723-30.2246 86.5723-31.0059C86.5723-31.8359 85.9863-32.4707 85.1562-32.4707L74.0234-32.4707L90.1855-57.1777C90.3809-57.4219 90.5762-57.8125 90.5762-58.1543C90.5762-58.9355 89.9902-59.5703 89.1602-59.5703C88.623-59.5703 88.2812-59.375 87.8418-58.6914L70.9961-32.9102L54.1504-58.6914C53.7109-59.375 53.3691-59.5703 52.7832-59.5703C52.0508-59.5703 51.416-59.0332 51.416-58.252C51.416-57.7148 51.6602-57.373 51.8066-57.1777L67.9688-32.4707L58.3496-32.4707C57.5684-32.4707 56.9824-31.8359 56.9824-31.0059C56.9824-30.2246 57.4707-29.541 58.3496-29.541L69.6289-29.541L69.6289-24.1211L58.3496-24.1211C57.5684-24.1211 56.9824-23.4375 56.9824-22.6562C56.9824-21.8262 57.4707-21.1914 58.3496-21.1914L69.6289-21.1914L69.6289-8.20312C69.6289-7.22656 70.3125-6.78711 71.0938-6.78711Z"/>
  </g>
  <g id="Black-M" transform="matrix(1 0 0 1 2872.19 1126)">
   <path d="M31.9824 13.5742L90.4297 13.5742C102.686 13.5742 109.961 6.29883 109.961-5.95703L109.961-64.4043C109.961-76.6602 102.686-83.9355 90.4297-83.9355L31.9824-83.9355C19.7266-83.9355 12.4512-76.6602 12.4512-64.4043L12.4512-5.95703C12.4512 6.29883 19.7266 13.5742 31.9824 13.5742ZM34.9121-4.73633C32.0801-4.73633 30.7617-5.81055 30.7617-8.88672L30.7617-61.4746C30.7617-64.5508 32.0801-65.6738 34.9121-65.6738L87.5-65.6738C90.332-65.6738 91.6504-64.5508 91.6504-61.4746L91.6504-8.88672C91.6504-5.81055 90.332-4.73633 87.5-4.73633ZM61.2793-13.0859C65.5762-13.0859 67.7734-15.7227 67.7734-20.0684L67.7734-20.5078L75.8301-20.5078C77.002-20.5078 77.7832-21.2402 77.7832-22.2656C77.7832-23.3398 77.002-24.0723 75.8301-24.0723L67.7734-24.0723L67.7734-27.0508L75.8301-27.0508C77.002-27.0508 77.7832-27.7832 77.7832-28.8086C77.7832-29.8828 77.002-30.6152 75.8301-30.6152L70.1172-30.6152L78.9062-45.2148C79.7852-46.6797 80.2734-48.1934 80.2734-49.7559C80.2734-53.418 77.4414-56.1035 73.6328-56.1035C70.9473-56.1035 68.8965-54.8828 67.4316-51.7578L61.3281-38.7695L55.2246-51.709C53.6621-55.0293 51.8555-56.0547 48.9258-56.0547C44.9707-56.0547 42.1387-53.2715 42.1387-49.5605C42.1387-48.0469 42.5781-46.5332 43.457-45.0684L52.2461-30.6152L46.6797-30.6152C45.5078-30.6152 44.7754-29.8828 44.7754-28.8086C44.7754-27.7832 45.5078-27.0508 46.6797-27.0508L54.6387-27.0508L54.6387-24.0723L46.6797-24.0723C45.5078-24.0723 44.7754-23.3398 44.7754-22.2656C44.7754-21.2402 45.5078-20.5078 46.6797-20.5078L54.6387-20.5078L54.6387-20.0195C54.6387-15.6738 56.9824-13.0859 61.2793-13.0859Z"/>
  </g>
  <g id="Heavy-M" transform="matrix(1 0 0 1 2576.39 1126)">
   <path d="M31.0059 12.6465L89.6484 12.6465C101.416 12.6465 108.154 5.9082 108.154-5.81055L108.154-64.5508C108.154-76.2695 101.416-83.0566 89.6484-83.0566L31.0059-83.0566C19.2383-83.0566 12.4512-76.3184 12.4512-64.5508L12.4512-5.81055C12.4512 5.9082 19.2383 12.6465 31.0059 12.6465ZM33.252-3.17383C29.9316-3.17383 28.2715-4.63867 28.2715-8.1543L28.2715-62.207C28.2715-65.7715 29.9316-67.2363 33.252-67.2363L87.3535-67.2363C90.6738-67.2363 92.334-65.7715 92.334-62.207L92.334-8.1543C92.334-4.63867 90.6738-3.17383 87.3535-3.17383ZM60.3516-12.5C64.0625-12.5 66.0645-14.7949 66.0645-18.6035L66.0645-20.6055L74.3652-20.6055C75.5859-20.6055 76.3672-21.3867 76.3672-22.5098C76.3672-23.6328 75.5859-24.4629 74.3652-24.4629L66.0645-24.4629L66.0645-27.6367L74.3652-27.6367C75.5859-27.6367 76.3672-28.418 76.3672-29.541C76.3672-30.6641 75.5859-31.4941 74.3652-31.4941L68.4082-31.4941L77.9297-47.1191C78.6621-48.3887 79.1016-49.707 79.1016-51.0742C79.1016-54.248 76.6113-56.6406 73.291-56.6406C70.9961-56.6406 69.1895-55.5664 67.9199-52.9297L60.4492-38.2812L52.9297-52.8809C51.5625-55.7129 49.9512-56.5918 47.4609-56.5918C44.043-56.5918 41.5527-54.1504 41.5527-50.9277C41.5527-49.6094 41.9434-48.3398 42.6758-47.0703L52.1973-31.4941L46.4355-31.4941C45.166-31.4941 44.3848-30.6641 44.3848-29.541C44.3848-28.418 45.166-27.6367 46.4355-27.6367L54.5898-27.6367L54.5898-24.4629L46.4355-24.4629C45.166-24.4629 44.3848-23.6328 44.3848-22.5098C44.3848-21.3867 45.166-20.6055 46.4355-20.6055L54.5898-20.6055L54.5898-18.5547C54.5898-14.7949 56.6895-12.5 60.3516-12.5Z"/>
  </g>
  <g id="Bold-M" transform="matrix(1 0 0 1 2280.68 1126)">
   <path d="M29.8828 11.6699L88.7207 11.6699C99.9512 11.6699 106.152 5.46875 106.152-5.66406L106.152-64.6973C106.152-75.8789 99.9512-82.0312 88.7207-82.0312L29.8828-82.0312C18.6523-82.0312 12.4512-75.8789 12.4512-64.6973L12.4512-5.66406C12.4512 5.51758 18.6523 11.6699 29.8828 11.6699ZM31.3965-1.41602C27.5391-1.41602 25.5371-3.27148 25.5371-7.32422L25.5371-63.0371C25.5371-67.1387 27.5391-68.9453 31.3965-68.9453L87.207-68.9453C91.0156-68.9453 93.0664-67.1387 93.0664-63.0371L93.0664-7.32422C93.0664-3.27148 91.0156-1.41602 87.207-1.41602ZM59.375-11.8164C62.4023-11.8164 64.1602-13.7695 64.1602-16.9434L64.1602-20.7031L72.7051-20.7031C74.0234-20.7031 74.8535-21.582 74.8535-22.8027C74.8535-23.9746 74.0234-24.9023 72.7051-24.9023L64.1602-24.9023L64.1602-28.2227L72.7051-28.2227C74.0234-28.2227 74.8535-29.1504 74.8535-30.3223C74.8535-31.543 74.0234-32.4707 72.7051-32.4707L66.4551-32.4707L76.8066-49.2676C77.4414-50.3418 77.7832-51.416 77.7832-52.5391C77.7832-55.1758 75.6836-57.1777 72.9004-57.1777C70.9961-57.1777 69.4824-56.2988 68.4082-54.1992L59.4238-37.6953L50.3906-54.1992C49.2676-56.4453 47.9004-57.1777 45.8496-57.1777C42.9688-57.1777 40.8691-55.1758 40.8691-52.4902C40.8691-51.3672 41.2109-50.293 41.8457-49.2676L52.1973-32.4707L46.0938-32.4707C44.7754-32.4707 43.9453-31.543 43.9453-30.3223C43.9453-29.1504 44.8242-28.2227 46.0938-28.2227L54.541-28.2227L54.541-24.9023L46.0938-24.9023C44.7754-24.9023 43.9453-23.9746 43.9453-22.8027C43.9453-21.582 44.8242-20.7031 46.0938-20.7031L54.541-20.7031L54.541-16.8945C54.541-13.7695 56.2988-11.8164 59.375-11.8164Z"/>
  </g>
  <g id="Semibold-M" transform="matrix(1 0 0 1 1984.65 1126)">
   <path d="M29.1016 10.9863L88.0859 10.9863C98.9746 10.9863 104.785 5.17578 104.785-5.56641L104.785-64.8438C104.785-75.5859 98.9746-81.3477 88.0859-81.3477L29.1016-81.3477C18.2617-81.3477 12.4512-75.5859 12.4512-64.8438L12.4512-5.56641C12.4512 5.22461 18.2617 10.9863 29.1016 10.9863ZM30.127-0.195312C25.8789-0.195312 23.6328-2.34375 23.6328-6.78711L23.6328-63.623C23.6328-68.0664 25.8789-70.166 30.127-70.166L87.1094-70.166C91.2598-70.166 93.6035-68.0664 93.6035-63.623L93.6035-6.78711C93.6035-2.34375 91.2598-0.195312 87.1094-0.195312ZM58.6914-11.377C61.2793-11.377 62.8418-13.0859 62.8418-15.7715L62.8418-20.752L71.582-20.752C72.9492-20.752 73.8281-21.6797 73.8281-22.9492C73.8281-24.2188 72.9492-25.1953 71.582-25.1953L62.8418-25.1953L62.8418-28.6621L71.582-28.6621C72.9492-28.6621 73.8281-29.6387 73.8281-30.9082C73.8281-32.1777 72.9492-33.1055 71.582-33.1055L65.1367-33.1055L76.0254-50.7812C76.6113-51.709 76.8555-52.5879 76.8555-53.5645C76.8555-55.8594 75.0488-57.5684 72.6074-57.5684C70.9961-57.5684 69.7266-56.8359 68.7988-55.0781L58.6914-37.3047L48.584-55.0781C47.6562-56.9336 46.4355-57.6172 44.7266-57.6172C42.2363-57.6172 40.4297-55.8594 40.4297-53.5645C40.4297-52.5879 40.7227-51.709 41.2598-50.7812L52.1484-33.1055L45.8496-33.1055C44.5312-33.1055 43.6523-32.1777 43.6523-30.9082C43.6523-29.6387 44.5312-28.6621 45.8496-28.6621L54.4922-28.6621L54.4922-25.1953L45.8496-25.1953C44.5312-25.1953 43.6523-24.2188 43.6523-22.9492C43.6523-21.6797 44.5312-20.752 45.8496-20.752L54.4922-20.752L54.4922-15.7715C54.4922-13.0859 56.0547-11.377 58.6914-11.377Z"/>
  </g>
  <g id="Medium-M" transform="matrix(1 0 0 1 1688.47 1126)">
   <path d="M28.5156 10.4492L87.6465 10.4492C98.2422 10.4492 103.711 4.98047 103.711-5.46875L103.711-64.8926C103.711-75.3418 98.2422-80.8105 87.6465-80.8105L28.5156-80.8105C17.9688-80.8105 12.4512-75.3906 12.4512-64.8926L12.4512-5.46875C12.4512 4.98047 17.9688 10.4492 28.5156 10.4492ZM29.1504 0.732422C24.6582 0.732422 22.168-1.61133 22.168-6.34766L22.168-64.0137C22.168-68.75 24.6582-71.0938 29.1504-71.0938L87.0117-71.0938C91.4551-71.0938 93.9941-68.75 93.9941-64.0137L93.9941-6.34766C93.9941-1.61133 91.4551 0.732422 87.0117 0.732422ZM58.1543-11.0352C60.4004-11.0352 61.8652-12.5488 61.8652-14.8926L61.8652-20.8008L70.752-20.8008C72.1191-20.8008 72.998-21.7773 72.998-23.0957C72.998-24.4141 72.1191-25.3906 70.752-25.3906L61.8652-25.3906L61.8652-29.0039L70.752-29.0039C72.1191-29.0039 72.998-29.9805 72.998-31.2988C72.998-32.6172 72.1191-33.6426 70.752-33.6426L64.1113-33.6426L75.4395-51.9043C75.9277-52.7344 76.1719-53.4668 76.1719-54.3457C76.1719-56.3477 74.5605-57.8613 72.4121-57.8613C70.9961-57.8613 69.873-57.2754 69.0918-55.7617L58.2031-36.9629L47.2656-55.8105C46.4355-57.3242 45.3613-57.9102 43.8477-57.9102C41.6992-57.9102 40.0879-56.3477 40.0879-54.3457C40.0879-53.5156 40.332-52.7344 40.8203-51.9043L52.1484-33.6426L45.7031-33.6426C44.3359-33.6426 43.4082-32.6172 43.4082-31.2988C43.4082-29.9805 44.3359-29.0039 45.7031-29.0039L54.4434-29.0039L54.4434-25.3906L45.7031-25.3906C44.3359-25.3906 43.4082-24.4141 43.4082-23.0957C43.4082-21.7773 44.3359-20.8008 45.7031-20.8008L54.4434-20.8008L54.4434-14.9414C54.4434-12.5488 55.9082-11.0352 58.1543-11.0352Z"/>
  </g>
  <g id="Regular-M" transform="matrix(1 0 0 1 1392.45 1126)">
   <path d="M27.7832 9.76562L87.0117 9.76562C97.2656 9.76562 102.344 4.6875 102.344-5.37109L102.344-64.9902C102.344-75.0488 97.2656-80.127 87.0117-80.127L27.7832-80.127C17.5781-80.127 12.4512-75.0977 12.4512-64.9902L12.4512-5.37109C12.4512 4.73633 17.5781 9.76562 27.7832 9.76562ZM27.8809 1.9043C22.998 1.9043 20.3125-0.683594 20.3125-5.76172L20.3125-64.5996C20.3125-69.6777 22.998-72.2656 27.8809-72.2656L86.9141-72.2656C91.748-72.2656 94.4824-69.6777 94.4824-64.5996L94.4824-5.76172C94.4824-0.683594 91.748 1.9043 86.9141 1.9043ZM57.4707-10.5469C59.2773-10.5469 60.5469-11.8164 60.5469-13.7695L60.5469-20.8496L69.6289-20.8496C71.0449-20.8496 71.9727-21.9238 71.9727-23.291C71.9727-24.6582 71.0449-25.6836 69.6289-25.6836L60.5469-25.6836L60.5469-29.4434L69.6289-29.4434C71.0449-29.4434 71.9727-30.4688 71.9727-31.8359C71.9727-33.252 71.0449-34.2773 69.6289-34.2773L62.793-34.2773L74.6582-53.3691C75.0977-54.0527 75.293-54.6387 75.293-55.3711C75.293-56.9824 73.9258-58.252 72.168-58.252C70.9961-58.252 70.1172-57.7637 69.4336-56.6406L57.4707-36.5723L45.5078-56.6895C44.8242-57.8125 43.9453-58.3008 42.7734-58.3008C41.0156-58.3008 39.6484-57.0312 39.6484-55.4199C39.6484-54.6875 39.8438-54.1016 40.2344-53.418L52.1484-34.2773L45.459-34.2773C44.043-34.2773 43.1152-33.252 43.1152-31.8359C43.1152-30.4688 44.0918-29.4434 45.459-29.4434L54.3945-29.4434L54.3945-25.6836L45.459-25.6836C44.043-25.6836 43.1152-24.6582 43.1152-23.291C43.1152-21.9238 44.0918-20.8496 45.459-20.8496L54.3945-20.8496L54.3945-13.8184C54.3945-11.8652 55.6641-10.5469 57.4707-10.5469Z"/>
  </g>
  <g id="Light-M" transform="matrix(1 0 0 1 1096.47 1126)">
   <path d="M26.8555 9.0332L86.4746 9.0332C95.9961 9.0332 100.879 4.15039 100.879-5.22461L100.879-65.0879C100.879-74.5117 95.9961-79.3945 86.4746-79.3945L26.8555-79.3945C17.334-79.3945 12.4512-74.5605 12.4512-65.0879L12.4512-5.22461C12.4512 4.19922 17.334 9.0332 26.8555 9.0332ZM26.9531 2.97852C21.4844 2.97852 18.5059 0.0976562 18.5059-5.56641L18.5059-64.7949C18.5059-70.4102 21.4844-73.3398 26.9531-73.3398L86.3281-73.3398C91.748-73.3398 94.8242-70.4102 94.8242-64.7949L94.8242-5.56641C94.8242 0.0976562 91.748 2.97852 86.3281 2.97852ZM56.7383-11.377C58.1543-11.377 59.1797-12.3535 59.1797-13.916L59.1797-21.9238L68.5059-21.9238C69.6777-21.9238 70.459-22.8516 70.459-23.9746C70.459-25.0977 69.6777-25.9766 68.5059-25.9766L59.1797-25.9766L59.1797-29.8828L68.5059-29.8828C69.6777-29.8828 70.459-30.7617 70.459-31.8848C70.459-33.0078 69.6777-33.9355 68.5059-33.9355L61.1328-33.9355L73.1934-53.0273C73.5352-53.5645 73.6816-54.0527 73.6816-54.6387C73.6816-55.9082 72.6562-56.9824 71.2402-56.9824C70.2637-56.9824 69.5801-56.5918 68.9941-55.6641L56.7383-35.5957L44.3848-55.6641C43.8477-56.6406 43.1152-56.9824 42.1875-56.9824C40.7715-56.9824 39.6973-56.0059 39.6973-54.6875C39.6973-54.0527 39.8926-53.5645 40.2344-53.0273L52.2949-33.9355L45.4102-33.9355C44.2383-33.9355 43.457-33.0078 43.457-31.8848C43.457-30.7617 44.2383-29.8828 45.4102-29.8828L54.248-29.8828L54.248-25.9766L45.4102-25.9766C44.2383-25.9766 43.457-25.0977 43.457-23.9746C43.457-22.8516 44.2383-21.9238 45.4102-21.9238L54.248-21.9238L54.248-13.9648C54.248-12.4023 55.2734-11.377 56.7383-11.377Z"/>
  </g>
  <g id="Thin-M" transform="matrix(1 0 0 1 800.758 1126)">
   <path d="M25.6348 8.05664L85.7422 8.05664C94.3848 8.05664 98.877 3.4668 98.877-5.0293L98.877-65.2344C98.877-73.7305 94.3848-78.3691 85.7422-78.3691L25.6348-78.3691C16.9922-78.3691 12.4512-73.877 12.4512-65.2344L12.4512-5.0293C12.4512 3.56445 16.9922 8.05664 25.6348 8.05664ZM25.7324 4.44336C19.3848 4.44336 16.0645 1.12305 16.0645-5.22461L16.0645-65.0391C16.0645-71.4355 19.3848-74.7559 25.7324-74.7559L85.5957-74.7559C91.748-74.7559 95.2637-71.4355 95.2637-65.0391L95.2637-5.22461C95.2637 1.12305 91.748 4.44336 85.5957 4.44336ZM55.7617-12.4512C56.7383-12.4512 57.373-13.0371 57.373-14.1602L57.373-23.3887L67.041-23.3887C67.8711-23.3887 68.457-24.0234 68.457-24.8535C68.457-25.6836 67.8711-26.3672 67.041-26.3672L57.373-26.3672L57.373-30.4199L67.041-30.4199C67.8711-30.4199 68.457-31.1035 68.457-31.9336C68.457-32.7637 67.8711-33.4473 67.041-33.4473L58.8867-33.4473L71.2402-52.5391C71.4844-52.8809 71.6309-53.2715 71.6309-53.6621C71.6309-54.541 70.9473-55.2734 69.9707-55.2734C69.3359-55.2734 68.8965-55.0293 68.457-54.3457L55.7129-34.3262L42.9688-54.3457C42.5293-55.0293 42.0898-55.2734 41.4551-55.2734C40.5273-55.2734 39.7949-54.5898 39.7949-53.7109C39.7949-53.2227 39.9902-52.832 40.1855-52.5879L52.5391-33.4473L45.3125-33.4473C44.4824-33.4473 43.8965-32.7637 43.8965-31.9336C43.8965-31.1035 44.4336-30.4199 45.3125-30.4199L54.0527-30.4199L54.0527-26.3672L45.3125-26.3672C44.4824-26.3672 43.8965-25.6836 43.8965-24.8535C43.8965-24.0234 44.4336-23.3887 45.3125-23.3887L54.0527-23.3887L54.0527-14.1602C54.0527-13.0859 54.834-12.4512 55.7617-12.4512Z"/>
  </g>
  <g id="Ultralight-M" transform="matrix(1 0 0 1 504.535 1126)">
   <path d="M25 7.56836L85.3516 7.56836C93.5059 7.56836 97.9004 3.125 97.9004-4.98047L97.9004-65.2832C97.9004-73.3887 93.5059-77.832 85.3516-77.832L25-77.832C16.7969-77.832 12.4512-73.4863 12.4512-65.2832L12.4512-4.98047C12.4512 3.22266 16.7969 7.56836 25 7.56836ZM25.0977 5.17578C18.3594 5.17578 14.8438 1.66016 14.8438-5.07812L14.8438-65.1855C14.8438-71.9727 18.3594-75.4395 25.0977-75.4395L85.2051-75.4395C91.748-75.4395 95.5078-71.9727 95.5078-65.1855L95.5078-5.07812C95.5078 1.66016 91.748 5.17578 85.2051 5.17578ZM55.2734-12.9883C56.0059-12.9883 56.4941-13.4277 56.4941-14.2578L56.4941-24.1211L66.2598-24.1211C66.9434-24.1211 67.4316-24.6582 67.4316-25.3418C67.4316-25.9766 66.9434-26.5625 66.2598-26.5625L56.4941-26.5625L56.4941-30.7129L66.2598-30.7129C66.9434-30.7129 67.4316-31.2988 67.4316-31.9824C67.4316-32.6172 66.9434-33.2031 66.2598-33.2031L57.7637-33.2031L70.2637-52.2949C70.4102-52.5391 70.5566-52.8809 70.5566-53.1738C70.5566-53.8574 70.0684-54.3945 69.3359-54.3945C68.8477-54.3945 68.5547-54.1992 68.1641-53.6621L55.1758-33.6426L42.2363-53.6621C41.8457-54.1992 41.5527-54.3945 41.0645-54.3945C40.3809-54.3945 39.8438-53.9062 39.8438-53.2227C39.8438-52.7832 40.0391-52.4902 40.1367-52.2949L52.6367-33.2031L45.2637-33.2031C44.5801-33.2031 44.0918-32.6172 44.0918-31.9824C44.0918-31.2988 44.5312-30.7129 45.2637-30.7129L54.0039-30.7129L54.0039-26.5625L45.2637-26.5625C44.5801-26.5625 44.0918-25.9766 44.0918-25.3418C44.0918-24.6582 44.5312-24.1211 45.2637-24.1211L54.0039-24.1211L54.0039-14.2578C54.0039-13.4277 54.5898-12.9883 55.2734-12.9883Z"/>
  </g>
  <g id="Black-S" transform="matrix(1 0 0 1 2885.5 696)">
   <path d="M25 2.92969L70.8008 2.92969C80.3711 2.92969 86.0352-2.73438 86.0352-12.3047L86.0352-58.1055C86.0352-67.6758 80.3711-73.3398 70.8008-73.3398L25-73.3398C15.4297-73.3398 9.76562-67.6758 9.76562-58.1055L9.76562-12.3047C9.76562-2.73438 15.4297 2.92969 25 2.92969ZM27.2461-11.2305C25-11.2305 23.9258-12.1094 23.9258-14.5508L23.9258-55.8594C23.9258-58.3008 25-59.1797 27.2461-59.1797L68.5547-59.1797C70.8008-59.1797 71.875-58.3008 71.875-55.8594L71.875-14.5508C71.875-12.1094 70.8008-11.2305 68.5547-11.2305ZM47.9492-17.8223C51.2695-17.8223 52.9785-19.873 52.9785-23.2422L52.9785-23.6816L59.3262-23.6816C60.2539-23.6816 60.8398-24.2676 60.8398-25.0977C60.8398-25.9277 60.2539-26.5137 59.3262-26.5137L52.9785-26.5137L52.9785-28.8574L59.3262-28.8574C60.2539-28.8574 60.8398-29.4434 60.8398-30.2734C60.8398-31.1035 60.2539-31.6895 59.3262-31.6895L54.834-31.6895L61.7676-43.2129C62.4512-44.3359 62.8418-45.5078 62.8418-46.7285C62.8418-49.5605 60.6445-51.6602 57.666-51.6602C55.6152-51.6602 54.0039-50.6836 52.8809-48.291L47.998-37.9883L43.1152-48.2422C41.8945-50.8301 40.4785-51.6113 38.2324-51.6113C35.1562-51.6113 32.959-49.4629 32.959-46.582C32.959-45.4102 33.3008-44.2383 33.9844-43.1152L40.918-31.6895L36.5723-31.6895C35.6445-31.6895 35.0586-31.1035 35.0586-30.2734C35.0586-29.4434 35.6445-28.8574 36.5723-28.8574L42.8223-28.8574L42.8223-26.5137L36.5723-26.5137C35.6445-26.5137 35.0586-25.9277 35.0586-25.0977C35.0586-24.2676 35.6445-23.6816 36.5723-23.6816L42.8223-23.6816L42.8223-23.1934C42.8223-19.8242 44.6289-17.8223 47.9492-17.8223Z"/>
  </g>
  <g id="Heavy-S" transform="matrix(1 0 0 1 2589.4 696)">
   <path d="M24.3652 2.34375L70.2637 2.34375C79.541 2.34375 84.8145-2.97852 84.8145-12.207L84.8145-58.2031C84.8145-67.4316 79.541-72.7539 70.2637-72.7539L24.3652-72.7539C15.0879-72.7539 9.76562-67.4316 9.76562-58.2031L9.76562-12.207C9.76562-2.97852 15.0879 2.34375 24.3652 2.34375ZM26.0742-10.1562C23.5352-10.1562 22.2656-11.2793 22.2656-14.0137L22.2656-56.3965C22.2656-59.1309 23.5352-60.2539 26.0742-60.2539L68.5059-60.2539C71.0449-60.2539 72.3633-59.1309 72.3633-56.3965L72.3633-14.0137C72.3633-11.2793 71.0449-10.1562 68.5059-10.1562ZM47.3145-17.2852C50.2441-17.2852 51.8066-19.0918 51.8066-22.0703L51.8066-23.6328L58.3008-23.6328C59.3262-23.6328 59.9609-24.2676 59.9609-25.1953C59.9609-26.123 59.3262-26.7578 58.3008-26.7578L51.8066-26.7578L51.8066-29.248L58.3008-29.248C59.3262-29.248 59.9609-29.8828 59.9609-30.8105C59.9609-31.7383 59.3262-32.373 58.3008-32.373L53.7109-32.373L61.1816-44.7266C61.7676-45.7031 62.1094-46.7285 62.1094-47.8027C62.1094-50.3418 60.1562-52.1973 57.5195-52.1973C55.7129-52.1973 54.2969-51.3672 53.2715-49.2676L47.3633-37.6953L41.4551-49.2676C40.4297-51.4648 39.1602-52.1484 37.1582-52.1484C34.4727-52.1484 32.5195-50.2441 32.5195-47.7051C32.5195-46.6797 32.8125-45.6543 33.3984-44.6777L40.8691-32.373L36.3281-32.373C35.3516-32.373 34.7168-31.7383 34.7168-30.8105C34.7168-29.8828 35.3516-29.248 36.3281-29.248L42.7734-29.248L42.7734-26.7578L36.3281-26.7578C35.3516-26.7578 34.7168-26.123 34.7168-25.1953C34.7168-24.2676 35.3516-23.6328 36.3281-23.6328L42.7734-23.6328L42.7734-22.0703C42.7734-19.0918 44.4336-17.2852 47.3145-17.2852Z"/>
  </g>
  <g id="Bold-S" transform="matrix(1 0 0 1 2293.35 696)">
   <path d="M23.6328 1.66016L69.6289 1.66016C78.6133 1.66016 83.4961-3.22266 83.4961-12.1094L83.4961-58.3008C83.4961-67.1875 78.6133-72.0703 69.6289-72.0703L23.6328-72.0703C14.6973-72.0703 9.76562-67.1875 9.76562-58.3008L9.76562-12.1094C9.76562-3.22266 14.6973 1.66016 23.6328 1.66016ZM24.8047-8.93555C21.9238-8.93555 20.3613-10.3516 20.3613-13.4277L20.3613-56.9824C20.3613-60.0586 21.9238-61.4746 24.8047-61.4746L68.457-61.4746C71.3379-61.4746 72.9004-60.0586 72.9004-56.9824L72.9004-13.4277C72.9004-10.3516 71.3379-8.93555 68.457-8.93555ZM46.6309-16.6504C49.1211-16.6504 50.5371-18.2617 50.5371-20.8008L50.5371-23.584L57.1777-23.584C58.252-23.584 58.9844-24.3164 58.9844-25.3418C58.9844-26.3184 58.252-27.0508 57.1777-27.0508L50.5371-27.0508L50.5371-29.6875L57.1777-29.6875C58.252-29.6875 58.9844-30.4199 58.9844-31.4453C58.9844-32.4219 58.252-33.1543 57.1777-33.1543L52.3926-33.1543L60.498-46.3867C61.0352-47.2656 61.2793-48.1445 61.2793-49.0234C61.2793-51.1719 59.5703-52.7832 57.3242-52.7832C55.7617-52.7832 54.5898-52.0996 53.7109-50.3906L46.6797-37.3535L39.6484-50.3906C38.7207-52.1973 37.6465-52.7832 35.9863-52.7832C33.6914-52.7832 31.9824-51.123 31.9824-48.9746C31.9824-48.0957 32.2266-47.2656 32.7637-46.3867L40.8203-33.1543L36.084-33.1543C35.0098-33.1543 34.3262-32.4219 34.3262-31.4453C34.3262-30.4199 35.0586-29.6875 36.084-29.6875L42.7246-29.6875L42.7246-27.0508L36.084-27.0508C35.0098-27.0508 34.3262-26.3184 34.3262-25.3418C34.3262-24.3164 35.0586-23.584 36.084-23.584L42.7246-23.584L42.7246-20.8008C42.7246-18.2617 44.1895-16.6504 46.6309-16.6504Z"/>
  </g>
  <g id="Semibold-S" transform="matrix(1 0 0 1 1997.1 696)">
   <path d="M23.0957 1.17188L69.1895 1.17188C77.9297 1.17188 82.5684-3.36914 82.5684-12.0117L82.5684-58.3984C82.5684-67.041 77.9297-71.582 69.1895-71.582L23.0957-71.582C14.4043-71.582 9.76562-67.041 9.76562-58.3984L9.76562-12.0117C9.76562-3.36914 14.4043 1.17188 23.0957 1.17188ZM23.877-8.10547C20.752-8.10547 19.0918-9.7168 19.0918-12.9883L19.0918-57.4219C19.0918-60.6934 20.752-62.3047 23.877-62.3047L68.4082-62.3047C71.5332-62.3047 73.2422-60.6934 73.2422-57.4219L73.2422-12.9883C73.2422-9.7168 71.5332-8.10547 68.4082-8.10547ZM46.1914-16.2598C48.3398-16.2598 49.6582-17.6758 49.6582-19.873L49.6582-23.5352L56.3965-23.5352C57.5684-23.5352 58.3008-24.3164 58.3008-25.3906C58.3008-26.4648 57.5684-27.2949 56.3965-27.2949L49.6582-27.2949L49.6582-29.9805L56.3965-29.9805C57.5684-29.9805 58.3008-30.7617 58.3008-31.8359C58.3008-32.9102 57.5684-33.6914 56.3965-33.6914L51.5137-33.6914L60.0098-47.5586C60.498-48.3398 60.6934-49.0723 60.6934-49.9023C60.6934-51.7578 59.2285-53.1738 57.1777-53.1738C55.8594-53.1738 54.7852-52.5879 54.0527-51.1719L46.2402-37.1582L38.3789-51.1719C37.5977-52.6855 36.6211-53.2227 35.1562-53.2227C33.1543-53.2227 31.6406-51.7578 31.6406-49.8535C31.6406-49.0723 31.8359-48.3398 32.3242-47.5586L40.8203-33.6914L35.9375-33.6914C34.8145-33.6914 34.082-32.9102 34.082-31.8359C34.082-30.7617 34.8145-29.9805 35.9375-29.9805L42.7246-29.9805L42.7246-27.2949L35.9375-27.2949C34.8145-27.2949 34.082-26.4648 34.082-25.3906C34.082-24.3164 34.8145-23.5352 35.9375-23.5352L42.7246-23.5352L42.7246-19.9219C42.7246-17.6758 44.043-16.2598 46.1914-16.2598Z"/>
  </g>
  <g id="Medium-S" transform="matrix(1 0 0 1 1700.75 696)">
   <path d="M22.7051 0.830078L68.8965 0.830078C77.4414 0.830078 81.8359-3.51562 81.8359-11.9629L81.8359-58.4473C81.8359-66.8945 77.4414-71.2402 68.8965-71.2402L22.7051-71.2402C14.209-71.2402 9.76562-66.8945 9.76562-58.4473L9.76562-11.9629C9.76562-3.51562 14.209 0.830078 22.7051 0.830078ZM23.1934-7.4707C19.9219-7.4707 18.0664-9.22852 18.0664-12.6953L18.0664-57.7148C18.0664-61.1816 19.9219-62.9395 23.1934-62.9395L68.4082-62.9395C71.6797-62.9395 73.5352-61.1816 73.5352-57.7148L73.5352-12.6953C73.5352-9.22852 71.6797-7.4707 68.4082-7.4707ZM45.8008-15.918C47.7051-15.918 48.9746-17.2363 48.9746-19.2383L48.9746-23.4863L55.8105-23.4863C56.9824-23.4863 57.7637-24.3652 57.7637-25.4883C57.7637-26.5625 56.9824-27.4414 55.8105-27.4414L48.9746-27.4414L48.9746-30.1758L55.8105-30.1758C56.9824-30.1758 57.7637-31.0547 57.7637-32.1777C57.7637-33.3008 56.9824-34.1309 55.8105-34.1309L50.8789-34.1309L59.668-48.4375C60.1074-49.1699 60.3027-49.8047 60.3027-50.5371C60.3027-52.1973 58.9355-53.5156 57.1289-53.5156C55.9082-53.5156 54.9316-52.9785 54.248-51.709L45.8496-36.9629L37.4023-51.7578C36.7188-53.0273 35.791-53.5156 34.5703-53.5156C32.7148-53.5156 31.3477-52.1973 31.3477-50.5371C31.3477-49.8047 31.543-49.1699 31.9824-48.4863L40.7715-34.1309L35.791-34.1309C34.6191-34.1309 33.8379-33.3008 33.8379-32.1777C33.8379-31.0547 34.668-30.1758 35.791-30.1758L42.6758-30.1758L42.6758-27.4414L35.791-27.4414C34.6191-27.4414 33.8379-26.5625 33.8379-25.4883C33.8379-24.3652 34.668-23.4863 35.791-23.4863L42.6758-23.4863L42.6758-19.2383C42.6758-17.2363 43.8965-15.918 45.8008-15.918Z"/>
  </g>
  <g id="Regular-S" transform="matrix(1 0 0 1 1404.51 696)">
   <path d="M22.2168 0.390625L68.457 0.390625C76.8066 0.390625 80.9082-3.71094 80.9082-11.9141L80.9082-58.4961C80.9082-66.6992 76.8066-70.8008 68.457-70.8008L22.2168-70.8008C13.916-70.8008 9.76562-66.6992 9.76562-58.4961L9.76562-11.9141C9.76562-3.71094 13.916 0.390625 22.2168 0.390625ZM22.3145-6.68945C18.7988-6.68945 16.7969-8.54492 16.7969-12.2559L16.7969-58.1543C16.7969-61.8164 18.7988-63.7207 22.3145-63.7207L68.3594-63.7207C71.875-63.7207 73.877-61.8164 73.877-58.1543L73.877-12.2559C73.877-8.54492 71.875-6.68945 68.3594-6.68945ZM45.3613-15.5273C46.9727-15.5273 48.0957-16.6504 48.0957-18.3594L48.0957-23.4375L55.0781-23.4375C56.2988-23.4375 57.0801-24.3652 57.0801-25.5371C57.0801-26.709 56.2988-27.6367 55.0781-27.6367L48.0957-27.6367L48.0957-30.4688L55.0781-30.4688C56.2988-30.4688 57.0801-31.3965 57.0801-32.5684C57.0801-33.7402 56.2988-34.668 55.0781-34.668L50-34.668L59.1797-49.6094C59.5703-50.1953 59.7168-50.7324 59.7168-51.3672C59.7168-52.7832 58.5449-53.9062 56.9824-53.9062C55.957-53.9062 55.127-53.4668 54.5898-52.4902L45.4102-36.7676L36.1816-52.5391C35.5957-53.5156 34.8145-53.9551 33.7402-53.9551C32.1777-53.9551 31.0059-52.832 31.0059-51.416C31.0059-50.7812 31.1523-50.2441 31.543-49.6582L40.7715-34.668L35.6445-34.668C34.4238-34.668 33.5938-33.7402 33.5938-32.5684C33.5938-31.3965 34.4727-30.4688 35.6445-30.4688L42.6758-30.4688L42.6758-27.6367L35.6445-27.6367C34.4238-27.6367 33.5938-26.709 33.5938-25.5371C33.5938-24.3652 34.4727-23.4375 35.6445-23.4375L42.6758-23.4375L42.6758-18.3594C42.6758-16.6992 43.75-15.5273 45.3613-15.5273Z"/>
  </g>
  <g id="Light-S" transform="matrix(1 0 0 1 1108.46 696)">
   <path d="M21.3867-0.292969L67.9688-0.292969C75.7324-0.292969 79.5898-4.15039 79.5898-11.7676L79.5898-58.5938C79.5898-66.2109 75.7324-70.1172 67.9688-70.1172L21.3867-70.1172C13.6719-70.1172 9.76562-66.2598 9.76562-58.5938L9.76562-11.7676C9.76562-4.15039 13.6719-0.292969 21.3867-0.292969ZM21.4844-5.71289C17.4316-5.71289 15.1855-7.86133 15.1855-12.0605L15.1855-58.3008C15.1855-62.5 17.4316-64.6973 21.4844-64.6973L67.8711-64.6973C71.875-64.6973 74.1699-62.5 74.1699-58.3008L74.1699-12.0605C74.1699-7.86133 71.875-5.71289 67.8711-5.71289ZM44.7266-16.2109C45.9961-16.2109 46.875-17.0898 46.875-18.5059L46.875-24.4141L54.1016-24.4141C55.0781-24.4141 55.7617-25.1465 55.7617-26.123C55.7617-27.1484 55.0781-27.8809 54.1016-27.8809L46.875-27.8809L46.875-30.8594L54.1016-30.8594C55.0781-30.8594 55.7617-31.6406 55.7617-32.6172C55.7617-33.5938 55.0781-34.3262 54.1016-34.3262L48.5352-34.3262L57.9102-49.3164C58.2031-49.7559 58.3496-50.1953 58.3496-50.6836C58.3496-51.8555 57.4219-52.7344 56.1523-52.7344C55.3223-52.7344 54.6875-52.4414 54.1992-51.6113L44.7266-35.8887L35.2051-51.6113C34.7168-52.4414 34.082-52.7832 33.252-52.7832C32.0312-52.7832 31.1035-51.9043 31.1035-50.7324C31.1035-50.2441 31.25-49.8047 31.4941-49.3164L40.918-34.3262L35.5957-34.3262C34.5703-34.3262 33.8867-33.5938 33.8867-32.6172C33.8867-31.6406 34.5703-30.8594 35.5957-30.8594L42.5293-30.8594L42.5293-27.8809L35.5957-27.8809C34.5703-27.8809 33.8867-27.1484 33.8867-26.123C33.8867-25.1465 34.5703-24.4141 35.5957-24.4141L42.5293-24.4141L42.5293-18.5059C42.5293-17.1387 43.457-16.2109 44.7266-16.2109Z"/>
  </g>
  <g id="Thin-S" transform="matrix(1 0 0 1 812.599 696)">
   <path d="M20.3125-1.12305L67.334-1.12305C74.2676-1.12305 77.8809-4.78516 77.8809-11.6211L77.8809-58.6914C77.8809-65.5762 74.2676-69.2383 67.334-69.2383L20.3125-69.2383C13.3789-69.2383 9.76562-65.625 9.76562-58.6914L9.76562-11.6211C9.76562-4.6875 13.3789-1.12305 20.3125-1.12305ZM20.4102-4.44336C15.625-4.44336 13.0859-6.93359 13.0859-11.8164L13.0859-58.5449C13.0859-63.3789 15.625-65.918 20.4102-65.918L67.2363-65.918C71.875-65.918 74.5605-63.3789 74.5605-58.5449L74.5605-11.8164C74.5605-6.93359 71.875-4.44336 67.2363-4.44336ZM43.8477-17.1875C44.7266-17.1875 45.3125-17.7246 45.3125-18.6523L45.3125-25.6836L52.7832-25.6836C53.5156-25.6836 54.0039-26.2207 54.0039-26.9531C54.0039-27.6367 53.5156-28.2227 52.7832-28.2227L45.3125-28.2227L45.3125-31.3477L52.7832-31.3477C53.5156-31.3477 54.0039-31.9336 54.0039-32.6172C54.0039-33.3496 53.5156-33.9355 52.7832-33.9355L46.582-33.9355L56.2012-48.877C56.3965-49.2188 56.4941-49.5117 56.4941-49.8535C56.4941-50.6348 55.9082-51.2695 55.0781-51.2695C54.4922-51.2695 54.1016-51.0254 53.7598-50.4395L43.8477-34.7656L33.9355-50.4395C33.5449-51.0254 33.1543-51.2695 32.6172-51.2695C31.7871-51.2695 31.1523-50.6836 31.1523-49.9023C31.1523-49.5117 31.2988-49.1699 31.4941-48.9258L41.1133-33.9355L35.498-33.9355C34.8145-33.9355 34.2773-33.3496 34.2773-32.6172C34.2773-31.9336 34.7656-31.3477 35.498-31.3477L42.3828-31.3477L42.3828-28.2227L35.498-28.2227C34.8145-28.2227 34.2773-27.6367 34.2773-26.9531C34.2773-26.2207 34.7656-25.6836 35.498-25.6836L42.3828-25.6836L42.3828-18.7012C42.3828-17.7246 43.0664-17.1875 43.8477-17.1875Z"/>
  </g>
  <g id="Ultralight-S" transform="matrix(1 0 0 1 516.352 696)">
   <path d="M19.7754-1.5625L66.9922-1.5625C73.5352-1.5625 76.9531-5.12695 76.9531-11.5234L76.9531-58.7891C76.9531-65.2344 73.5352-68.75 66.9922-68.75L19.7754-68.75C13.2324-68.75 9.76562-65.2832 9.76562-58.7891L9.76562-11.5234C9.76562-5.0293 13.2324-1.5625 19.7754-1.5625ZM19.873-3.75977C14.6484-3.75977 11.9629-6.44531 11.9629-11.6699L11.9629-58.6426C11.9629-63.8672 14.6484-66.5527 19.873-66.5527L66.8945-66.5527C71.875-66.5527 74.7559-63.8672 74.7559-58.6426L74.7559-11.6699C74.7559-6.44531 71.875-3.75977 66.8945-3.75977ZM43.4082-17.6758C44.043-17.6758 44.4824-18.0664 44.4824-18.7988L44.4824-26.3184L52.1484-26.3184C52.6855-26.3184 53.125-26.7578 53.125-27.3438C53.125-27.9297 52.6855-28.3691 52.1484-28.3691L44.4824-28.3691L44.4824-31.6406L52.1484-31.6406C52.6855-31.6406 53.125-32.0801 53.125-32.666C53.125-33.252 52.6855-33.6914 52.1484-33.6914L45.5566-33.6914L55.3223-48.6816C55.4688-48.877 55.5664-49.1699 55.5664-49.4141C55.5664-50 55.127-50.4883 54.4922-50.4883C54.0527-50.4883 53.8086-50.293 53.5156-49.8535L43.4082-34.1797L33.252-49.8535C32.959-50.293 32.7148-50.4883 32.2754-50.4883C31.6895-50.4883 31.2012-50.0488 31.2012-49.4629C31.2012-49.1211 31.3477-48.8281 31.4453-48.6816L41.2109-33.6914L35.498-33.6914C34.9121-33.6914 34.4727-33.252 34.4727-32.666C34.4727-32.0801 34.8633-31.6406 35.498-31.6406L42.334-31.6406L42.334-28.3691L35.498-28.3691C34.9121-28.3691 34.4727-27.9297 34.4727-27.3438C34.4727-26.7578 34.8633-26.3184 35.498-26.3184L42.334-26.3184L42.334-18.7988C42.334-18.0664 42.8223-17.6758 43.4082-17.6758Z"/>
  </g>
 </g>
</svg>
