<?xml version="1.0" encoding="UTF-8"?>
<!--Generator: Apple Native CoreSVG 149-->
<!DOCTYPE svg
PUBLIC "-//W3C//DTD SVG 1.1//EN"
       "http://www.w3.org/Graphics/SVG/1.1/DTD/svg11.dtd">
<svg version="1.1" xmlns="http://www.w3.org/2000/svg" xmlns:xlink="http://www.w3.org/1999/xlink" width="3300" height="2200">
 <!--glyph: "uni1005DD.medium", point size: 100.000000, font version: "Version 16.0d18e1", template writer version: "8"-->
 <g id="Notes">
  <rect height="2200" id="artboard" style="fill:white;opacity:1" width="3300" x="0" y="0"/>
  <line id="" style="fill:none;stroke:black;opacity:1;stroke-width:0.5;" x1="263" x2="3036" y1="292" y2="292"/>
  <text style="stroke:none;fill:black;font-family:-apple-system,&quot;SF Pro Display&quot;,&quot;SF Pro Text&quot;,Helvetica,sans-serif;font-weight:bold;" transform="matrix(1 0 0 1 263 322)">Weight/Scale Variations</text>
  <text style="stroke:none;fill:black;font-family:-apple-system,&quot;SF Pro Display&quot;,&quot;SF Pro Text&quot;,Helvetica,sans-serif;text-anchor:middle;" transform="matrix(1 0 0 1 559.711 322)">Ultralight</text>
  <text style="stroke:none;fill:black;font-family:-apple-system,&quot;SF Pro Display&quot;,&quot;SF Pro Text&quot;,Helvetica,sans-serif;text-anchor:middle;" transform="matrix(1 0 0 1 856.422 322)">Thin</text>
  <text style="stroke:none;fill:black;font-family:-apple-system,&quot;SF Pro Display&quot;,&quot;SF Pro Text&quot;,Helvetica,sans-serif;text-anchor:middle;" transform="matrix(1 0 0 1 1153.13 322)">Light</text>
  <text style="stroke:none;fill:black;font-family:-apple-system,&quot;SF Pro Display&quot;,&quot;SF Pro Text&quot;,Helvetica,sans-serif;text-anchor:middle;" transform="matrix(1 0 0 1 1449.84 322)">Regular</text>
  <text style="stroke:none;fill:black;font-family:-apple-system,&quot;SF Pro Display&quot;,&quot;SF Pro Text&quot;,Helvetica,sans-serif;text-anchor:middle;" transform="matrix(1 0 0 1 1746.56 322)">Medium</text>
  <text style="stroke:none;fill:black;font-family:-apple-system,&quot;SF Pro Display&quot;,&quot;SF Pro Text&quot;,Helvetica,sans-serif;text-anchor:middle;" transform="matrix(1 0 0 1 2043.27 322)">Semibold</text>
  <text style="stroke:none;fill:black;font-family:-apple-system,&quot;SF Pro Display&quot;,&quot;SF Pro Text&quot;,Helvetica,sans-serif;text-anchor:middle;" transform="matrix(1 0 0 1 2339.98 322)">Bold</text>
  <text style="stroke:none;fill:black;font-family:-apple-system,&quot;SF Pro Display&quot;,&quot;SF Pro Text&quot;,Helvetica,sans-serif;text-anchor:middle;" transform="matrix(1 0 0 1 2636.69 322)">Heavy</text>
  <text style="stroke:none;fill:black;font-family:-apple-system,&quot;SF Pro Display&quot;,&quot;SF Pro Text&quot;,Helvetica,sans-serif;text-anchor:middle;" transform="matrix(1 0 0 1 2933.4 322)">Black</text>
  <line id="" style="fill:none;stroke:black;opacity:1;stroke-width:0.5;" x1="263" x2="3036" y1="1903" y2="1903"/>
  <g id="" transform="matrix(1 0 0 1 263 1933)">
   <path d="M9.24805 0.830078C13.5547 0.830078 17.1387-2.74414 17.1387-7.05078C17.1387-11.3574 13.5449-14.9316 9.23828-14.9316C4.94141-14.9316 1.36719-11.3574 1.36719-7.05078C1.36719-2.74414 4.95117 0.830078 9.24805 0.830078ZM9.24805-0.654297C5.70312-0.654297 2.87109-3.49609 2.87109-7.05078C2.87109-10.6055 5.69336-13.4473 9.23828-13.4473C12.793-13.4473 15.6348-10.6055 15.6445-7.05078C15.6543-3.49609 12.8027-0.654297 9.24805-0.654297ZM6.39648-6.31836L8.50586-6.31836L8.50586-4.19922C8.50586-3.75977 8.79883-3.45703 9.22852-3.45703C9.67773-3.45703 9.9707-3.75977 9.9707-4.19922L9.9707-6.31836L12.0996-6.31836C12.5391-6.31836 12.8418-6.61133 12.8418-7.04102C12.8418-7.48047 12.5391-7.7832 12.0996-7.7832L9.9707-7.7832L9.9707-9.89258C9.9707-10.3418 9.67773-10.6445 9.22852-10.6445C8.79883-10.6445 8.50586-10.3418 8.50586-9.89258L8.50586-7.7832L6.39648-7.7832C5.94727-7.7832 5.64453-7.48047 5.64453-7.04102C5.64453-6.61133 5.94727-6.31836 6.39648-6.31836Z"/>
  </g>
  <g id="" transform="matrix(1 0 0 1 281.506 1933)">
   <path d="M11.709 2.91016C17.1582 2.91016 21.6699-1.61133 21.6699-7.05078C21.6699-12.5 17.1484-17.0117 11.6992-17.0117C6.25977-17.0117 1.74805-12.5 1.74805-7.05078C1.74805-1.61133 6.26953 2.91016 11.709 2.91016ZM11.709 1.25C7.09961 1.25 3.41797-2.44141 3.41797-7.05078C3.41797-11.6602 7.08984-15.3516 11.6992-15.3516C16.3086-15.3516 20-11.6602 20.0098-7.05078C20.0195-2.44141 16.3184 1.25 11.709 1.25ZM7.98828-6.23047L10.8789-6.23047L10.8789-3.32031C10.8789-2.83203 11.2109-2.5 11.6895-2.5C12.1777-2.5 12.5195-2.83203 12.5195-3.32031L12.5195-6.23047L15.4297-6.23047C15.918-6.23047 16.25-6.5625 16.25-7.04102C16.25-7.5293 15.918-7.87109 15.4297-7.87109L12.5195-7.87109L12.5195-10.7617C12.5195-11.2695 12.1777-11.6016 11.6895-11.6016C11.2109-11.6016 10.8789-11.2598 10.8789-10.7617L10.8789-7.87109L7.98828-7.87109C7.48047-7.87109 7.14844-7.5293 7.14844-7.04102C7.14844-6.5625 7.49023-6.23047 7.98828-6.23047Z"/>
  </g>
  <g id="" transform="matrix(1 0 0 1 304.924 1933)">
   <path d="M14.9707 5.66406C21.9336 5.66406 27.6953-0.0976562 27.6953-7.05078C27.6953-14.0137 21.9238-19.7754 14.9609-19.7754C8.00781-19.7754 2.25586-14.0137 2.25586-7.05078C2.25586-0.0976562 8.01758 5.66406 14.9707 5.66406ZM14.9707 3.84766C8.93555 3.84766 4.08203-1.01562 4.08203-7.05078C4.08203-13.0957 8.92578-17.9492 14.9609-17.9492C21.0059-17.9492 25.8594-13.0957 25.8691-7.05078C25.8789-1.01562 21.0156 3.84766 14.9707 3.84766ZM10.0586-6.14258L14.0625-6.14258L14.0625-2.12891C14.0625-1.5918 14.4336-1.2207 14.9512-1.2207C15.4883-1.2207 15.8594-1.5918 15.8594-2.12891L15.8594-6.14258L19.8828-6.14258C20.4102-6.14258 20.791-6.51367 20.791-7.03125C20.791-7.56836 20.4199-7.94922 19.8828-7.94922L15.8594-7.94922L15.8594-11.9531C15.8594-12.5098 15.4883-12.8809 14.9512-12.8809C14.4336-12.8809 14.0625-12.5 14.0625-11.9531L14.0625-7.94922L10.0586-7.94922C9.50195-7.94922 9.13086-7.56836 9.13086-7.03125C9.13086-6.51367 9.51172-6.14258 10.0586-6.14258Z"/>
  </g>
  <text style="stroke:none;fill:black;font-family:-apple-system,&quot;SF Pro Display&quot;,&quot;SF Pro Text&quot;,Helvetica,sans-serif;font-weight:bold;" transform="matrix(1 0 0 1 263 1953)">Design Variations</text>
  <text style="stroke:none;fill:black;font-family:-apple-system,&quot;SF Pro Display&quot;,&quot;SF Pro Text&quot;,Helvetica,sans-serif;" transform="matrix(1 0 0 1 263 1971)">Symbols are supported in up to nine weights and three scales.</text>
  <text style="stroke:none;fill:black;font-family:-apple-system,&quot;SF Pro Display&quot;,&quot;SF Pro Text&quot;,Helvetica,sans-serif;" transform="matrix(1 0 0 1 263 1989)">For optimal layout with text and other symbols, vertically align</text>
  <text style="stroke:none;fill:black;font-family:-apple-system,&quot;SF Pro Display&quot;,&quot;SF Pro Text&quot;,Helvetica,sans-serif;" transform="matrix(1 0 0 1 263 2007)">symbols with the adjacent text.</text>
  <line id="" style="fill:none;stroke:#00AEEF;stroke-width:0.5;opacity:1.0;" x1="776" x2="776" y1="1919" y2="1933"/>
  <g id="" transform="matrix(1 0 0 1 776 1933)">
   <path d="M3.31055 0.126953C3.82812 0.126953 4.08203-0.0683594 4.26758-0.605469L5.52734-4.0625L11.2891-4.0625L12.5488-0.605469C12.7344-0.0683594 12.9883 0.126953 13.4961 0.126953C14.0137 0.126953 14.3457-0.185547 14.3457-0.673828C14.3457-0.839844 14.3164-0.986328 14.2383-1.20117L9.6582-13.3887C9.43359-13.9941 9.0332-14.2871 8.4082-14.2871C7.80273-14.2871 7.39258-13.9941 7.17773-13.3984L2.59766-1.19141C2.51953-0.976562 2.49023-0.830078 2.49023-0.664062C2.49023-0.175781 2.80273 0.126953 3.31055 0.126953ZM6.00586-5.53711L8.37891-12.1094L8.42773-12.1094L10.8008-5.53711Z"/>
  </g>
  <line id="" style="fill:none;stroke:#00AEEF;stroke-width:0.5;opacity:1.0;" x1="792.836" x2="792.836" y1="1919" y2="1933"/>
  <text style="stroke:none;fill:black;font-family:-apple-system,&quot;SF Pro Display&quot;,&quot;SF Pro Text&quot;,Helvetica,sans-serif;font-weight:bold;" transform="matrix(1 0 0 1 776 1953)">Margins</text>
  <text style="stroke:none;fill:black;font-family:-apple-system,&quot;SF Pro Display&quot;,&quot;SF Pro Text&quot;,Helvetica,sans-serif;" transform="matrix(1 0 0 1 776 1971)">Leading and trailing margins on the left and right side of each symbol</text>
  <text style="stroke:none;fill:black;font-family:-apple-system,&quot;SF Pro Display&quot;,&quot;SF Pro Text&quot;,Helvetica,sans-serif;" transform="matrix(1 0 0 1 776 1989)">can be adjusted by modifying the x-location of the margin guidelines.</text>
  <text style="stroke:none;fill:black;font-family:-apple-system,&quot;SF Pro Display&quot;,&quot;SF Pro Text&quot;,Helvetica,sans-serif;" transform="matrix(1 0 0 1 776 2007)">Modifications are automatically applied proportionally to all</text>
  <text style="stroke:none;fill:black;font-family:-apple-system,&quot;SF Pro Display&quot;,&quot;SF Pro Text&quot;,Helvetica,sans-serif;" transform="matrix(1 0 0 1 776 2025)">scales and weights.</text>
  <g id="" transform="matrix(1 0 0 1 1289 1933)">
   <path d="M2.8418 1.86523L4.54102 3.57422C5.40039 4.44336 6.38672 4.38477 7.31445 3.35938L17.4902-7.85156C17.7539-7.76367 18.0273-7.7832 18.3398-7.8418L19.4043-8.03711L20.0684-7.36328L20.0293-6.80664C19.9902-6.30859 20.1172-5.92773 20.6055-5.44922L21.3672-4.70703C21.8457-4.22852 22.4609-4.19922 22.9297-4.66797L25.8398-7.58789C26.3086-8.05664 26.2891-8.65234 25.8105-9.13086L25.0391-9.89258C24.5605-10.3711 24.1895-10.5273 23.7109-10.4883L23.1348-10.4395L22.4902-11.0742L22.7344-12.1973C22.8613-12.7637 22.7051-13.2031 22.1191-13.7891L19.9219-15.9766C16.582-19.2969 12.1484-19.2188 9.25781-16.3281C8.83789-15.918 8.80859-15.3418 9.04297-14.9512C9.27734-14.5898 9.73633-14.3555 10.3809-14.5215C11.8457-14.8633 13.3691-14.9219 14.7949-13.9844L14.209-12.5293C14.0137-12.0508 13.9844-11.6504 14.1113-11.2891L3.04688-0.898438C2.06055 0.0195312 1.98242 0.996094 2.8418 1.86523ZM10.752-15.957C13.1836-17.7344 16.4746-17.4316 18.7012-15.2051L21.1328-12.793C21.3672-12.5586 21.4062-12.373 21.3379-12.0312L21.0156-10.5469L22.5195-9.0625L23.5059-9.12109C23.7598-9.13086 23.8379-9.11133 24.0332-8.91602L24.6094-8.33984L22.168-5.89844L21.5918-6.47461C21.3965-6.66992 21.3672-6.74805 21.377-7.01172L21.4453-7.98828L19.9512-9.47266L18.4277-9.21875C18.1055-9.15039 17.959-9.17969 17.7148-9.41406L15.7129-11.416C15.459-11.6504 15.4297-11.8164 15.5859-12.1875L16.4648-14.2773C14.9023-15.7324 12.8711-16.3574 10.8398-15.7617C10.6836-15.7227 10.625-15.8496 10.752-15.957ZM5.27344 2.30469L4.10156 1.14258C3.63281 0.683594 3.74023 0.341797 4.14062-0.0195312L14.9512-10.1953L16.416-8.71094L6.42578 2.27539C6.07422 2.67578 5.74219 2.77344 5.27344 2.30469Z"/>
  </g>
  <text style="stroke:none;fill:black;font-family:-apple-system,&quot;SF Pro Display&quot;,&quot;SF Pro Text&quot;,Helvetica,sans-serif;font-weight:bold;" transform="matrix(1 0 0 1 1289 1953)">Exporting</text>
  <text style="stroke:none;fill:black;font-family:-apple-system,&quot;SF Pro Display&quot;,&quot;SF Pro Text&quot;,Helvetica,sans-serif;" transform="matrix(1 0 0 1 1289 1971)">Symbols should be outlined when exporting to ensure the</text>
  <text style="stroke:none;fill:black;font-family:-apple-system,&quot;SF Pro Display&quot;,&quot;SF Pro Text&quot;,Helvetica,sans-serif;" transform="matrix(1 0 0 1 1289 1989)">design is preserved when submitting to Xcode.</text>
  <text id="template-version" style="stroke:none;fill:black;font-family:-apple-system,&quot;SF Pro Display&quot;,&quot;SF Pro Text&quot;,Helvetica,sans-serif;text-anchor:end;" transform="matrix(1 0 0 1 3036 1933)">Template v.2.0</text>
  <text style="stroke:none;fill:black;font-family:-apple-system,&quot;SF Pro Display&quot;,&quot;SF Pro Text&quot;,Helvetica,sans-serif;text-anchor:end;" transform="matrix(1 0 0 1 3036 1951)">Requires Xcode 12 or greater</text>
  <text style="stroke:none;fill:black;font-family:-apple-system,&quot;SF Pro Display&quot;,&quot;SF Pro Text&quot;,Helvetica,sans-serif;text-anchor:end;" transform="matrix(1 0 0 1 3036 1969)">Generated from sterlingsign.square</text>
  <text style="stroke:none;fill:black;font-family:-apple-system,&quot;SF Pro Display&quot;,&quot;SF Pro Text&quot;,Helvetica,sans-serif;text-anchor:end;" transform="matrix(1 0 0 1 3036 1987)">Typeset at 100 points</text>
  <text style="stroke:none;fill:black;font-family:-apple-system,&quot;SF Pro Display&quot;,&quot;SF Pro Text&quot;,Helvetica,sans-serif;" transform="matrix(1 0 0 1 263 726)">Small</text>
  <text style="stroke:none;fill:black;font-family:-apple-system,&quot;SF Pro Display&quot;,&quot;SF Pro Text&quot;,Helvetica,sans-serif;" transform="matrix(1 0 0 1 263 1156)">Medium</text>
  <text style="stroke:none;fill:black;font-family:-apple-system,&quot;SF Pro Display&quot;,&quot;SF Pro Text&quot;,Helvetica,sans-serif;" transform="matrix(1 0 0 1 263 1586)">Large</text>
 </g>
 <g id="Guides">
  <g id="H-reference" style="fill:#27AAE1;stroke:none;" transform="matrix(1 0 0 1 339 696)">
   <path d="M0.976562 0L3.66211 0L12.9883-24.4629L45.752-24.4629L55.127 0L57.7637 0L30.6152-70.459L28.125-70.459ZM29.3457-67.1387L29.4434-67.1387L44.873-26.709L13.8672-26.709Z"/>
  </g>
  <line id="Baseline-S" style="fill:none;stroke:#27AAE1;opacity:1;stroke-width:0.5;" x1="263" x2="3036" y1="696" y2="696"/>
  <line id="Capline-S" style="fill:none;stroke:#27AAE1;opacity:1;stroke-width:0.5;" x1="263" x2="3036" y1="625.541" y2="625.541"/>
  <g id="H-reference" style="fill:#27AAE1;stroke:none;" transform="matrix(1 0 0 1 339 1126)">
   <path d="M0.976562 0L3.66211 0L12.9883-24.4629L45.752-24.4629L55.127 0L57.7637 0L30.6152-70.459L28.125-70.459ZM29.3457-67.1387L29.4434-67.1387L44.873-26.709L13.8672-26.709Z"/>
  </g>
  <line id="Baseline-M" style="fill:none;stroke:#27AAE1;opacity:1;stroke-width:0.5;" x1="263" x2="3036" y1="1126" y2="1126"/>
  <line id="Capline-M" style="fill:none;stroke:#27AAE1;opacity:1;stroke-width:0.5;" x1="263" x2="3036" y1="1055.54" y2="1055.54"/>
  <g id="H-reference" style="fill:#27AAE1;stroke:none;" transform="matrix(1 0 0 1 339 1556)">
   <path d="M0.976562 0L3.66211 0L12.9883-24.4629L45.752-24.4629L55.127 0L57.7637 0L30.6152-70.459L28.125-70.459ZM29.3457-67.1387L29.4434-67.1387L44.873-26.709L13.8672-26.709Z"/>
  </g>
  <line id="Baseline-L" style="fill:none;stroke:#27AAE1;opacity:1;stroke-width:0.5;" x1="263" x2="3036" y1="1556" y2="1556"/>
  <line id="Capline-L" style="fill:none;stroke:#27AAE1;opacity:1;stroke-width:0.5;" x1="263" x2="3036" y1="1485.54" y2="1485.54"/>
  <line id="left-margin" style="fill:none;stroke:#00AEEF;stroke-width:0.5;opacity:1.0;" x1="1392.45" x2="1392.45" y1="1030.79" y2="1150.12"/>
  <line id="right-margin" style="fill:none;stroke:#00AEEF;stroke-width:0.5;opacity:1.0;" x1="1507.24" x2="1507.24" y1="1030.79" y2="1150.12"/>
 </g>
 <g id="Symbols">
  <g id="Black-L" transform="matrix(1 0 0 1 2855.62 1556)">
   <path d="M39.9902 26.5137L115.576 26.5137C130.811 26.5137 139.502 17.8711 139.502 2.68555L139.502-73.0957C139.502-88.2812 130.811-96.875 115.576-96.875L39.9902-96.875C24.7559-96.875 16.0645-88.2812 16.0645-73.0957L16.0645 2.68555C16.0645 17.8711 24.7559 26.5137 39.9902 26.5137ZM42.6758 6.29883C38.4766 6.29883 36.3281 4.39453 36.3281-0.146484L36.3281-70.2148C36.3281-74.7559 38.4766-76.6602 42.6758-76.6602L112.842-76.6602C117.09-76.6602 119.238-74.7559 119.238-70.2148L119.238-0.146484C119.238 4.39453 117.09 6.29883 112.842 6.29883ZM60.4492-9.13086L93.1152-9.13086C96.875-9.13086 99.4629-11.5234 99.4629-15.2832C99.4629-18.9941 96.875-21.3379 93.1152-21.3379L74.0723-21.3379C76.5625-23.7305 77.9297-26.8066 77.9297-30.127C77.9297-31.1523 77.832-32.0801 77.6855-32.8125L89.7461-32.8125C92.4316-32.8125 94.0918-34.5215 94.0918-36.9141C94.0918-39.3555 92.4316-40.9668 89.7461-40.9668L76.123-40.9668C75.8301-42.3828 75.5371-43.8477 75.5371-45.459C75.5371-50.0488 78.9062-52.9297 85.2539-52.9297C89.2578-52.9297 90.625-52.2461 93.5059-52.2461C96.582-52.2461 98.7793-53.9551 98.7793-57.2266C98.7793-59.5215 97.8027-61.2305 95.7031-62.5C92.9199-64.1113 88.916-64.7949 83.0566-64.7949C68.9941-64.7949 60.8887-57.5195 60.8887-47.2656C60.8887-45.1172 61.2305-43.0176 61.7676-40.9668L57.8125-40.9668C55.127-40.9668 53.4668-39.3555 53.4668-36.9141C53.4668-34.5215 55.127-32.8125 57.8125-32.8125L63.3789-32.8125C63.5254-32.2266 63.5742-31.5918 63.5742-31.0547C63.5742-26.4648 61.1816-23.3887 58.7402-21.7285C56.1523-19.5801 54.1992-18.0664 54.1992-14.9414C54.1992-11.4258 56.7871-9.13086 60.4492-9.13086Z"/>
  </g>
  <g id="Heavy-L" transform="matrix(1 0 0 1 2559.93 1556)">
   <path d="M38.8184 25.4883L114.697 25.4883C129.346 25.4883 137.451 17.4316 137.451 2.88086L137.451-73.2422C137.451-87.793 129.346-95.8496 114.697-95.8496L38.8184-95.8496C24.2188-95.8496 16.0645-87.793 16.0645-73.2422L16.0645 2.88086C16.0645 17.4316 24.2188 25.4883 38.8184 25.4883ZM40.918 8.00781C36.084 8.00781 33.5938 5.71289 33.5938 0.585938L33.5938-70.9473C33.5938-76.0742 36.084-78.3691 40.918-78.3691L112.549-78.3691C117.383-78.3691 119.922-76.0742 119.922-70.9473L119.922 0.585938C119.922 5.71289 117.383 8.00781 112.549 8.00781ZM58.7891-8.69141L92.7246-8.69141C96.0449-8.69141 98.3887-10.791 98.3887-14.1113C98.3887-17.4316 96.0449-19.5312 92.7246-19.5312L71.6309-19.5312C74.3164-22.0215 75.8789-25.5371 75.8789-29.3457C75.8789-30.7129 75.7324-31.8848 75.5371-32.959L88.5254-32.959C91.0156-32.959 92.5781-34.5215 92.5781-36.7676C92.5781-39.0625 91.0156-40.5762 88.5254-40.5762L73.9746-40.5762C73.584-42.2363 73.2422-43.9941 73.2422-45.9961C73.2422-51.123 76.9043-54.4922 83.7891-54.4922C88.2324-54.4922 89.8438-53.5645 92.4316-53.5645C95.2637-53.5645 97.168-55.127 97.168-58.0566C97.168-60.1562 96.2402-61.7188 94.1406-62.8906C91.4062-64.3555 87.5-65.0879 82.0312-65.0879C68.3105-65.0879 60.3027-57.7637 60.3027-47.2656C60.3027-45.0195 60.7422-42.7734 61.2793-40.5762L56.8848-40.5762C54.3945-40.5762 52.832-39.0625 52.832-36.7676C52.832-34.5215 54.3945-32.959 56.8848-32.959L62.8906-32.959C63.1348-31.9336 63.2812-30.9082 63.2812-29.9805C63.2812-24.9512 60.498-21.4355 57.4219-19.873C54.9316-18.1152 53.2715-16.748 53.2715-13.8672C53.2715-10.7422 55.5176-8.69141 58.7891-8.69141Z"/>
  </g>
  <g id="Bold-L" transform="matrix(1 0 0 1 2264.37 1556)">
   <path d="M37.5 24.3652L113.721 24.3652C127.637 24.3652 135.156 16.8945 135.156 3.07617L135.156-73.3887C135.156-87.207 127.637-94.7266 113.721-94.7266L37.5-94.7266C23.6328-94.7266 16.0645-87.2559 16.0645-73.3887L16.0645 3.07617C16.0645 16.8945 23.6328 24.3652 37.5 24.3652ZM38.9648 9.91211C33.4473 9.91211 30.5176 7.17773 30.5176 1.41602L30.5176-71.7285C30.5176-77.5391 33.4473-80.2734 38.9648-80.2734L112.256-80.2734C117.725-80.2734 120.703-77.5391 120.703-71.7285L120.703 1.41602C120.703 7.17773 117.725 9.91211 112.256 9.91211ZM56.9824-8.1543L92.2852-8.1543C95.1172-8.1543 97.1191-10.0098 97.1191-12.8418C97.1191-15.6738 95.1172-17.4805 92.2852-17.4805L68.8477-17.4805C71.7773-20.0684 73.584-24.1211 73.584-28.4668C73.584-30.1758 73.3887-31.6895 73.0957-33.0566L87.1582-33.0566C89.4043-33.0566 90.918-34.5215 90.918-36.6211C90.918-38.7207 89.4043-40.1367 87.1582-40.1367L71.582-40.1367C71.0938-42.1387 70.6543-44.1895 70.6543-46.582C70.6543-52.3438 74.707-56.2012 82.1777-56.2012C87.1094-56.2012 89.0137-55.0293 91.2598-55.0293C93.7988-55.0293 95.4102-56.4453 95.4102-58.9844C95.4102-60.8398 94.5312-62.3047 92.3828-63.3301C89.6973-64.6484 85.9375-65.3809 80.9082-65.3809C67.4805-65.3809 59.7168-58.0566 59.7168-47.2656C59.7168-44.8242 60.1562-42.4805 60.791-40.1367L55.8594-40.1367C53.6133-40.1367 52.0996-38.7207 52.0996-36.6211C52.0996-34.5215 53.6133-33.0566 55.8594-33.0566L62.3047-33.0566C62.6953-31.6406 62.9395-30.1758 62.9395-28.8086C62.9395-23.2422 59.7168-19.3359 55.957-17.8223C53.6133-16.5039 52.2461-15.2344 52.2461-12.6953C52.2461-9.96094 54.1504-8.1543 56.9824-8.1543Z"/>
  </g>
  <g id="Semibold-L" transform="matrix(1 0 0 1 1968.44 1556)">
   <path d="M36.6211 23.584L113.037 23.584C126.514 23.584 133.594 16.5039 133.594 3.17383L133.594-73.5352C133.594-86.8164 126.514-93.9453 113.037-93.9453L36.6211-93.9453C23.1934-93.9453 16.0645-86.8652 16.0645-73.5352L16.0645 3.17383C16.0645 16.5527 23.1934 23.584 36.6211 23.584ZM37.5977 11.2793C31.6406 11.2793 28.418 8.20312 28.418 1.95312L28.418-72.3145C28.418-78.5156 31.6406-81.5918 37.5977-81.5918L112.061-81.5918C117.969-81.5918 121.24-78.5156 121.24-72.3145L121.24 1.95312C121.24 8.20312 117.969 11.2793 112.061 11.2793ZM55.7129-7.8125L91.9922-7.8125C94.4824-7.8125 96.2891-9.42383 96.2891-11.9629C96.2891-14.502 94.4824-16.1133 91.9922-16.1133L66.9922-16.1133C70.0195-18.75 72.0215-23.1445 72.0215-27.832C72.0215-29.7852 71.7773-31.543 71.3867-33.1543L86.2305-33.1543C88.3301-33.1543 89.7461-34.5215 89.7461-36.4746C89.7461-38.5254 88.3301-39.7949 86.2305-39.7949L69.9219-39.7949C69.3359-42.041 68.8477-44.3359 68.8477-46.9727C68.8477-53.1738 73.1445-57.373 81.0547-57.373C86.3281-57.373 88.4277-56.0059 90.4297-56.0059C92.8223-56.0059 94.1406-57.373 94.1406-59.6191C94.1406-61.3281 93.3594-62.6465 91.1621-63.6719C88.4766-64.8926 84.8633-65.5762 80.127-65.5762C66.9434-65.5762 59.3262-58.252 59.3262-47.2656C59.3262-44.7266 59.7656-42.2363 60.4004-39.7949L55.127-39.7949C53.0273-39.7949 51.6113-38.5254 51.6113-36.4746C51.6113-34.5215 53.0273-33.1543 55.127-33.1543L61.9629-33.1543C62.3535-31.3965 62.6953-29.6387 62.6953-27.9785C62.6953-22.0703 59.2285-17.8711 54.9316-16.4551C52.7344-15.3809 51.5137-14.1602 51.5137-11.8652C51.5137-9.42383 53.1738-7.8125 55.7129-7.8125Z"/>
  </g>
  <g id="Medium-L" transform="matrix(1 0 0 1 1672.31 1556)">
   <path d="M35.9375 22.998L112.5 22.998C125.635 22.998 132.422 16.2109 132.422 3.27148L132.422-73.6328C132.422-86.5234 125.635-93.3105 112.5-93.3105L35.9375-93.3105C22.9004-93.3105 16.0645-86.5723 16.0645-73.6328L16.0645 3.27148C16.0645 16.2598 22.9004 22.998 35.9375 22.998ZM36.5723 12.2559C30.2246 12.2559 26.8066 8.98438 26.8066 2.39258L26.8066-72.7051C26.8066-79.2969 30.2246-82.6172 36.5723-82.6172L111.865-82.6172C118.115-82.6172 121.68-79.2969 121.68-72.7051L121.68 2.39258C121.68 8.98438 118.115 12.2559 111.865 12.2559ZM54.7363-7.51953L91.748-7.51953C94.043-7.51953 95.6055-9.0332 95.6055-11.2793C95.6055-13.5742 94.043-15.0391 91.748-15.0391L65.5273-15.0391C68.7012-17.7246 70.8496-22.4121 70.8496-27.3926C70.8496-29.541 70.5566-31.4453 70.1172-33.2031L85.5469-33.2031C87.5-33.2031 88.8672-34.5215 88.8672-36.4258C88.8672-38.3301 87.5-39.5996 85.5469-39.5996L68.6523-39.5996C68.0176-41.9434 67.5293-44.4336 67.5293-47.2656C67.5293-53.8086 71.9727-58.252 80.2246-58.252C85.6934-58.252 87.9883-56.7871 89.8438-56.7871C92.041-56.7871 93.2129-58.0566 93.2129-60.0586C93.2129-61.7188 92.4805-62.9395 90.2832-63.916C87.5977-65.0391 84.082-65.7227 79.541-65.7227C66.5527-65.7227 58.9844-58.3984 58.9844-47.2656C58.9844-44.6777 59.4727-42.0898 60.1562-39.5996L54.5898-39.5996C52.5879-39.5996 51.2695-38.3301 51.2695-36.4258C51.2695-34.5215 52.5879-33.2031 54.5898-33.2031L61.6699-33.2031C62.1582-31.25 62.5488-29.248 62.5488-27.3438C62.5488-21.1426 58.8379-16.748 54.1504-15.3809C52.0508-14.502 50.9277-13.3789 50.9277-11.2793C50.9277-9.0332 52.4902-7.51953 54.7363-7.51953Z"/>
  </g>
  <g id="Regular-L" transform="matrix(1 0 0 1 1376.38 1556)">
   <path d="M35.0586 22.2168L111.816 22.2168C124.463 22.2168 130.859 15.8691 130.859 3.41797L130.859-73.7305C130.859-86.1816 124.463-92.5293 111.816-92.5293L35.0586-92.5293C22.4609-92.5293 16.0645-86.2305 16.0645-73.7305L16.0645 3.41797C16.0645 15.918 22.4609 22.2168 35.0586 22.2168ZM35.2539 13.5742C28.418 13.5742 24.707 9.96094 24.707 2.97852L24.707-73.291C24.707-80.2734 28.418-83.8867 35.2539-83.8867L111.67-83.8867C118.359-83.8867 122.217-80.2734 122.217-73.291L122.217 2.97852C122.217 9.96094 118.359 13.5742 111.67 13.5742ZM53.4668-7.17773L91.4551-7.17773C93.4082-7.17773 94.7754-8.44727 94.7754-10.4004C94.7754-12.3535 93.4082-13.6719 91.4551-13.6719L63.6719-13.6719C66.9434-16.4062 69.2871-21.4844 69.2871-26.7578C69.2871-29.1504 68.9453-31.2988 68.457-33.3008L84.6191-33.3008C86.4258-33.3008 87.6953-34.4727 87.6953-36.2793C87.6953-38.0859 86.4258-39.3066 84.6191-39.3066L66.9922-39.3066C66.3086-41.8457 65.7227-44.5312 65.7227-47.6562C65.7227-54.6387 70.459-59.4238 79.1016-59.4238C84.9121-59.4238 87.4023-57.7637 89.0137-57.7637C91.0645-57.7637 91.9922-58.9844 91.9922-60.6934C91.9922-62.207 91.3086-63.3301 89.0625-64.209C86.4258-65.2344 83.0078-65.918 78.7598-65.918C66.0156-65.918 58.5938-58.5938 58.5938-47.2656C58.5938-44.5312 59.082-41.8945 59.8145-39.3066L53.8574-39.3066C52.0508-39.3066 50.7812-38.0859 50.7812-36.2793C50.7812-34.4727 52.0508-33.3008 53.8574-33.3008L61.2793-33.3008C61.8652-31.0059 62.3047-28.7598 62.3047-26.5137C62.3047-19.9707 58.3008-15.2832 53.125-13.9648C51.123-13.3789 50.2441-12.3535 50.2441-10.4492C50.2441-8.49609 51.5137-7.17773 53.4668-7.17773Z"/>
  </g>
  <g id="Light-L" transform="matrix(1 0 0 1 1080.5 1556)">
   <path d="M34.0332 21.4355L111.23 21.4355C123.096 21.4355 129.199 15.2344 129.199 3.56445L129.199-73.8281C129.199-85.5469 123.096-91.6992 111.23-91.6992L34.0332-91.6992C22.168-91.6992 16.0645-85.6445 16.0645-73.8281L16.0645 3.56445C16.0645 15.3809 22.168 21.4355 34.0332 21.4355ZM34.1797 14.7949C26.709 14.7949 22.7051 10.8398 22.7051 3.22266L22.7051-73.4863C22.7051-81.1523 26.709-85.0586 34.1797-85.0586L111.035-85.0586C118.359-85.0586 122.559-81.1523 122.559-73.4863L122.559 3.22266C122.559 10.8398 118.359 14.7949 111.035 14.7949ZM52.4902-7.8125L90.0391-7.8125C91.6504-7.8125 92.7246-8.83789 92.7246-10.4004C92.7246-12.0117 91.6504-13.0371 90.0391-13.0371L61.6211-13.0371C64.9902-15.7715 67.5293-20.8984 67.5293-26.0742C67.5293-28.7598 67.0898-31.1035 66.5527-33.3984L83.2031-33.3984C84.7168-33.3984 85.7422-34.375 85.7422-35.8398C85.7422-37.3535 84.7168-38.3301 83.2031-38.3301L65.2832-38.3301C64.502-41.1621 63.8184-43.9941 63.8184-47.2168C63.8184-54.3457 68.4082-59.4238 77.5391-59.4238C83.8867-59.4238 86.2305-57.4707 87.6465-57.4707C89.3066-57.4707 90.0879-58.4473 90.0879-59.8633C90.0879-61.0352 89.5508-61.9629 87.5977-62.793C85.3516-63.6719 81.9336-64.6484 77.2949-64.6484C64.8438-64.6484 58.1055-57.5684 58.1055-46.9727C58.1055-43.9941 58.7402-41.1133 59.5215-38.3301L53.418-38.3301C51.9043-38.3301 50.8789-37.3535 50.8789-35.8398C50.8789-34.375 51.9043-33.3984 53.418-33.3984L60.791-33.3984C61.4258-30.9082 61.9629-28.4668 61.9629-25.9277C61.9629-19.6777 58.0566-14.5508 52.2461-13.2812C50.6836-12.8418 49.9023-12.0605 49.9023-10.4492C49.9023-8.88672 50.9277-7.8125 52.4902-7.8125Z"/>
  </g>
  <g id="Thin-L" transform="matrix(1 0 0 1 784.889 1556)">
   <path d="M32.666 20.3613L110.352 20.3613C121.24 20.3613 127.002 14.4531 127.002 3.75977L127.002-73.9746C127.002-84.7168 121.24-90.5762 110.352-90.5762L32.666-90.5762C21.7773-90.5762 16.0645-84.8633 16.0645-73.9746L16.0645 3.75977C16.0645 14.6484 21.7773 20.3613 32.666 20.3613ZM32.8125 16.4062C24.4141 16.4062 19.9707 12.0117 19.9707 3.56445L19.9707-73.7793C19.9707-82.2754 24.4141-86.6699 32.8125-86.6699L110.205-86.6699C118.359-86.6699 123.047-82.2754 123.047-73.7793L123.047 3.56445C123.047 12.0117 118.359 16.4062 110.205 16.4062ZM51.2207-8.59375L88.2324-8.59375C89.3066-8.59375 90.0391-9.32617 90.0391-10.4004C90.0391-11.5234 89.3066-12.2559 88.2324-12.2559L58.9355-12.2559C62.4512-14.8926 65.1855-20.166 65.1855-25.1465C65.1855-28.1738 64.6484-30.9082 63.9648-33.4961L81.3965-33.4961C82.4707-33.4961 83.2031-34.1797 83.2031-35.2539C83.2031-36.3281 82.4707-37.0605 81.3965-37.0605L62.9883-37.0605C62.0605-40.1855 61.2305-43.2617 61.2305-46.6797C61.2305-54.0039 65.625-59.4238 75.4395-59.4238C82.4707-59.4238 84.668-57.0801 85.8887-57.0801C87.0605-57.0801 87.5488-57.8125 87.5488-58.7402C87.5488-59.4727 87.3047-60.1074 85.5957-60.8887C83.8867-61.6211 80.5664-62.9883 75.3906-62.9883C63.2812-62.9883 57.5195-56.2012 57.5195-46.6309C57.5195-43.2617 58.252-40.1367 59.1797-37.0605L52.832-37.0605C51.7578-37.0605 51.0254-36.3281 51.0254-35.2539C51.0254-34.1797 51.7578-33.4961 52.832-33.4961L60.1562-33.4961C60.8887-30.8105 61.4746-28.0762 61.4746-25.0977C61.4746-19.2383 57.7637-13.5742 51.0742-12.3535C50.0977-12.1582 49.4141-11.6699 49.4141-10.498C49.4141-9.375 50.1465-8.59375 51.2207-8.59375Z"/>
  </g>
  <g id="Ultralight-L" transform="matrix(1 0 0 1 488.739 1556)">
   <path d="M31.9824 19.7754L109.961 19.7754C120.312 19.7754 125.879 14.0625 125.879 3.85742L125.879-74.0723C125.879-84.2773 120.312-89.9902 109.961-89.9902L31.9824-89.9902C21.582-89.9902 16.0645-84.4727 16.0645-74.0723L16.0645 3.85742C16.0645 14.2578 21.582 19.7754 31.9824 19.7754ZM32.1289 17.2363C23.1934 17.2363 18.6035 12.6465 18.6035 3.75977L18.6035-73.9258C18.6035-82.8125 23.1934-87.4512 32.1289-87.4512L109.766-87.4512C118.359-87.4512 123.291-82.8125 123.291-73.9258L123.291 3.75977C123.291 12.6465 118.359 17.2363 109.766 17.2363ZM50.5859-9.0332L87.3047-9.0332C88.1348-9.0332 88.6719-9.57031 88.6719-10.4004C88.6719-11.2793 88.1348-11.8164 87.3047-11.8164L57.5684-11.8164C61.1328-14.4531 64.0137-19.8242 64.0137-24.6582C64.0137-27.8809 63.4277-30.8105 62.6465-33.5449L80.4688-33.5449C81.2988-33.5449 81.8848-34.082 81.8848-34.9609C81.8848-35.8398 81.2988-36.4258 80.4688-36.4258L61.8652-36.4258C60.8398-39.6973 59.9121-42.8711 59.9121-46.3867C59.9121-53.8574 64.209-59.375 74.3652-59.375C81.7871-59.375 83.8867-56.8848 84.9609-56.8848C85.8887-56.8848 86.2305-57.4707 86.2305-58.1543C86.2305-58.6914 86.1328-59.1797 84.5703-59.9121C83.1055-60.5957 79.834-62.1094 74.4141-62.1094C62.5-62.1094 57.1777-55.5176 57.1777-46.4355C57.1777-42.8711 58.0078-39.5996 59.0332-36.4258L52.5391-36.4258C51.6602-36.4258 51.123-35.8398 51.123-34.9609C51.123-34.082 51.6602-33.5449 52.5391-33.5449L59.8145-33.5449C60.5957-30.7129 61.2305-27.832 61.2305-24.707C61.2305-18.9941 57.5684-13.0859 50.4395-11.8652C49.8047-11.7676 49.1699-11.4258 49.1699-10.498C49.1699-9.66797 49.7559-9.0332 50.5859-9.0332Z"/>
  </g>
  <g id="Black-M" transform="matrix(1 0 0 1 2872.19 1126)">
   <path d="M31.9824 13.5742L90.4297 13.5742C102.686 13.5742 109.961 6.29883 109.961-5.95703L109.961-64.4043C109.961-76.6602 102.686-83.9355 90.4297-83.9355L31.9824-83.9355C19.7266-83.9355 12.4512-76.6602 12.4512-64.4043L12.4512-5.95703C12.4512 6.29883 19.7266 13.5742 31.9824 13.5742ZM34.9121-4.73633C32.0801-4.73633 30.7617-5.81055 30.7617-8.88672L30.7617-61.4746C30.7617-64.5508 32.0801-65.6738 34.9121-65.6738L87.5-65.6738C90.332-65.6738 91.6504-64.5508 91.6504-61.4746L91.6504-8.88672C91.6504-5.81055 90.332-4.73633 87.5-4.73633ZM48.584-15.9668L71.9727-15.9668C75.2441-15.9668 77.4902-18.0176 77.4902-21.2891C77.4902-24.5605 75.2441-26.5625 71.9727-26.5625L59.6191-26.5625C61.377-28.3203 62.207-30.0781 62.207-31.9336C62.207-32.4707 62.1582-32.959 62.1094-33.252L70.459-33.252C72.6074-33.252 73.9258-34.6191 73.9258-36.5234C73.9258-38.4277 72.6074-39.6973 70.459-39.6973L60.9863-39.6973C60.791-40.5273 60.6445-41.4062 60.6445-42.2363C60.6445-45.1172 62.6953-46.875 67.1387-46.875C69.9707-46.875 70.6543-46.5332 73.1445-46.5332C75.6836-46.5332 77.6855-47.9004 77.6855-50.7324C77.6855-52.5879 76.9531-53.9551 75.4395-55.0293C73.4863-56.3965 70.2148-57.1289 64.9414-57.1289C53.8086-57.1289 47.6562-51.6602 47.6562-44.4336C47.6562-42.7734 47.9492-41.2598 48.3398-39.6973L45.8496-39.6973C43.6523-39.6973 42.334-38.4277 42.334-36.5234C42.334-34.6191 43.6523-33.252 45.8496-33.252L49.5117-33.252C49.5117-33.252 49.5117-33.1543 49.5117-33.1055C49.5117-30.3223 48.1934-28.2227 46.875-26.8066C44.873-24.8047 43.1152-23.6328 43.1152-20.8984C43.1152-17.9199 45.3613-15.9668 48.584-15.9668Z"/>
  </g>
  <g id="Heavy-M" transform="matrix(1 0 0 1 2576.39 1126)">
   <path d="M31.0059 12.6465L89.6484 12.6465C101.416 12.6465 108.154 5.9082 108.154-5.81055L108.154-64.5508C108.154-76.2695 101.416-83.0566 89.6484-83.0566L31.0059-83.0566C19.2383-83.0566 12.4512-76.3184 12.4512-64.5508L12.4512-5.81055C12.4512 5.9082 19.2383 12.6465 31.0059 12.6465ZM33.252-3.17383C29.9316-3.17383 28.2715-4.63867 28.2715-8.1543L28.2715-62.207C28.2715-65.7715 29.9316-67.2363 33.252-67.2363L87.3535-67.2363C90.6738-67.2363 92.334-65.7715 92.334-62.207L92.334-8.1543C92.334-4.63867 90.6738-3.17383 87.3535-3.17383ZM47.0215-15.2832L71.875-15.2832C74.8047-15.2832 76.8066-17.1387 76.8066-20.0684C76.8066-22.9492 74.8047-24.7559 71.875-24.7559L57.4707-24.7559C59.375-26.6113 60.4492-28.8574 60.4492-31.25C60.4492-32.0801 60.3516-32.8125 60.2539-33.3496L69.4824-33.3496C71.5332-33.3496 72.8027-34.668 72.8027-36.4746C72.8027-38.3301 71.5332-39.502 69.4824-39.502L59.082-39.502C58.8379-40.5762 58.5938-41.6992 58.5938-42.9199C58.5938-46.3379 61.084-48.5352 65.9668-48.5352C69.1406-48.5352 70.1172-47.998 72.3633-47.998C74.707-47.998 76.416-49.3164 76.416-51.8555C76.416-53.5645 75.7324-54.8828 74.1211-55.8594C72.0703-57.1289 68.9941-57.7148 64.209-57.7148C53.3203-57.7148 47.168-52.1973 47.168-44.4824C47.168-42.7734 47.5098-41.1621 47.9004-39.502L44.9219-39.502C42.8711-39.502 41.6016-38.3301 41.6016-36.4746C41.6016-34.668 42.8711-33.3496 44.9219-33.3496L49.1211-33.3496C49.2188-32.959 49.2676-32.4707 49.2676-32.0801C49.2676-28.7109 47.5098-26.3184 45.6055-25C43.7012-23.3398 42.1387-22.2168 42.1387-19.7754C42.1387-17.041 44.1406-15.2832 47.0215-15.2832Z"/>
  </g>
  <g id="Bold-M" transform="matrix(1 0 0 1 2280.68 1126)">
   <path d="M29.8828 11.6699L88.7207 11.6699C99.9512 11.6699 106.152 5.46875 106.152-5.66406L106.152-64.6973C106.152-75.8789 99.9512-82.0312 88.7207-82.0312L29.8828-82.0312C18.6523-82.0312 12.4512-75.8789 12.4512-64.6973L12.4512-5.66406C12.4512 5.51758 18.6523 11.6699 29.8828 11.6699ZM31.3965-1.41602C27.5391-1.41602 25.5371-3.27148 25.5371-7.32422L25.5371-63.0371C25.5371-67.1387 27.5391-68.9453 31.3965-68.9453L87.207-68.9453C91.0156-68.9453 93.0664-67.1387 93.0664-63.0371L93.0664-7.32422C93.0664-3.27148 91.0156-1.41602 87.207-1.41602ZM45.2637-14.5508L71.8262-14.5508C74.3164-14.5508 76.0742-16.1621 76.0742-18.6523C76.0742-21.1426 74.3164-22.7051 71.8262-22.7051L55.0781-22.7051C57.1777-24.6582 58.4473-27.4902 58.4473-30.5176C58.4473-31.6406 58.3496-32.6172 58.1543-33.4961L68.4082-33.4961C70.2637-33.4961 71.4844-34.668 71.4844-36.4258C71.4844-38.1836 70.2637-39.3066 68.4082-39.3066L56.9336-39.3066C56.6406-40.6738 56.3477-42.0898 56.3477-43.6523C56.3477-47.7539 59.2773-50.4395 64.6973-50.4395C68.2129-50.4395 69.5312-49.707 71.4355-49.707C73.584-49.707 75.0488-50.8789 75.0488-53.0762C75.0488-54.6875 74.3164-55.9082 72.6562-56.7871C70.5566-57.9102 67.5781-58.4473 63.3789-58.4473C52.832-58.4473 46.6797-52.7832 46.6797-44.5801C46.6797-42.7734 46.9727-41.0156 47.4121-39.3066L43.8965-39.3066C42.041-39.3066 40.8203-38.1836 40.8203-36.4258C40.8203-34.668 42.041-33.4961 43.8965-33.4961L48.6328-33.4961C48.8281-32.6172 48.9746-31.7383 48.9746-30.957C48.9746-26.9531 46.7285-24.2188 44.2383-22.998C42.3828-21.6797 41.1133-20.6543 41.1133-18.457C41.1133-16.1133 42.8223-14.5508 45.2637-14.5508Z"/>
  </g>
  <g id="Semibold-M" transform="matrix(1 0 0 1 1984.65 1126)">
   <path d="M29.1016 10.9863L88.0859 10.9863C98.9746 10.9863 104.785 5.17578 104.785-5.56641L104.785-64.8438C104.785-75.5859 98.9746-81.3477 88.0859-81.3477L29.1016-81.3477C18.2617-81.3477 12.4512-75.5859 12.4512-64.8438L12.4512-5.56641C12.4512 5.22461 18.2617 10.9863 29.1016 10.9863ZM30.127-0.195312C25.8789-0.195312 23.6328-2.34375 23.6328-6.78711L23.6328-63.623C23.6328-68.0664 25.8789-70.166 30.127-70.166L87.1094-70.166C91.2598-70.166 93.6035-68.0664 93.6035-63.623L93.6035-6.78711C93.6035-2.34375 91.2598-0.195312 87.1094-0.195312ZM44.0918-14.0625L71.7773-14.0625C73.9746-14.0625 75.5371-15.4785 75.5371-17.6758C75.5371-19.9219 73.9746-21.3379 71.7773-21.3379L53.418-21.3379C55.6641-23.3398 57.0801-26.5137 57.0801-29.9805C57.0801-31.2988 56.9336-32.4707 56.6895-33.5449L67.6758-33.5449C69.4336-33.5449 70.6055-34.7168 70.6055-36.377C70.6055-38.0371 69.4336-39.1602 67.6758-39.1602L55.4688-39.1602C55.127-40.7227 54.7852-42.334 54.7852-44.1895C54.7852-48.7305 58.0078-51.7578 63.7695-51.7578C67.5293-51.7578 69.0918-50.8301 70.8496-50.8301C72.8516-50.8301 74.0723-52.002 74.0723-53.9551C74.0723-55.4688 73.3887-56.5918 71.6797-57.4219C69.4824-58.4473 66.6016-58.9355 62.8418-58.9355C52.4414-58.9355 46.2891-53.1738 46.2891-44.6289C46.2891-42.7734 46.6309-40.9668 47.0703-39.1602L43.2129-39.1602C41.4551-39.1602 40.2344-38.0371 40.2344-36.377C40.2344-34.7168 41.4551-33.5449 43.2129-33.5449L48.3398-33.5449C48.584-32.4219 48.8281-31.25 48.8281-30.1758C48.8281-25.7324 46.2402-22.7539 43.3105-21.582C41.4551-20.5566 40.3809-19.5312 40.3809-17.5781C40.3809-15.4297 41.8945-14.0625 44.0918-14.0625Z"/>
  </g>
  <g id="Medium-M" transform="matrix(1 0 0 1 1688.47 1126)">
   <path d="M28.5156 10.4492L87.6465 10.4492C98.2422 10.4492 103.711 4.98047 103.711-5.46875L103.711-64.8926C103.711-75.3418 98.2422-80.8105 87.6465-80.8105L28.5156-80.8105C17.9688-80.8105 12.4512-75.3906 12.4512-64.8926L12.4512-5.46875C12.4512 4.98047 17.9688 10.4492 28.5156 10.4492ZM29.1504 0.732422C24.6582 0.732422 22.168-1.61133 22.168-6.34766L22.168-64.0137C22.168-68.75 24.6582-71.0938 29.1504-71.0938L87.0117-71.0938C91.4551-71.0938 93.9941-68.75 93.9941-64.0137L93.9941-6.34766C93.9941-1.61133 91.4551 0.732422 87.0117 0.732422ZM43.1641-13.6719L71.7285-13.6719C73.7305-13.6719 75.1465-14.9414 75.1465-16.9434C75.1465-18.9453 73.7305-20.2637 71.7285-20.2637L52.1484-20.2637C54.4922-22.3145 56.0547-25.8301 56.0547-29.5898C56.0547-31.1035 55.8594-32.373 55.6152-33.5938L67.0898-33.5938C68.7988-33.5938 69.9219-34.7168 69.9219-36.3281C69.9219-37.9883 68.7988-39.0625 67.0898-39.0625L54.3457-39.0625C53.9551-40.7227 53.6133-42.5293 53.6133-44.5801C53.6133-49.4629 57.0312-52.7344 63.0859-52.7344C67.041-52.7344 68.7988-51.709 70.3613-51.709C72.2656-51.709 73.3398-52.832 73.3398-54.5898C73.3398-56.0059 72.6562-57.1289 70.8984-57.9102C68.6523-58.8379 65.8691-59.2773 62.4512-59.2773C52.1484-59.2773 45.9961-53.5156 45.9961-44.6777C45.9961-42.7734 46.3379-40.8691 46.8262-39.0625L42.6758-39.0625C41.0156-39.0625 39.8438-37.9883 39.8438-36.3281C39.8438-34.7168 41.0156-33.5938 42.6758-33.5938L48.0957-33.5938C48.4375-32.2266 48.6816-30.8594 48.6816-29.5898C48.6816-24.8047 45.8496-21.6309 42.5781-20.5566C40.7715-19.7266 39.8438-18.75 39.8438-16.8945C39.8438-14.9414 41.1621-13.6719 43.1641-13.6719Z"/>
  </g>
  <g id="Regular-M" transform="matrix(1 0 0 1 1392.45 1126)">
   <path d="M27.7832 9.76562L87.0117 9.76562C97.2656 9.76562 102.344 4.6875 102.344-5.37109L102.344-64.9902C102.344-75.0488 97.2656-80.127 87.0117-80.127L27.7832-80.127C17.5781-80.127 12.4512-75.0977 12.4512-64.9902L12.4512-5.37109C12.4512 4.73633 17.5781 9.76562 27.7832 9.76562ZM27.8809 1.9043C22.998 1.9043 20.3125-0.683594 20.3125-5.76172L20.3125-64.5996C20.3125-69.6777 22.998-72.2656 27.8809-72.2656L86.9141-72.2656C91.748-72.2656 94.4824-69.6777 94.4824-64.5996L94.4824-5.76172C94.4824-0.683594 91.748 1.9043 86.9141 1.9043ZM41.9922-13.1348L71.6797-13.1348C73.3887-13.1348 74.6094-14.2578 74.6094-16.0156C74.6094-17.7246 73.3887-18.8477 71.6797-18.8477L50.4883-18.8477C52.9785-20.9961 54.6875-24.9023 54.6875-29.0527C54.6875-30.7617 54.4922-32.2754 54.1504-33.6914L66.3574-33.6914C67.9199-33.6914 69.0918-34.7168 69.0918-36.3281C69.0918-37.8906 67.9199-38.916 66.3574-38.916L52.8809-38.916C52.4414-40.7715 52.0508-42.7734 52.0508-45.1172C52.0508-50.3906 55.8105-54.0039 62.207-54.0039C66.4062-54.0039 68.4082-52.8809 69.7266-52.8809C71.5332-52.8809 72.3633-53.9062 72.3633-55.4688C72.3633-56.7871 71.7285-57.8125 69.873-58.4961C67.627-59.375 64.9414-59.7656 61.8652-59.7656C51.8066-59.7656 45.6543-53.9062 45.6543-44.7266C45.6543-42.7734 45.9961-40.8203 46.4844-38.916L41.9922-38.916C40.4297-38.916 39.3066-37.8906 39.3066-36.3281C39.3066-34.7168 40.4297-33.6914 41.9922-33.6914L47.7539-33.6914C48.1934-32.0312 48.4863-30.3711 48.4863-28.8086C48.4863-23.6328 45.3125-20.2148 41.6504-19.1895C39.8926-18.6035 39.1113-17.6758 39.1113-16.0156C39.1113-14.3066 40.2832-13.1348 41.9922-13.1348Z"/>
  </g>
  <g id="Light-M" transform="matrix(1 0 0 1 1096.47 1126)">
   <path d="M26.8555 9.0332L86.4746 9.0332C95.9961 9.0332 100.879 4.15039 100.879-5.22461L100.879-65.0879C100.879-74.5117 95.9961-79.3945 86.4746-79.3945L26.8555-79.3945C17.334-79.3945 12.4512-74.5605 12.4512-65.0879L12.4512-5.22461C12.4512 4.19922 17.334 9.0332 26.8555 9.0332ZM26.9531 2.97852C21.4844 2.97852 18.5059 0.0976562 18.5059-5.56641L18.5059-64.7949C18.5059-70.4102 21.4844-73.3398 26.9531-73.3398L86.3281-73.3398C91.748-73.3398 94.8242-70.4102 94.8242-64.7949L94.8242-5.56641C94.8242 0.0976562 91.748 2.97852 86.3281 2.97852ZM41.1133-13.6719L70.4102-13.6719C71.8262-13.6719 72.8027-14.5996 72.8027-16.0156C72.8027-17.3828 71.8262-18.3105 70.4102-18.3105L48.6816-18.3105C51.2695-20.4102 53.125-24.3652 53.125-28.4668C53.125-30.3711 52.832-32.1289 52.4414-33.7402L65.1367-33.7402C66.4062-33.7402 67.334-34.6191 67.334-35.8887C67.334-37.207 66.4062-38.0371 65.1367-38.0371L51.3672-38.0371C50.8301-40.1367 50.293-42.2852 50.293-44.7266C50.293-50.1953 53.9551-54.0039 60.791-54.0039C65.4785-54.0039 67.334-52.5879 68.5547-52.5879C70.0195-52.5879 70.6543-53.4668 70.6543-54.6875C70.6543-55.7617 70.166-56.543 68.5547-57.2266C66.6504-57.959 63.9648-58.5938 60.5469-58.5938C50.7812-58.5938 45.2637-52.9785 45.2637-44.4824C45.2637-42.2852 45.6543-40.1367 46.2402-38.0371L41.6016-38.0371C40.2832-38.0371 39.4043-37.207 39.4043-35.8887C39.4043-34.6191 40.2832-33.7402 41.6016-33.7402L47.3145-33.7402C47.8027-31.9336 48.1445-30.127 48.1445-28.2715C48.1445-23.291 45.1172-19.5312 40.8691-18.5547C39.4531-18.1152 38.8184-17.3828 38.8184-16.0156C38.8184-14.6484 39.7461-13.6719 41.1133-13.6719Z"/>
  </g>
  <g id="Thin-M" transform="matrix(1 0 0 1 800.758 1126)">
   <path d="M25.6348 8.05664L85.7422 8.05664C94.3848 8.05664 98.877 3.4668 98.877-5.0293L98.877-65.2344C98.877-73.7305 94.3848-78.3691 85.7422-78.3691L25.6348-78.3691C16.9922-78.3691 12.4512-73.877 12.4512-65.2344L12.4512-5.0293C12.4512 3.56445 16.9922 8.05664 25.6348 8.05664ZM25.7324 4.44336C19.3848 4.44336 16.0645 1.12305 16.0645-5.22461L16.0645-65.0391C16.0645-71.4355 19.3848-74.7559 25.7324-74.7559L85.5957-74.7559C91.748-74.7559 95.2637-71.4355 95.2637-65.0391L95.2637-5.22461C95.2637 1.12305 91.748 4.44336 85.5957 4.44336ZM39.9902-14.4043L68.75-14.4043C69.7266-14.4043 70.3613-15.0391 70.3613-16.0156C70.3613-16.9434 69.7266-17.5781 68.75-17.5781L46.2402-17.5781C48.9258-19.6777 51.0254-23.7305 51.0254-27.6367C51.0254-29.8828 50.6348-31.9336 50.1465-33.8379L63.4766-33.8379C64.4043-33.8379 65.0391-34.4727 65.0391-35.4004C65.0391-36.3281 64.4043-36.9141 63.4766-36.9141L49.3164-36.9141C48.6328-39.2578 47.998-41.6016 47.998-44.2383C47.998-49.8535 51.4648-53.9551 58.8867-53.9551C64.209-53.9551 65.9668-52.2461 66.9434-52.2461C67.9688-52.2461 68.3594-52.8809 68.3594-53.6621C68.3594-54.3457 68.1641-54.9316 66.7969-55.5176C65.332-56.1523 62.7441-57.0801 58.8379-57.0801C49.3652-57.0801 44.6777-51.8066 44.6777-44.1406C44.6777-41.6016 45.2637-39.2578 45.9473-36.9141L41.0645-36.9141C40.1367-36.9141 39.502-36.3281 39.502-35.4004C39.502-34.4727 40.1367-33.8379 41.0645-33.8379L46.7773-33.8379C47.3145-31.8359 47.7539-29.7363 47.7539-27.5391C47.7539-22.9004 44.8242-18.6523 39.8438-17.7246C38.9648-17.4805 38.3789-17.041 38.3789-16.0645C38.3789-15.0879 39.0137-14.4043 39.9902-14.4043Z"/>
  </g>
  <g id="Ultralight-M" transform="matrix(1 0 0 1 504.535 1126)">
   <path d="M25 7.56836L85.3516 7.56836C93.5059 7.56836 97.9004 3.125 97.9004-4.98047L97.9004-65.2832C97.9004-73.3887 93.5059-77.832 85.3516-77.832L25-77.832C16.7969-77.832 12.4512-73.4863 12.4512-65.2832L12.4512-4.98047C12.4512 3.22266 16.7969 7.56836 25 7.56836ZM25.0977 5.17578C18.3594 5.17578 14.8438 1.66016 14.8438-5.07812L14.8438-65.1855C14.8438-71.9727 18.3594-75.4395 25.0977-75.4395L85.2051-75.4395C91.748-75.4395 95.5078-71.9727 95.5078-65.1855L95.5078-5.07812C95.5078 1.66016 91.748 5.17578 85.2051 5.17578ZM39.4043-14.7949L67.9199-14.7949C68.6523-14.7949 69.1406-15.2832 69.1406-16.0156C69.1406-16.748 68.6523-17.2363 67.9199-17.2363L45.0195-17.2363C47.7539-19.2871 49.9512-23.3887 49.9512-27.1973C49.9512-29.6387 49.5117-31.8359 48.9746-33.8867L62.6465-33.8867C63.3789-33.8867 63.8672-34.375 63.8672-35.1074C63.8672-35.8398 63.3789-36.3281 62.6465-36.3281L48.291-36.3281C47.5098-38.8184 46.8262-41.2598 46.8262-43.9453C46.8262-49.707 50.1953-53.9551 57.959-53.9551C63.5742-53.9551 65.2344-52.0508 66.1133-52.0508C66.8945-52.0508 67.2363-52.5391 67.2363-53.1738C67.2363-53.6621 67.0898-54.0527 65.8691-54.6387C64.6484-55.1758 62.1094-56.3477 57.959-56.3477C48.6816-56.3477 44.4336-51.1719 44.4336-43.9941C44.4336-41.2598 45.0195-38.7695 45.8008-36.3281L40.8203-36.3281C40.0879-36.3281 39.5996-35.8398 39.5996-35.1074C39.5996-34.375 40.0879-33.8867 40.8203-33.8867L46.4844-33.8867C47.0215-31.7871 47.5586-29.5898 47.5586-27.1973C47.5586-22.7051 44.6777-18.2129 39.3066-17.2852C38.6719-17.1387 38.1836-16.8457 38.1836-16.0645C38.1836-15.332 38.6719-14.7949 39.4043-14.7949Z"/>
  </g>
  <g id="Black-S" transform="matrix(1 0 0 1 2885.5 696)">
   <path d="M25 2.92969L70.8008 2.92969C80.3711 2.92969 86.0352-2.73438 86.0352-12.3047L86.0352-58.1055C86.0352-67.6758 80.3711-73.3398 70.8008-73.3398L25-73.3398C15.4297-73.3398 9.76562-67.6758 9.76562-58.1055L9.76562-12.3047C9.76562-2.73438 15.4297 2.92969 25 2.92969ZM27.2461-11.2305C25-11.2305 23.9258-12.1094 23.9258-14.5508L23.9258-55.8594C23.9258-58.3008 25-59.1797 27.2461-59.1797L68.5547-59.1797C70.8008-59.1797 71.875-58.3008 71.875-55.8594L71.875-14.5508C71.875-12.1094 70.8008-11.2305 68.5547-11.2305ZM37.9395-20.0684L56.3965-20.0684C58.9355-20.0684 60.6934-21.6797 60.6934-24.2188C60.6934-26.7578 58.9355-28.3203 56.3965-28.3203L46.582-28.3203C47.9492-29.6875 48.6328-31.1035 48.6328-32.6172C48.6328-33.0566 48.584-33.4473 48.5352-33.6914L55.127-33.6914C56.8359-33.6914 57.8613-34.7656 57.8613-36.2305C57.8613-37.7441 56.8359-38.7207 55.127-38.7207L47.6562-38.7207C47.5098-39.4043 47.3633-40.0879 47.3633-40.7715C47.3633-43.0664 49.0234-44.4824 52.5391-44.4824C54.7852-44.4824 55.3223-44.1895 57.2754-44.1895C59.2285-44.1895 60.791-45.2637 60.791-47.4609C60.791-48.9258 60.2051-50 59.0332-50.8301C57.4707-51.9043 54.9316-52.4414 50.8301-52.4414C42.1387-52.4414 37.3047-48.1445 37.3047-42.4316C37.3047-41.1621 37.5488-39.9414 37.8418-38.7207L35.8398-38.7207C34.1309-38.7207 33.1055-37.7441 33.1055-36.2305C33.1055-34.7656 34.1309-33.6914 35.8398-33.6914L38.7695-33.6914L38.7695-33.4961C38.7695-31.25 37.6953-29.5898 36.6211-28.5156C35.0586-26.9531 33.6914-26.0254 33.6914-23.9258C33.6914-21.582 35.4492-20.0684 37.9395-20.0684Z"/>
  </g>
  <g id="Heavy-S" transform="matrix(1 0 0 1 2589.4 696)">
   <path d="M24.3652 2.34375L70.2637 2.34375C79.541 2.34375 84.8145-2.97852 84.8145-12.207L84.8145-58.2031C84.8145-67.4316 79.541-72.7539 70.2637-72.7539L24.3652-72.7539C15.0879-72.7539 9.76562-67.4316 9.76562-58.2031L9.76562-12.207C9.76562-2.97852 15.0879 2.34375 24.3652 2.34375ZM26.0742-10.1562C23.5352-10.1562 22.2656-11.2793 22.2656-14.0137L22.2656-56.3965C22.2656-59.1309 23.5352-60.2539 26.0742-60.2539L68.5059-60.2539C71.0449-60.2539 72.3633-59.1309 72.3633-56.3965L72.3633-14.0137C72.3633-11.2793 71.0449-10.1562 68.5059-10.1562ZM36.8652-19.4824L56.4941-19.4824C58.7891-19.4824 60.3516-20.9473 60.3516-23.2422C60.3516-25.5371 58.7891-27.002 56.4941-27.002L45.1172-27.002C46.6309-28.418 47.4609-30.2246 47.4609-32.1777C47.4609-32.8125 47.3633-33.3496 47.3145-33.7402L54.541-33.7402C56.1523-33.7402 57.1777-34.8145 57.1777-36.2305C57.1777-37.6953 56.1523-38.6719 54.541-38.6719L46.3867-38.6719C46.1914-39.502 45.9961-40.3809 45.9961-41.3574C45.9961-44.043 47.998-45.752 51.8066-45.752C54.248-45.752 55.0293-45.3613 56.7871-45.3613C58.6426-45.3613 60.0098-46.3867 60.0098-48.3887C60.0098-49.8047 59.4238-50.8301 58.1543-51.6113C56.543-52.5879 54.1016-53.0273 50.4395-53.0273C41.8945-53.0273 37.0117-48.6328 37.0117-42.5293C37.0117-41.2109 37.207-39.9414 37.5488-38.6719L35.2051-38.6719C33.5449-38.6719 32.5684-37.6953 32.5684-36.2305C32.5684-34.8145 33.5449-33.7402 35.2051-33.7402L38.4766-33.7402C38.5742-33.4473 38.623-33.0566 38.623-32.7637C38.623-30.0781 37.207-28.2227 35.791-27.1973C34.1797-25.8789 33.0078-25 33.0078-23.0469C33.0078-20.8984 34.5703-19.4824 36.8652-19.4824Z"/>
  </g>
  <g id="Bold-S" transform="matrix(1 0 0 1 2293.35 696)">
   <path d="M23.6328 1.66016L69.6289 1.66016C78.6133 1.66016 83.4961-3.22266 83.4961-12.1094L83.4961-58.3008C83.4961-67.1875 78.6133-72.0703 69.6289-72.0703L23.6328-72.0703C14.6973-72.0703 9.76562-67.1875 9.76562-58.3008L9.76562-12.1094C9.76562-3.22266 14.6973 1.66016 23.6328 1.66016ZM24.8047-8.93555C21.9238-8.93555 20.3613-10.3516 20.3613-13.4277L20.3613-56.9824C20.3613-60.0586 21.9238-61.4746 24.8047-61.4746L68.457-61.4746C71.3379-61.4746 72.9004-60.0586 72.9004-56.9824L72.9004-13.4277C72.9004-10.3516 71.3379-8.93555 68.457-8.93555ZM35.6445-18.8477L56.5918-18.8477C58.5938-18.8477 60.0098-20.166 60.0098-22.2168C60.0098-24.2188 58.5938-25.4883 56.5918-25.4883L43.5059-25.4883C45.166-27.0508 46.1426-29.248 46.1426-31.6895C46.1426-32.4707 46.0449-33.2031 45.8984-33.8379L53.8574-33.8379C55.4199-33.8379 56.3965-34.8145 56.3965-36.2305C56.3965-37.6953 55.4199-38.623 53.8574-38.623L44.9219-38.623C44.6777-39.6484 44.4824-40.7227 44.4824-41.9434C44.4824-45.166 46.8262-47.2168 50.9766-47.2168C53.6621-47.2168 54.6875-46.6797 56.25-46.6797C58.0078-46.6797 59.1797-47.6562 59.1797-49.4629C59.1797-50.7812 58.5938-51.7578 57.2266-52.4414C55.4688-53.3691 53.125-53.7109 49.9512-53.7109C41.6016-53.7109 36.6211-49.2188 36.6211-42.627C36.6211-41.2598 36.8652-39.9414 37.207-38.623L34.4727-38.623C32.9102-38.623 31.9336-37.6953 31.9336-36.2305C31.9336-34.8145 32.9102-33.8379 34.4727-33.8379L38.1836-33.8379C38.3301-33.2031 38.4766-32.5684 38.4766-31.9824C38.4766-28.7598 36.6699-26.6602 34.8145-25.7324C33.252-24.707 32.2754-23.8281 32.2754-22.0703C32.2754-20.1172 33.6426-18.8477 35.6445-18.8477Z"/>
  </g>
  <g id="Semibold-S" transform="matrix(1 0 0 1 1997.1 696)">
   <path d="M23.0957 1.17188L69.1895 1.17188C77.9297 1.17188 82.5684-3.36914 82.5684-12.0117L82.5684-58.3984C82.5684-67.041 77.9297-71.582 69.1895-71.582L23.0957-71.582C14.4043-71.582 9.76562-67.041 9.76562-58.3984L9.76562-12.0117C9.76562-3.36914 14.4043 1.17188 23.0957 1.17188ZM23.877-8.10547C20.752-8.10547 19.0918-9.7168 19.0918-12.9883L19.0918-57.4219C19.0918-60.6934 20.752-62.3047 23.877-62.3047L68.4082-62.3047C71.5332-62.3047 73.2422-60.6934 73.2422-57.4219L73.2422-12.9883C73.2422-9.7168 71.5332-8.10547 68.4082-8.10547ZM34.7656-18.4082L56.6406-18.4082C58.4473-18.4082 59.7656-19.6289 59.7656-21.4355C59.7656-23.291 58.4473-24.4629 56.6406-24.4629L42.3828-24.4629C44.1406-26.0742 45.2148-28.5645 45.2148-31.2988C45.2148-32.2754 45.1172-33.1543 44.9707-33.8867L53.418-33.8867C54.8828-33.8867 55.8594-34.8633 55.8594-36.2793C55.8594-37.6953 54.8828-38.5742 53.418-38.5742L43.9453-38.5742C43.6523-39.7461 43.457-40.9668 43.457-42.3828C43.457-45.8984 46.0449-48.1934 50.4395-48.1934C53.2227-48.1934 54.4922-47.6074 55.8594-47.6074C57.5684-47.6074 58.5938-48.5352 58.5938-50.1953C58.5938-51.4648 57.959-52.3926 56.543-53.0762C54.7363-53.9062 52.4902-54.1992 49.6582-54.1992C41.4062-54.1992 36.377-49.6094 36.377-42.6758C36.377-41.3086 36.6211-39.9414 36.9629-38.5742L33.9844-38.5742C32.4707-38.5742 31.4941-37.6953 31.4941-36.2793C31.4941-34.8633 32.4707-33.8867 33.9844-33.8867L37.9883-33.8867C38.1836-33.0566 38.3301-32.1777 38.3301-31.4453C38.3301-27.832 36.2793-25.6348 34.1797-24.707C32.5684-23.877 31.7383-22.998 31.7383-21.3867C31.7383-19.5801 32.959-18.4082 34.7656-18.4082Z"/>
  </g>
  <g id="Medium-S" transform="matrix(1 0 0 1 1700.75 696)">
   <path d="M22.7051 0.830078L68.8965 0.830078C77.4414 0.830078 81.8359-3.51562 81.8359-11.9629L81.8359-58.4473C81.8359-66.8945 77.4414-71.2402 68.8965-71.2402L22.7051-71.2402C14.209-71.2402 9.76562-66.8945 9.76562-58.4473L9.76562-11.9629C9.76562-3.51562 14.209 0.830078 22.7051 0.830078ZM23.1934-7.4707C19.9219-7.4707 18.0664-9.22852 18.0664-12.6953L18.0664-57.7148C18.0664-61.1816 19.9219-62.9395 23.1934-62.9395L68.4082-62.9395C71.6797-62.9395 73.5352-61.1816 73.5352-57.7148L73.5352-12.6953C73.5352-9.22852 71.6797-7.4707 68.4082-7.4707ZM34.1309-18.1152L56.6895-18.1152C58.3984-18.1152 59.5703-19.1895 59.5703-20.8984C59.5703-22.6074 58.3984-23.6816 56.6895-23.6816L41.5527-23.6816C43.3594-25.3418 44.5312-28.0273 44.5312-31.0547C44.5312-32.1289 44.4336-33.0566 44.2383-33.9355L53.0273-33.9355C54.4922-33.9355 55.4688-34.8633 55.4688-36.2793C55.4688-37.6465 54.4922-38.5742 53.0273-38.5742L43.1641-38.5742C42.9199-39.7949 42.6758-41.1621 42.6758-42.7246C42.6758-46.4844 45.4102-48.9746 50-48.9746C52.8809-48.9746 54.2969-48.291 55.6152-48.291C57.2266-48.291 58.1055-49.2188 58.1055-50.7324C58.1055-51.9531 57.5195-52.8809 56.0547-53.5156C54.1992-54.2969 51.9531-54.541 49.4141-54.541C41.3086-54.541 36.2305-49.9023 36.2305-42.7246C36.2305-41.3574 36.4258-39.9414 36.7676-38.5742L33.5938-38.5742C32.1777-38.5742 31.1523-37.6465 31.1523-36.2793C31.1523-34.8633 32.1777-33.9355 33.5938-33.9355L37.8418-33.9355C38.0859-32.9102 38.2324-31.9336 38.2324-31.0059C38.2324-27.1484 35.9863-24.8047 33.6914-23.9746C32.0801-23.2422 31.3477-22.4121 31.3477-20.8496C31.3477-19.1895 32.4707-18.1152 34.1309-18.1152Z"/>
  </g>
  <g id="Regular-S" transform="matrix(1 0 0 1 1404.51 696)">
   <path d="M22.2168 0.390625L68.457 0.390625C76.8066 0.390625 80.9082-3.71094 80.9082-11.9141L80.9082-58.4961C80.9082-66.6992 76.8066-70.8008 68.457-70.8008L22.2168-70.8008C13.916-70.8008 9.76562-66.6992 9.76562-58.4961L9.76562-11.9141C9.76562-3.71094 13.916 0.390625 22.2168 0.390625ZM22.3145-6.68945C18.7988-6.68945 16.7969-8.54492 16.7969-12.2559L16.7969-58.1543C16.7969-61.8164 18.7988-63.7207 22.3145-63.7207L68.3594-63.7207C71.875-63.7207 73.877-61.8164 73.877-58.1543L73.877-12.2559C73.877-8.54492 71.875-6.68945 68.3594-6.68945ZM33.3008-17.6758L56.7383-17.6758C58.252-17.6758 59.3262-18.6523 59.3262-20.166C59.3262-21.6797 58.252-22.6562 56.7383-22.6562L40.4297-22.6562C42.334-24.3652 43.6035-27.3438 43.6035-30.7129C43.6035-31.9336 43.5059-33.0078 43.2617-33.9844L52.5879-33.9844C53.9551-33.9844 54.9316-34.9121 54.9316-36.2793C54.9316-37.6465 53.9551-38.5254 52.5879-38.5254L42.1875-38.5254C41.8945-39.8926 41.6016-41.3574 41.6016-43.1641C41.6016-47.2168 44.6289-49.9512 49.4141-49.9512C52.4902-49.9512 54.1016-49.1699 55.2246-49.1699C56.7871-49.1699 57.5684-50.0977 57.5684-51.4648C57.5684-52.6367 56.9336-53.5156 55.4199-54.1016C53.4668-54.834 51.3184-54.9805 49.1211-54.9805C41.1133-54.9805 35.9863-50.293 35.9863-42.7734C35.9863-41.3574 36.1816-39.9414 36.5234-38.5254L33.1055-38.5254C31.7383-38.5254 30.7129-37.6465 30.7129-36.2793C30.7129-34.9121 31.7383-33.9844 33.1055-33.9844L37.6465-33.9844C37.9395-32.7637 38.1348-31.543 38.1348-30.4688C38.1348-26.2695 35.5957-23.7793 33.0078-22.9492C31.4453-22.4121 30.8105-21.582 30.8105-20.166C30.8105-18.6523 31.7871-17.6758 33.3008-17.6758Z"/>
  </g>
  <g id="Light-S" transform="matrix(1 0 0 1 1108.46 696)">
   <path d="M21.3867-0.292969L67.9688-0.292969C75.7324-0.292969 79.5898-4.15039 79.5898-11.7676L79.5898-58.5938C79.5898-66.2109 75.7324-70.1172 67.9688-70.1172L21.3867-70.1172C13.6719-70.1172 9.76562-66.2598 9.76562-58.5938L9.76562-11.7676C9.76562-4.15039 13.6719-0.292969 21.3867-0.292969ZM21.4844-5.71289C17.4316-5.71289 15.1855-7.86133 15.1855-12.0605L15.1855-58.3008C15.1855-62.5 17.4316-64.6973 21.4844-64.6973L67.8711-64.6973C71.875-64.6973 74.1699-62.5 74.1699-58.3008L74.1699-12.0605C74.1699-7.86133 71.875-5.71289 67.8711-5.71289ZM32.5684-18.1641L55.6641-18.1641C56.8359-18.1641 57.7148-18.9453 57.7148-20.166C57.7148-21.3867 56.8359-22.168 55.6641-22.168L38.8184-22.168C40.8203-23.877 42.1875-26.9043 42.1875-30.1758C42.1875-31.5918 42.041-32.8613 41.748-34.0332L51.5137-34.0332C52.6367-34.0332 53.418-34.8145 53.418-35.9375C53.418-37.0605 52.6367-37.793 51.5137-37.793L40.8203-37.793C40.4297-39.3066 40.0879-40.918 40.0879-42.8223C40.0879-47.0215 42.9688-49.9512 48.1934-49.9512C51.6602-49.9512 53.1738-48.9258 54.1504-48.9258C55.4199-48.9258 56.0059-49.6582 56.0059-50.7812C56.0059-51.709 55.5664-52.4414 54.1992-52.9297C52.5879-53.5645 50.4883-54.0039 47.9492-54.0039C40.1855-54.0039 35.5957-49.5117 35.5957-42.5781C35.5957-40.918 35.8887-39.3555 36.3281-37.793L32.7637-37.793C31.6406-37.793 30.8105-37.0605 30.8105-35.9375C30.8105-34.8145 31.6406-34.0332 32.7637-34.0332L37.2559-34.0332C37.5977-32.666 37.8418-31.2988 37.8418-29.9805C37.8418-26.0254 35.4004-23.1934 32.3242-22.4121C31.1035-22.0215 30.5176-21.3379 30.5176-20.166C30.5176-18.9453 31.3477-18.1641 32.5684-18.1641Z"/>
  </g>
  <g id="Thin-S" transform="matrix(1 0 0 1 812.599 696)">
   <path d="M20.3125-1.12305L67.334-1.12305C74.2676-1.12305 77.8809-4.78516 77.8809-11.6211L77.8809-58.6914C77.8809-65.5762 74.2676-69.2383 67.334-69.2383L20.3125-69.2383C13.3789-69.2383 9.76562-65.625 9.76562-58.6914L9.76562-11.6211C9.76562-4.6875 13.3789-1.12305 20.3125-1.12305ZM20.4102-4.44336C15.625-4.44336 13.0859-6.93359 13.0859-11.8164L13.0859-58.5449C13.0859-63.3789 15.625-65.918 20.4102-65.918L67.2363-65.918C71.875-65.918 74.5605-63.3789 74.5605-58.5449L74.5605-11.8164C74.5605-6.93359 71.875-4.44336 67.2363-4.44336ZM31.543-18.7988L54.1992-18.7988C55.0293-18.7988 55.6152-19.3359 55.6152-20.166C55.6152-20.9961 55.0293-21.5332 54.1992-21.5332L36.7188-21.5332C38.7695-23.1934 40.3809-26.3672 40.3809-29.4434C40.3809-31.1523 40.0879-32.666 39.6973-34.1309L50.0488-34.1309C50.8301-34.1309 51.3672-34.668 51.3672-35.4492C51.3672-36.2305 50.8301-36.7676 50.0488-36.7676L39.0137-36.7676C38.5254-38.5742 38.0371-40.3809 38.0371-42.3828C38.0371-46.7773 40.7715-49.9023 46.5332-49.9023C50.5371-49.9023 51.9531-48.6328 52.7344-48.6328C53.6133-48.6328 54.0039-49.1699 54.0039-49.9023C54.0039-50.4883 53.7598-50.9766 52.6367-51.4648C51.416-51.9531 49.3652-52.6367 46.4355-52.6367C38.9648-52.6367 35.1074-48.4375 35.1074-42.2852C35.1074-40.3809 35.5469-38.5254 36.084-36.7676L32.2754-36.7676C31.4941-36.7676 30.9082-36.2305 30.9082-35.4492C30.9082-34.668 31.4941-34.1309 32.2754-34.1309L36.7676-34.1309C37.1582-32.5684 37.5-31.0059 37.5-29.3457C37.5-25.6836 35.1562-22.4121 31.3965-21.6797C30.6152-21.4355 30.1758-21.0449 30.1758-20.2148C30.1758-19.3848 30.7129-18.7988 31.543-18.7988Z"/>
  </g>
  <g id="Ultralight-S" transform="matrix(1 0 0 1 516.352 696)">
   <path d="M19.7754-1.5625L66.9922-1.5625C73.5352-1.5625 76.9531-5.12695 76.9531-11.5234L76.9531-58.7891C76.9531-65.2344 73.5352-68.75 66.9922-68.75L19.7754-68.75C13.2324-68.75 9.76562-65.2832 9.76562-58.7891L9.76562-11.5234C9.76562-5.0293 13.2324-1.5625 19.7754-1.5625ZM19.873-3.75977C14.6484-3.75977 11.9629-6.44531 11.9629-11.6699L11.9629-58.6426C11.9629-63.8672 14.6484-66.5527 19.873-66.5527L66.8945-66.5527C71.875-66.5527 74.7559-63.8672 74.7559-58.6426L74.7559-11.6699C74.7559-6.44531 71.875-3.75977 66.8945-3.75977ZM31.0059-19.0918L53.4668-19.0918C54.0527-19.0918 54.4922-19.5312 54.4922-20.166C54.4922-20.8008 54.0527-21.2402 53.4668-21.2402L35.5957-21.2402C37.7441-22.8516 39.4043-26.0254 39.4043-29.0527C39.4043-30.9082 39.1113-32.5684 38.6719-34.1797L49.3164-34.1797C49.9023-34.1797 50.3418-34.5703 50.3418-35.2051C50.3418-35.8398 49.9023-36.2305 49.3164-36.2305L38.0859-36.2305C37.5488-38.1836 37.0117-40.0391 37.0117-42.1387C37.0117-46.6309 39.6484-49.9023 45.6543-49.9023C50-49.9023 51.3184-48.4863 52.002-48.4863C52.6855-48.4863 52.9785-48.877 52.9785-49.4141C52.9785-49.8535 52.832-50.2441 51.8555-50.6836C50.8301-51.123 48.8281-51.9531 45.6543-51.9531C38.3301-51.9531 34.8633-47.9004 34.8633-42.1387C34.8633-40.0391 35.3516-38.1348 35.9375-36.2305L32.0312-36.2305C31.3965-36.2305 31.0059-35.8398 31.0059-35.2051C31.0059-34.5703 31.3965-34.1797 32.0312-34.1797L36.4746-34.1797C36.9141-32.5195 37.3047-30.8594 37.3047-29.0527C37.3047-25.4883 35.0586-22.0215 30.9082-21.2891C30.3711-21.1426 29.9805-20.8984 29.9805-20.2148C29.9805-19.5801 30.3711-19.0918 31.0059-19.0918Z"/>
  </g>
 </g>
</svg>
